<svg width="28" height="28" viewBox="0 0 28 28" fill="none" xmlns="http://www.w3.org/2000/svg">
<path fill-rule="evenodd" clip-rule="evenodd" d="M19 2.2H9C5.24446 2.2 2.2 5.24446 2.2 9V19C2.2 22.7555 5.24446 25.8 9 25.8H19C22.7555 25.8 25.8 22.7555 25.8 19V9C25.8 5.24446 22.7555 2.2 19 2.2ZM9 0C4.02944 0 0 4.02944 0 9V19C0 23.9706 4.02944 28 9 28H19C23.9706 28 28 23.9706 28 19V9C28 4.02944 23.9706 0 19 0H9Z" fill="white"/>
<path d="M17.9993 6.00333L15.9245 6C13.5935 6 12.0871 7.54552 12.0871 9.93762V11.7531H10.001C9.82072 11.7531 9.67474 11.8993 9.67474 12.0795V14.71C9.67474 14.8903 9.82089 15.0363 10.001 15.0363H12.0871V21.6738C12.0871 21.854 12.2331 22 12.4134 22H15.1352C15.3155 22 15.4614 21.8539 15.4614 21.6738V15.0363H17.9006C18.0809 15.0363 18.2269 14.8903 18.2269 14.71L18.2279 12.0795C18.2279 11.993 18.1934 11.9101 18.1323 11.8488C18.0712 11.7876 17.988 11.7531 17.9015 11.7531H15.4614V10.2141C15.4614 9.47438 15.6377 9.09886 16.6013 9.09886L17.999 9.09836C18.1791 9.09836 18.3251 8.95222 18.3251 8.77211V6.32958C18.3251 6.14964 18.1793 6.00366 17.9993 6.00333Z" fill="white"/>
</svg>
