<svg width="42" height="45" viewBox="0 0 42 45" fill="none" xmlns="http://www.w3.org/2000/svg">
<g clip-path="url(#clip0)">
<path d="M4.44735 21.8817C4.44735 21.8817 6.10668 24.4212 9.58448 26.5708C9.58448 26.5708 7.06571 4.39444 23.4771 0.542969C19.2725 16.6193 28.8256 21.1531 32.3079 12.6596C38.1233 20.7482 33.7078 27.8051 33.7078 27.8051C36.0924 28.163 38.0954 25.4491 38.0954 25.4491C38.1133 25.7834 38.1233 26.12 38.1233 26.459C38.1234 36.3107 30.4572 44.2971 21.0004 44.2971C11.5436 44.2971 3.87732 36.3107 3.87732 26.4589C3.87732 24.8764 4.07616 23.3425 4.44735 21.8817Z" fill="#FF6536"/>
<path d="M38.0951 25.4491C38.0951 25.4491 36.0921 28.163 33.7075 27.8051C33.7075 27.8051 38.123 20.7482 32.3076 12.6596C28.8253 21.1531 19.2722 16.6193 23.4769 0.542969C22.5979 0.749263 21.7736 1.00845 21 1.31362V44.2971C30.4568 44.2971 38.123 36.3107 38.123 26.4589C38.123 26.1199 38.113 25.7834 38.0951 25.4491Z" fill="#FF421D"/>
<path d="M13.4904 36.4741C13.4904 40.7947 16.8525 44.2972 20.9998 44.2972C25.1472 44.2972 28.5093 40.7947 28.5093 36.4741C28.5093 34.1615 27.5462 32.0834 26.0149 30.6512C23.1115 34.7604 18.974 28.5271 22.1985 23.9751C22.1985 23.9751 13.4904 25.1119 13.4904 36.4741Z" fill="#FBBF00"/>
<path d="M28.5095 36.4741C28.5095 34.1615 27.5463 32.0834 26.0151 30.6512C23.1116 34.7604 18.9742 28.5271 22.1986 23.9751C22.1986 23.9751 21.7255 24.0371 21 24.2756V44.2972C25.1473 44.2972 28.5095 40.7947 28.5095 36.4741Z" fill="#FFA900"/>
</g>
<defs>
<clipPath id="clip0">
<rect width="42" height="43.7542" fill="white" transform="translate(0 0.542969)"/>
</clipPath>
</defs>
</svg>
