<svg width="28" height="28" viewBox="0 0 28 28" fill="none" xmlns="http://www.w3.org/2000/svg">
<g clip-path="url(#clip0)">
<path d="M14.2756 28.0004C14.1829 28.0004 14.0901 28.0004 13.9968 28C11.802 28.0053 9.77411 27.9496 7.80194 27.8295C5.99384 27.7195 4.34338 27.0947 3.02875 26.0227C1.76025 24.9883 0.894012 23.5898 0.454163 21.8662C0.0713502 20.3657 0.0510559 18.8928 0.0316162 17.4682C0.0175171 16.446 0.00299072 15.2347 0 14.003C0.00299072 12.7661 0.0175171 11.5549 0.0316162 10.5327C0.0510559 9.10823 0.0713502 7.6353 0.454163 6.1346C0.894012 4.41109 1.76025 3.0125 3.02875 1.97813C4.34338 0.906172 5.99384 0.281324 7.80215 0.171308C9.77432 0.0514657 11.8027 -0.00450361 14.0021 0.000836975C16.1975 -0.00386273 18.2248 0.0514657 20.197 0.171308C22.0051 0.281324 23.6555 0.906172 24.9702 1.97813C26.2389 3.0125 27.1049 4.41109 27.5448 6.1346C27.9276 7.63509 27.9479 9.10823 27.9673 10.5327C27.9814 11.5549 27.9962 12.7661 27.9989 13.9979V14.003C27.9962 15.2347 27.9814 16.446 27.9673 17.4682C27.9479 18.8926 27.9278 20.3655 27.5448 21.8662C27.1049 23.5898 26.2389 24.9883 24.9702 26.0227C23.6555 27.0947 22.0051 27.7195 20.197 27.8295C18.3083 27.9445 16.3682 28.0004 14.2756 28.0004ZM13.9968 25.8125C16.1559 25.8176 18.1383 25.7632 20.0641 25.6461C21.4313 25.563 22.6167 25.1193 23.5878 24.3274C24.4855 23.5953 25.1037 22.5853 25.4252 21.3253C25.7439 20.0763 25.7623 18.7352 25.78 17.4383C25.7939 16.4229 25.8084 15.2202 25.8114 14.0004C25.8084 12.7804 25.7939 11.5779 25.78 10.5626C25.7623 9.26567 25.7439 7.92455 25.4252 6.67528C25.1037 5.41533 24.4855 4.40532 23.5878 3.67323C22.6167 2.88155 21.4313 2.43785 20.0641 2.35475C18.1383 2.23747 16.1559 2.18342 14.0019 2.18812C11.8433 2.183 9.86063 2.23747 7.93481 2.35475C6.56763 2.43785 5.38223 2.88155 4.4111 3.67323C3.51346 4.40532 2.89523 5.41533 2.57373 6.67528C2.255 7.92455 2.23663 9.26546 2.2189 10.5626C2.20502 11.5788 2.19049 12.7821 2.1875 14.003C2.19049 15.2185 2.20502 16.4221 2.2189 17.4383C2.23663 18.7352 2.255 20.0763 2.57373 21.3253C2.89523 22.5853 3.51346 23.5953 4.4111 24.3274C5.38223 25.1191 6.56763 25.5628 7.93481 25.6459C9.86063 25.7632 11.8437 25.8178 13.9968 25.8125ZM13.9447 20.8364C10.1755 20.8364 7.10873 17.7698 7.10873 14.0004C7.10873 10.231 10.1755 7.16448 13.9447 7.16448C17.7141 7.16448 20.7806 10.231 20.7806 14.0004C20.7806 17.7698 17.7141 20.8364 13.9447 20.8364ZM13.9447 9.35198C11.3816 9.35198 9.29623 11.4374 9.29623 14.0004C9.29623 16.5635 11.3816 18.6489 13.9447 18.6489C16.5079 18.6489 18.5931 16.5635 18.5931 14.0004C18.5931 11.4374 16.5079 9.35198 13.9447 9.35198ZM21.5462 4.97698C20.6403 4.97698 19.9056 5.71141 19.9056 6.6176C19.9056 7.52379 20.6403 8.25823 21.5462 8.25823C22.4524 8.25823 23.1869 7.52379 23.1869 6.6176C23.1869 5.71141 22.4524 4.97698 21.5462 4.97698Z" fill="white"/>
</g>
<defs>
<clipPath id="clip0">
<rect width="28" height="28" fill="white"/>
</clipPath>
</defs>
</svg>
