<svg width="85" height="15" viewBox="0 0 85 15" fill="none" xmlns="http://www.w3.org/2000/svg">
<path d="M14.9785 5.43344C14.9268 5.27433 14.7893 5.15837 14.6238 5.13435L9.9737 4.45862L7.89407 0.24495C7.82006 0.0949508 7.66728 0 7.50003 0C7.33274 0 7.17999 0.0949508 7.10595 0.24495L5.02624 4.45862L0.376254 5.13435C0.210757 5.15837 0.0732087 5.27433 0.0215293 5.43341C-0.0301795 5.59252 0.0129453 5.76716 0.13274 5.8839L3.49741 9.16379L2.70324 13.7951C2.67494 13.96 2.74273 14.1266 2.87805 14.2249C2.9546 14.2805 3.04528 14.3088 3.13639 14.3088C3.20635 14.3088 3.27655 14.2922 3.34082 14.2584L7.5 12.0717L11.659 14.2583C11.8071 14.3362 11.9865 14.3232 12.1218 14.2249C12.2571 14.1266 12.3249 13.9599 12.2967 13.7951L11.5022 9.16379L14.8673 5.88387C14.987 5.76716 15.0302 5.59252 14.9785 5.43344Z" fill="white"/>
<path d="M32.4785 5.43344C32.4268 5.27433 32.2893 5.15837 32.1238 5.13435L27.4737 4.45862L25.3941 0.24495C25.3201 0.0949508 25.1673 0 25 0C24.8327 0 24.68 0.0949508 24.606 0.24495L22.5262 4.45862L17.8763 5.13435C17.7108 5.15837 17.5732 5.27433 17.5215 5.43341C17.4698 5.59252 17.5129 5.76716 17.6327 5.8839L20.9974 9.16379L20.2032 13.7951C20.1749 13.96 20.2427 14.1266 20.3781 14.2249C20.4546 14.2805 20.5453 14.3088 20.6364 14.3088C20.7064 14.3088 20.7765 14.2922 20.8408 14.2584L25 12.0717L29.159 14.2583C29.3071 14.3362 29.4865 14.3232 29.6218 14.2249C29.7571 14.1266 29.8249 13.9599 29.7967 13.7951L29.0022 9.16379L32.3673 5.88387C32.487 5.76716 32.5302 5.59252 32.4785 5.43344Z" fill="white"/>
<path d="M49.9785 5.43344C49.9268 5.27433 49.7893 5.15837 49.6238 5.13435L44.9737 4.45862L42.8941 0.24495C42.8201 0.0949508 42.6673 0 42.5 0C42.3327 0 42.18 0.0949508 42.106 0.24495L40.0262 4.45862L35.3763 5.13435C35.2108 5.15837 35.0732 5.27433 35.0215 5.43341C34.9698 5.59252 35.0129 5.76716 35.1327 5.8839L38.4974 9.16379L37.7032 13.7951C37.6749 13.96 37.7427 14.1266 37.8781 14.2249C37.9546 14.2805 38.0453 14.3088 38.1364 14.3088C38.2064 14.3088 38.2765 14.2922 38.3408 14.2584L42.5 12.0717L46.659 14.2583C46.8071 14.3362 46.9865 14.3232 47.1218 14.2249C47.2571 14.1266 47.3249 13.9599 47.2967 13.7951L46.5022 9.16379L49.8673 5.88387C49.987 5.76716 50.0302 5.59252 49.9785 5.43344Z" fill="white"/>
<path d="M67.4785 5.43344C67.4268 5.27433 67.2893 5.15837 67.1238 5.13435L62.4737 4.45862L60.3941 0.24495C60.3201 0.0949508 60.1673 0 60 0C59.8327 0 59.68 0.0949508 59.606 0.24495L57.5262 4.45862L52.8763 5.13435C52.7108 5.15837 52.5732 5.27433 52.5215 5.43341C52.4698 5.59252 52.5129 5.76716 52.6327 5.8839L55.9974 9.16379L55.2032 13.7951C55.1749 13.96 55.2427 14.1266 55.3781 14.2249C55.4546 14.2805 55.5453 14.3088 55.6364 14.3088C55.7064 14.3088 55.7765 14.2922 55.8408 14.2584L60 12.0717L64.159 14.2583C64.3071 14.3362 64.4865 14.3232 64.6218 14.2249C64.7571 14.1266 64.8249 13.9599 64.7967 13.7951L64.0022 9.16379L67.3673 5.88387C67.487 5.76716 67.5302 5.59252 67.4785 5.43344Z" fill="white"/>
<path d="M84.9785 5.43344C84.9268 5.27433 84.7893 5.15837 84.6238 5.13435L79.9737 4.45862L77.8941 0.24495C77.8201 0.0949508 77.6673 0 77.5 0C77.3327 0 77.18 0.0949508 77.106 0.24495L75.0262 4.45862L70.3763 5.13435C70.2108 5.15837 70.0732 5.27433 70.0215 5.43341C69.9698 5.59252 70.0129 5.76716 70.1327 5.8839L73.4974 9.16379L72.7032 13.7951C72.6749 13.96 72.7427 14.1266 72.8781 14.2249C72.9546 14.2805 73.0453 14.3088 73.1364 14.3088C73.2064 14.3088 73.2765 14.2922 73.3408 14.2584L77.5 12.0717L81.659 14.2583C81.8071 14.3362 81.9865 14.3232 82.1218 14.2249C82.2571 14.1266 82.3249 13.9599 82.2967 13.7951L81.5022 9.16379L84.8673 5.88387C84.987 5.76716 85.0302 5.59252 84.9785 5.43344Z" fill="white"/>
</svg>
