<svg width="43" height="43" viewBox="0 0 43 43" fill="none" xmlns="http://www.w3.org/2000/svg">
<path d="M32.1291 19.5999C31.9114 19.1189 31.433 18.8125 30.9062 18.8125H25.5312V1.34375C25.5312 0.602 24.9292 0 24.1875 0H18.8125C18.0707 0 17.4687 0.602 17.4687 1.34375V18.8125H12.0938C11.567 18.8125 11.0886 19.1216 10.8709 19.5999C10.6506 20.081 10.7366 20.6427 11.0833 21.0404L20.4895 31.7904C20.7448 32.0834 21.113 32.25 21.5 32.25C21.887 32.25 22.2552 32.0807 22.5105 31.7904L31.9167 21.0404C32.2661 20.6454 32.3467 20.081 32.1291 19.5999Z" fill="white"/>
<path d="M36.2812 29.5625V37.625H6.71875V29.5625H1.34375V40.3125C1.34375 41.7987 2.54775 43 4.03125 43H38.9688C40.4549 43 41.6562 41.7987 41.6562 40.3125V29.5625H36.2812Z" fill="white"/>
</svg>
