<svg width="28" height="28" viewBox="0 0 28 28" fill="none" xmlns="http://www.w3.org/2000/svg">
<path fill-rule="evenodd" clip-rule="evenodd" d="M19 2.2H9C5.24446 2.2 2.2 5.24446 2.2 9V19C2.2 22.7555 5.24446 25.8 9 25.8H19C22.7555 25.8 25.8 22.7555 25.8 19V9C25.8 5.24446 22.7555 2.2 19 2.2ZM9 0C4.02944 0 0 4.02944 0 9V19C0 23.9706 4.02944 28 9 28H19C23.9706 28 28 23.9706 28 19V9C28 4.02944 23.9706 0 19 0H9Z" fill="white"/>
<path d="M21.1831 10.2508C21.0103 9.60818 20.5036 9.10162 19.8611 8.92859C18.6873 8.60742 13.992 8.60742 13.992 8.60742C13.992 8.60742 9.29691 8.60742 8.12311 8.91641C7.49295 9.08926 6.97394 9.60828 6.80109 10.2508C6.49219 11.4245 6.49219 13.8586 6.49219 13.8586C6.49219 13.8586 6.49219 16.305 6.80109 17.4664C6.97412 18.1089 7.48059 18.6155 8.1232 18.7885C9.30926 19.1098 13.9922 19.1098 13.9922 19.1098C13.9922 19.1098 18.6873 19.1098 19.8611 18.8008C20.5037 18.6279 21.0103 18.1213 21.1833 17.4788C21.4921 16.305 21.4921 13.871 21.4921 13.871C21.4921 13.871 21.5045 11.4245 21.1831 10.2508ZM12.4971 16.1073V11.6099L16.4015 13.8586L12.4971 16.1073Z" fill="white"/>
</svg>
