<svg width="192" height="60" viewBox="0 0 192 60" fill="none" xmlns="http://www.w3.org/2000/svg">
<rect width="192" height="60" rx="8" fill="#FF1469"/>
<path d="M49.745 29.0095C49.7039 24.4936 53.485 22.2966 53.6579 22.1943C51.5165 19.1075 48.1974 18.6858 47.0311 18.6521C44.2435 18.3621 41.5395 20.3013 40.1195 20.3013C38.6711 20.3013 36.4844 18.6802 34.1276 18.7278C31.0948 18.774 28.2576 20.5101 26.7015 23.2059C23.4902 28.7026 25.8852 36.7803 28.962 41.2234C30.501 43.4008 32.2994 45.829 34.6534 45.7435C36.9563 45.651 37.8165 44.2933 40.5956 44.2933C43.3492 44.2933 44.157 45.7435 46.5577 45.6889C49.0293 45.651 50.5854 43.5031 52.0706 41.3075C53.8492 38.8148 54.5634 36.3572 54.5918 36.2311C54.5351 36.2114 49.7932 34.4208 49.745 29.0095V29.0095ZM45.21 15.7293C46.4486 14.1979 47.2961 12.1143 47.0608 10C45.2681 10.0785 43.0261 11.226 41.7351 12.7238C40.5928 14.0437 39.5724 16.2071 39.836 18.2416C41.8498 18.3901 43.9175 17.237 45.21 15.7293V15.7293Z" fill="white"/>
<path d="M80.2154 44.15H77.3785L75.8244 39.2727H70.4228L68.9425 44.15H66.1804L71.5333 27.5456H74.8388L80.2154 44.15V44.15ZM75.356 37.2265L73.9506 32.8907C73.8019 32.4478 73.5221 31.4047 73.1124 29.7628H73.0624C72.8975 30.469 72.6339 31.512 72.2729 32.8907L70.8912 37.2265H75.356ZM93.9544 38.0163C93.9544 40.0525 93.401 41.6621 92.2929 42.8436C91.301 43.8954 90.0681 44.4207 88.5977 44.4207C87.01 44.4207 85.8682 43.8555 85.1749 42.7226V49.0048H82.5115V36.1123C82.5115 34.8334 82.4778 33.5221 82.4128 32.1771H84.7551L84.9038 34.0748H84.9537C85.8419 32.6449 87.1899 31.93 88.9987 31.93C90.4128 31.93 91.5934 32.4877 92.5378 33.6044C93.4809 34.7236 93.9544 36.1934 93.9544 38.0163ZM91.2411 38.1136C91.2411 36.9482 90.9787 35.9875 90.4516 35.2302C89.8757 34.4429 89.1024 34.0486 88.133 34.0486C87.4759 34.0486 86.8788 34.2682 86.3454 34.7011C85.8107 35.1378 85.4609 35.708 85.2973 36.4142C85.2242 36.6783 85.1827 36.9501 85.1736 37.224V39.2216C85.1736 40.0912 85.4409 40.8261 85.9756 41.4275C86.5103 42.0264 87.2048 42.3271 88.0593 42.3271C89.0624 42.3271 89.8432 41.939 90.4016 41.1692C90.9613 40.3969 91.2411 39.3788 91.2411 38.1136V38.1136ZM107.742 38.0163C107.742 40.0525 107.189 41.6621 106.081 42.8436C105.087 43.8954 103.856 44.4207 102.384 44.4207C100.796 44.4207 99.6546 43.8555 98.9613 42.7226V49.0048H96.2979V36.1123C96.2979 34.8334 96.2642 33.5221 96.1992 32.1771H98.5415L98.6902 34.0748H98.7402C99.6271 32.6449 100.975 31.93 102.785 31.93C104.198 31.93 105.379 32.4877 106.325 33.6044C107.267 34.7236 107.742 36.1934 107.742 38.0163V38.0163ZM105.028 38.1136C105.028 36.9482 104.764 35.9875 104.237 35.2302C103.661 34.4429 102.89 34.0486 101.921 34.0486C101.264 34.0486 100.666 34.2682 100.131 34.7011C99.5959 35.1378 99.2473 35.708 99.0837 36.4142C99.0025 36.7436 98.9588 37.0119 98.9588 37.224V39.2216C98.9588 40.0912 99.2274 40.8261 99.7595 41.4275C100.294 42.0251 100.989 42.3271 101.846 42.3271C102.85 42.3271 103.631 41.939 104.188 41.1692C104.748 40.3969 105.028 39.3788 105.028 38.1136V38.1136ZM123.157 39.4923C123.157 40.9059 122.663 42.0551 121.68 42.9422C120.598 43.9104 119.088 44.3958 117.151 44.3958C115.362 44.3958 113.928 44.0514 112.846 43.3614L113.462 41.1443C114.63 41.8355 115.913 42.1798 117.31 42.1798C118.314 42.1798 119.095 41.9528 119.652 41.5023C120.211 41.0507 120.493 40.4468 120.493 39.6932C120.493 39.0182 120.259 38.453 119.801 37.9926C119.34 37.5334 118.578 37.1055 117.507 36.7124C114.597 35.6282 113.14 34.0424 113.14 31.9562C113.14 30.5937 113.655 29.4783 114.681 28.6061C115.708 27.7352 117.07 27.2998 118.764 27.2998C120.277 27.2998 121.537 27.5631 122.538 28.0883L121.87 30.2568C120.928 29.7478 119.865 29.4933 118.675 29.4933C117.736 29.4933 116.999 29.7241 116.472 30.1832C116.028 30.5937 115.803 31.0941 115.803 31.688C115.803 32.343 116.059 32.887 116.569 33.3137C117.011 33.7067 117.818 34.1347 118.985 34.5938C120.417 35.1703 121.469 35.8415 122.142 36.6126C122.82 37.3837 123.157 38.3457 123.157 39.4923ZM131.986 34.1734H129.05V39.9864C129.05 41.4649 129.567 42.2023 130.604 42.2023C131.08 42.2023 131.475 42.1624 131.787 42.0788L131.861 44.0988C131.336 44.2947 130.645 44.3933 129.79 44.3933C128.738 44.3933 127.916 44.0726 127.322 43.4313C126.732 42.79 126.434 41.7157 126.434 40.2035V34.1684H124.685V32.1721H126.434V29.9799L129.05 29.1913V32.1721H131.986V34.1734V34.1734ZM145.205 38.0649C145.205 39.9053 144.678 41.4163 143.626 42.5978C142.525 43.8143 141.061 44.4207 139.236 44.4207C137.475 44.4207 136.074 43.838 135.03 42.6739C133.986 41.5073 133.464 40.0375 133.464 38.2646C133.464 36.4092 134.003 34.8895 135.079 33.708C136.157 32.5252 137.608 31.9338 139.434 31.9338C141.193 31.9338 142.605 32.5177 143.675 33.683C144.697 34.8134 145.205 36.2732 145.205 38.0649ZM142.444 38.1261C142.444 37.0294 142.207 36.0886 141.731 35.3013C141.173 34.3505 140.373 33.8752 139.337 33.8752C138.271 33.8752 137.452 34.3505 136.895 35.3013C136.418 36.0886 136.181 37.0456 136.181 38.176C136.181 39.274 136.418 40.2172 136.895 41.002C137.471 41.9528 138.274 42.4281 139.315 42.4281C140.333 42.4281 141.131 41.9428 141.708 40.9783C142.198 40.1723 142.444 39.2253 142.444 38.1261ZM153.866 34.5165C153.589 34.4665 153.308 34.4419 153.026 34.4429C152.089 34.4429 151.365 34.7947 150.855 35.5034C150.413 36.1273 150.191 36.9158 150.191 37.8678V44.15H147.527V35.9476C147.53 34.6907 147.504 33.434 147.45 32.1783H149.77L149.867 34.4691H149.941C150.223 33.6818 150.665 33.0467 151.272 32.5713C151.828 32.1559 152.503 31.931 153.198 31.93C153.444 31.93 153.666 31.9475 153.863 31.9787L153.866 34.5165V34.5165ZM165.777 37.5971C165.784 38.0014 165.751 38.4055 165.68 38.8036H157.69C157.72 39.9864 158.107 40.8922 158.849 41.5161C159.522 42.0725 160.393 42.352 161.462 42.352C162.645 42.352 163.725 42.1649 164.695 41.7868L165.113 43.6322C163.978 44.1263 162.639 44.372 161.094 44.372C159.235 44.372 157.776 43.8256 156.714 42.7351C155.655 41.6433 155.124 40.176 155.124 38.3382C155.124 36.534 155.617 35.0305 156.605 33.8315C157.64 32.5514 159.038 31.9113 160.797 31.9113C162.524 31.9113 163.832 32.5514 164.72 33.8315C165.424 34.8459 165.777 36.1036 165.777 37.5971V37.5971ZM163.238 36.9071C163.256 36.1173 163.081 35.4373 162.72 34.8621C162.259 34.121 161.55 33.7516 160.599 33.7516C159.728 33.7516 159.019 34.1122 158.479 34.8359C158.036 35.4111 157.772 36.1023 157.691 36.9046L163.238 36.9071Z" fill="white"/>
<path d="M62.392 20H62.26V11.6H62.404C62.748 11.6 63.088 11.596 63.424 11.588C64.112 11.572 64.488 11.564 64.552 11.564C65.368 11.564 66.084 11.676 66.7 11.9C67.316 12.116 67.808 12.42 68.176 12.812C68.544 13.196 68.816 13.632 68.992 14.12C69.176 14.6 69.268 15.124 69.268 15.692C69.268 16.948 68.848 17.984 68.008 18.8C67.176 19.616 65.992 20.024 64.456 20.024C64.12 20.024 63.792 20.02 63.472 20.012C63.16 20.004 62.8 20 62.392 20ZM64.528 12.524C64.384 12.524 64.164 12.532 63.868 12.548C63.58 12.556 63.384 12.56 63.28 12.56V19.04C63.488 19.04 63.688 19.044 63.88 19.052C64.08 19.052 64.228 19.056 64.324 19.064C64.42 19.064 64.476 19.064 64.492 19.064C65.652 19.064 66.56 18.756 67.216 18.14C67.864 17.516 68.188 16.7 68.188 15.692C68.188 14.748 67.872 13.984 67.24 13.4C66.608 12.816 65.704 12.524 64.528 12.524ZM71.0616 19.328C70.5336 18.784 70.2696 18.108 70.2696 17.3C70.2696 16.484 70.5336 15.812 71.0616 15.284C71.5976 14.748 72.2936 14.48 73.1496 14.48C74.0056 14.48 74.6976 14.748 75.2256 15.284C75.7616 15.812 76.0296 16.484 76.0296 17.3C76.0296 18.116 75.7616 18.792 75.2256 19.328C74.6976 19.856 74.0056 20.12 73.1496 20.12C72.3016 20.12 71.6056 19.856 71.0616 19.328ZM71.8176 15.92C71.4656 16.272 71.2896 16.732 71.2896 17.3C71.2896 17.868 71.4616 18.328 71.8056 18.68C72.1576 19.04 72.6056 19.22 73.1496 19.22C73.6936 19.22 74.1376 19.044 74.4816 18.692C74.8336 18.332 75.0096 17.868 75.0096 17.3C75.0096 16.748 74.8336 16.288 74.4816 15.92C74.1376 15.56 73.6936 15.38 73.1496 15.38C72.6056 15.38 72.1616 15.56 71.8176 15.92ZM83.8605 14.6H84.8325L83.1045 20.048H82.2645L80.9205 16.532C80.8565 16.364 80.7885 16.144 80.7165 15.872C80.6445 16.136 80.5685 16.368 80.4885 16.568L79.1805 20.048H78.3885L76.6005 14.6H77.6325L78.6885 18.008C78.7045 18.064 78.7245 18.144 78.7485 18.248C78.7805 18.352 78.8085 18.46 78.8325 18.572C78.8645 18.676 78.8845 18.74 78.8925 18.764C79.0365 18.268 79.1125 18.016 79.1205 18.008L80.3445 14.6H81.1725L82.4085 17.996L82.6605 18.776C82.7165 18.504 82.7885 18.228 82.8765 17.948L83.8605 14.6ZM86.7771 20H85.8171V14.6H86.7771V15.26C86.9771 15.036 87.2371 14.856 87.5571 14.72C87.8851 14.576 88.2131 14.504 88.5411 14.504C90.0371 14.504 90.7851 15.296 90.7851 16.88V20H89.8251V17.06C89.8251 15.956 89.3171 15.404 88.3011 15.404C87.6931 15.404 87.1851 15.636 86.7771 16.1V20ZM92.4031 18.56V11.6H93.3631V18.128C93.3631 18.84 93.5751 19.196 93.9991 19.196C94.2071 19.196 94.4351 19.116 94.6831 18.956L94.8991 19.688C94.5551 19.96 94.1311 20.096 93.6271 20.096C92.8111 20.096 92.4031 19.584 92.4031 18.56ZM96.3155 19.328C95.7875 18.784 95.5235 18.108 95.5235 17.3C95.5235 16.484 95.7875 15.812 96.3155 15.284C96.8515 14.748 97.5475 14.48 98.4035 14.48C99.2595 14.48 99.9515 14.748 100.48 15.284C101.016 15.812 101.284 16.484 101.284 17.3C101.284 18.116 101.016 18.792 100.48 19.328C99.9515 19.856 99.2595 20.12 98.4035 20.12C97.5555 20.12 96.8595 19.856 96.3155 19.328ZM97.0715 15.92C96.7195 16.272 96.5435 16.732 96.5435 17.3C96.5435 17.868 96.7155 18.328 97.0595 18.68C97.4115 19.04 97.8595 19.22 98.4035 19.22C98.9475 19.22 99.3915 19.044 99.7355 18.692C100.088 18.332 100.264 17.868 100.264 17.3C100.264 16.748 100.088 16.288 99.7355 15.92C99.3915 15.56 98.9475 15.38 98.4035 15.38C97.8595 15.38 97.4155 15.56 97.0715 15.92ZM102.957 15.74L102.705 14.972C103.241 14.644 103.841 14.48 104.505 14.48C105.233 14.48 105.761 14.66 106.089 15.02C106.417 15.38 106.581 15.936 106.581 16.688V20H105.669V19.304C105.245 19.824 104.669 20.084 103.941 20.084C103.445 20.084 103.045 19.936 102.741 19.64C102.437 19.336 102.285 18.928 102.285 18.416C102.285 17.888 102.473 17.472 102.849 17.168C103.225 16.856 103.717 16.7 104.325 16.7C104.893 16.7 105.341 16.816 105.669 17.048C105.669 16.44 105.585 16.004 105.417 15.74C105.249 15.476 104.925 15.344 104.445 15.344C103.957 15.344 103.461 15.476 102.957 15.74ZM104.277 19.22C104.813 19.22 105.277 18.988 105.669 18.524V17.84C105.333 17.6 104.929 17.48 104.457 17.48C104.129 17.48 103.853 17.56 103.629 17.72C103.413 17.872 103.305 18.088 103.305 18.368C103.305 18.632 103.389 18.84 103.557 18.992C103.733 19.144 103.973 19.22 104.277 19.22ZM113.108 20H112.148V19.316C111.668 19.836 111.096 20.096 110.432 20.096C109.64 20.096 109.008 19.844 108.536 19.34C108.064 18.828 107.828 18.16 107.828 17.336C107.828 16.496 108.104 15.812 108.656 15.284C109.216 14.748 109.924 14.48 110.78 14.48C111.324 14.48 111.78 14.608 112.148 14.864V11.6H113.108V20ZM110.612 19.196C111.204 19.196 111.716 18.956 112.148 18.476V15.8C111.7 15.52 111.256 15.38 110.816 15.38C110.264 15.38 109.796 15.56 109.412 15.92C109.036 16.272 108.848 16.736 108.848 17.312C108.848 17.888 109.008 18.348 109.328 18.692C109.656 19.028 110.084 19.196 110.612 19.196ZM117.96 19.328C117.432 18.784 117.168 18.108 117.168 17.3C117.168 16.484 117.432 15.812 117.96 15.284C118.496 14.748 119.192 14.48 120.048 14.48C120.904 14.48 121.596 14.748 122.124 15.284C122.66 15.812 122.928 16.484 122.928 17.3C122.928 18.116 122.66 18.792 122.124 19.328C121.596 19.856 120.904 20.12 120.048 20.12C119.2 20.12 118.504 19.856 117.96 19.328ZM118.716 15.92C118.364 16.272 118.188 16.732 118.188 17.3C118.188 17.868 118.36 18.328 118.704 18.68C119.056 19.04 119.504 19.22 120.048 19.22C120.592 19.22 121.036 19.044 121.38 18.692C121.732 18.332 121.908 17.868 121.908 17.3C121.908 16.748 121.732 16.288 121.38 15.92C121.036 15.56 120.592 15.38 120.048 15.38C119.504 15.38 119.06 15.56 118.716 15.92ZM125.273 20H124.313V14.6H125.273V15.26C125.473 15.036 125.733 14.856 126.053 14.72C126.381 14.576 126.709 14.504 127.037 14.504C128.533 14.504 129.281 15.296 129.281 16.88V20H128.321V17.06C128.321 15.956 127.813 15.404 126.797 15.404C126.189 15.404 125.681 15.636 125.273 16.1V20ZM133.474 17.948V13.1H134.434V14.6H136.414V15.5H134.434V17.852C134.434 18.748 134.754 19.196 135.394 19.196C135.706 19.196 135.99 19.096 136.246 18.896L136.546 19.64C136.17 19.944 135.71 20.096 135.166 20.096C134.582 20.096 134.154 19.92 133.882 19.568C133.61 19.216 133.474 18.676 133.474 17.948ZM138.785 20H137.825V11.6H138.785V15.224C139.265 14.744 139.853 14.504 140.549 14.504C142.045 14.504 142.793 15.304 142.793 16.904V20H141.833V17.036C141.833 15.948 141.329 15.404 140.321 15.404C140.041 15.404 139.757 15.468 139.469 15.596C139.189 15.724 138.961 15.888 138.785 16.088V20ZM148.671 18.656L148.971 19.412C148.451 19.884 147.775 20.12 146.943 20.12C146.063 20.12 145.363 19.864 144.843 19.352C144.315 18.84 144.051 18.156 144.051 17.3C144.051 16.492 144.299 15.82 144.795 15.284C145.283 14.748 145.963 14.48 146.835 14.48C147.555 14.48 148.151 14.712 148.623 15.176C149.103 15.632 149.343 16.224 149.343 16.952C149.343 17.184 149.323 17.4 149.283 17.6H145.131C145.171 18.104 145.359 18.5 145.695 18.788C146.039 19.076 146.479 19.22 147.015 19.22C147.719 19.22 148.271 19.032 148.671 18.656ZM146.787 15.38C146.315 15.38 145.923 15.512 145.611 15.776C145.307 16.04 145.127 16.388 145.071 16.82H148.347C148.323 16.372 148.171 16.02 147.891 15.764C147.619 15.508 147.251 15.38 146.787 15.38Z" fill="white"/>
</svg>
