<svg width="193" height="60" viewBox="0 0 193 60" fill="none" xmlns="http://www.w3.org/2000/svg">
<rect width="192.044" height="60" rx="8" fill="#FF1469"/>
<path fill-rule="evenodd" clip-rule="evenodd" d="M96.8041 33.853C93.6501 33.853 91.0935 36.1529 91.0935 39.3252C91.0935 42.4686 93.6668 44.7974 96.8041 44.7974C99.9582 44.7974 102.515 42.4815 102.515 39.3252C102.515 36.1529 99.9582 33.853 96.8041 33.853ZM96.8041 42.629C95.0786 42.629 93.5933 41.2562 93.5933 39.3124C93.5933 37.3397 95.0819 35.9957 96.8041 35.9957C98.5297 35.9957 100.015 37.3397 100.015 39.3124C100.018 41.269 98.5297 42.629 96.8041 42.629ZM84.3448 33.853C81.1908 33.853 78.6341 36.1529 78.6341 39.3252C78.6341 42.4686 81.2074 44.7974 84.3448 44.7974C87.4989 44.7974 90.0555 42.4815 90.0555 39.3252C90.0555 36.1529 87.4955 33.853 84.3448 33.853ZM84.3448 42.629C82.6193 42.629 81.134 41.2562 81.134 39.3124C81.134 37.3397 82.6226 35.9957 84.3448 35.9957C86.0704 35.9957 87.5556 37.3397 87.5556 39.3124C87.5556 41.269 86.0704 42.629 84.3448 42.629ZM69.5191 35.5242V37.8401H75.3032C75.1263 39.1392 74.6791 40.0982 73.9949 40.7558C73.1471 41.5705 71.8388 42.4558 69.5325 42.4558C65.9779 42.4558 63.1977 39.6973 63.1977 36.2812C63.1977 32.8651 65.9779 30.1065 69.5325 30.1065C71.4516 30.1065 72.8501 30.8347 73.8881 31.7649L75.5969 30.1226C74.1551 28.7946 72.2359 27.7778 69.5458 27.7778C64.6696 27.7778 60.5776 31.5949 60.5776 36.2683C60.5776 40.9547 64.6662 44.7589 69.5458 44.7589C72.1792 44.7589 74.1551 43.9313 75.7171 42.3724C77.3091 40.8424 77.8131 38.6837 77.8131 36.9419C77.8131 36.3999 77.7697 35.9123 77.6796 35.4985H69.5158C69.5191 35.4953 69.5191 35.5242 69.5191 35.5242ZM130.16 37.3269C129.683 36.0983 128.241 33.8402 125.284 33.8402C122.354 33.8402 119.917 36.0566 119.917 39.3124C119.917 42.3852 122.327 44.7845 125.568 44.7845C128.171 44.7845 129.686 43.2545 130.31 42.3564L128.378 41.1118C127.737 42.026 126.846 42.6258 125.581 42.6258C124.303 42.6258 123.408 42.0677 122.814 40.9675L130.427 37.9363C130.427 37.9395 130.16 37.3269 130.16 37.3269ZM122.397 39.1552C122.337 37.0414 124.106 35.9668 125.371 35.9668C126.369 35.9668 127.2 36.4384 127.483 37.1248L122.397 39.1552ZM116.212 44.4574H118.712V28.3809H116.212V44.4574ZM112.107 35.0687H112.017C111.453 34.424 110.382 33.8402 109.013 33.8402C106.173 33.8402 103.556 36.2427 103.556 39.3284C103.556 42.4013 106.159 44.7749 109.013 44.7749C110.365 44.7749 111.453 44.1879 112.017 43.5304H112.107V44.3162C112.107 46.4044 110.946 47.5302 109.073 47.5302C107.541 47.5302 106.59 46.4717 106.203 45.5864L104.03 46.4589C104.654 47.9023 106.32 49.6889 109.07 49.6889C112 49.6889 114.483 48.0306 114.483 43.9858V34.1674H112.12V35.0687C112.124 35.0687 112.107 35.0687 112.107 35.0687ZM109.237 42.629C107.511 42.629 106.069 41.2433 106.069 39.3284C106.069 37.3974 107.511 35.9989 109.237 35.9989C110.946 35.9989 112.271 37.4135 112.271 39.3284C112.287 41.2433 110.949 42.629 109.237 42.629ZM141.865 28.3809H135.888V44.4574H138.387V38.3693H141.869C144.636 38.3693 147.356 36.4416 147.356 33.3815C147.356 30.3215 144.646 28.3809 141.865 28.3809ZM141.939 36.124H138.384V30.6069H141.939C143.811 30.6069 144.869 32.0921 144.869 33.3655C144.869 34.6261 143.798 36.124 141.939 36.124ZM157.375 33.8242C155.56 33.8242 153.687 34.5972 152.913 36.2812L155.129 37.1665C155.606 36.2812 156.481 35.9797 157.405 35.9797C158.7 35.9797 160.009 36.7238 160.039 38.0518V38.2218C159.591 37.978 158.61 37.6059 157.435 37.6059C155.042 37.6059 152.616 38.8633 152.616 41.2209C152.616 43.3796 154.578 44.7653 156.764 44.7653C158.443 44.7653 159.368 44.0372 159.945 43.1936H160.035V44.4381H162.445V38.2795C162.445 35.4119 160.229 33.8242 157.375 33.8242ZM157.061 42.629C156.244 42.629 155.099 42.2441 155.099 41.2562C155.099 40.0116 156.527 39.5401 157.746 39.5401C158.847 39.5401 159.368 39.7678 160.022 40.0822C159.842 41.5256 158.573 42.6162 157.061 42.629ZM171.236 34.1674L168.366 41.1407H168.276L165.302 34.1674H162.612L167.074 43.9153L164.531 49.3329H167.134L174 34.1674H171.236ZM148.734 44.4574H151.234V28.3809H148.734V44.4574Z" fill="white"/>
<path d="M22.4209 12.5438C21.0907 11.8085 19.529 11.8255 18.2073 12.5544L33.6976 26.8442L38.9015 21.6404L22.4209 12.5438Z" fill="white"/>
<path d="M16.6582 14.0164C16.28 14.6347 16.0632 15.3423 16.0632 16.0924V41.9012C16.0632 42.6279 16.2608 43.3206 16.6178 43.9262L32.1953 28.3487L16.6582 14.0164Z" fill="white"/>
<path d="M45.8008 25.4482L40.8371 22.7092L35.2593 28.2849L42.095 34.5894L45.8029 32.5432C47.1374 31.8037 47.9363 30.4778 47.9363 28.9946C47.9342 27.5115 47.1374 26.1855 45.8008 25.4482Z" fill="white"/>
<path d="M33.7572 29.7893L18.1372 45.4093C18.815 45.796 19.5588 46 20.3067 46C21.0292 46 21.7559 45.8173 22.421 45.4497L40.1361 35.6731L33.7572 29.7893Z" fill="white"/>
<path d="M68.044 17.688H65.776V16.728H69.004V19.956C68.644 20.316 68.168 20.6 67.576 20.808C66.976 21.016 66.404 21.12 65.86 21.12C64.556 21.12 63.52 20.728 62.752 19.944C61.984 19.16 61.6 18.112 61.6 16.8C61.6 15.576 61.98 14.548 62.74 13.716C63.492 12.892 64.488 12.48 65.728 12.48C66.8 12.48 67.68 12.752 68.368 13.296L67.924 14.112C67.428 13.664 66.736 13.44 65.848 13.44C64.912 13.44 64.148 13.748 63.556 14.364C62.972 14.972 62.68 15.784 62.68 16.8C62.68 17.824 62.972 18.64 63.556 19.248C64.14 19.856 64.916 20.16 65.884 20.16C66.268 20.16 66.672 20.092 67.096 19.956C67.496 19.812 67.812 19.632 68.044 19.416V17.688ZM75.8388 21H70.9788V12.6H75.7188V13.56H71.9988V16.272H75.3588V17.232H71.9988V20.04H75.8388V21ZM79.6811 13.56H76.7411V12.6H83.6411V13.56H80.7011V21H79.6811V13.56ZM88.9731 21H87.9531V12.6H88.9731V21ZM93.5327 13.56H90.5927V12.6H97.4927V13.56H94.5527V21H93.5327V13.56ZM100.905 16.8C100.905 15.584 101.309 14.56 102.117 13.728C102.925 12.896 103.949 12.48 105.189 12.48C106.421 12.48 107.441 12.884 108.249 13.692C109.065 14.5 109.473 15.536 109.473 16.8C109.473 18.032 109.065 19.064 108.249 19.896C107.433 20.712 106.413 21.12 105.189 21.12C103.965 21.12 102.941 20.716 102.117 19.908C101.309 19.1 100.905 18.064 100.905 16.8ZM101.985 16.8C101.985 17.744 102.293 18.544 102.909 19.2C103.525 19.84 104.285 20.16 105.189 20.16C106.133 20.16 106.901 19.84 107.493 19.2C108.093 18.56 108.393 17.76 108.393 16.8C108.393 15.84 108.085 15.04 107.469 14.4C106.853 13.76 106.093 13.44 105.189 13.44C104.269 13.44 103.505 13.756 102.897 14.388C102.289 15.02 101.985 15.824 101.985 16.8ZM118.358 12.6V21H117.542L112.298 14.4V21H111.338V12.6H112.154L117.398 19.224V12.6H118.358Z" fill="white"/>
</svg>
