<svg width="22" height="22" viewBox="0 0 22 22" fill="none" xmlns="http://www.w3.org/2000/svg">
<rect width="22" height="22" rx="11" fill="white"/>
<g clip-path="url(#clip0)">
<path d="M11.3886 15.8402L15 12.2288C15.1031 12.1257 15.1597 11.9883 15.1597 11.8418C15.1597 11.6952 15.103 11.5578 15 11.4548L14.672 11.1269C14.5691 11.0239 14.4316 10.9671 14.285 10.9671C14.1385 10.9671 13.9964 11.0239 13.8935 11.1269L11.7821 13.2337L11.7821 6.54024C11.7821 6.23845 11.5458 6 11.2439 6L10.7803 6C10.4784 6 10.2183 6.23845 10.2183 6.54024L10.2183 13.2576L8.09509 11.1269C7.992 11.0239 7.85826 10.9672 7.71168 10.9672C7.56526 10.9672 7.42957 11.0239 7.32656 11.1269L6.99965 11.4548C6.89656 11.5579 6.84039 11.6952 6.84039 11.8419C6.84039 11.9884 6.89729 12.1258 7.00038 12.2289L10.6117 15.8402C10.7152 15.9436 10.8532 16.0004 10.9999 16C11.1472 16.0003 11.2853 15.9436 11.3886 15.8402Z" fill="#FF1469"/>
</g>
<defs>
<clipPath id="clip0">
<rect width="10" height="10" fill="white" transform="translate(16 6) rotate(90)"/>
</clipPath>
</defs>
</svg>
