<svg width="125" height="28" viewBox="0 0 125 28" fill="none" xmlns="http://www.w3.org/2000/svg">
<path d="M12.86 5.95C13.38 5.95 13.81 6.13 14.15 6.49C14.49 6.83 14.66 7.26 14.66 7.78V15.4C14.66 17.56 14.06 19.25 12.86 20.47C11.68 21.69 9.99 22.3 7.79 22.3C5.59 22.3 3.9 21.69 2.72 20.47C1.54 19.25 0.95 17.56 0.95 15.4V7.78C0.95 7.26 1.12 6.83 1.46 6.49C1.8 6.13 2.23 5.95 2.75 5.95C3.27 5.95 3.7 6.13 4.04 6.49C4.38 6.83 4.55 7.26 4.55 7.78V15.4C4.55 16.62 4.82 17.53 5.36 18.13C5.9 18.71 6.71 19 7.79 19C8.89 19 9.71 18.71 10.25 18.13C10.79 17.53 11.06 16.62 11.06 15.4V7.78C11.06 7.26 11.23 6.83 11.57 6.49C11.91 6.13 12.34 5.95 12.86 5.95ZM27.1374 5.65C29.1774 5.65 30.5874 6.26 31.3674 7.48C32.1474 8.68 32.5374 10.35 32.5374 12.49V20.17C32.5374 20.69 32.3674 21.13 32.0274 21.49C31.6874 21.83 31.2574 22 30.7374 22C30.2174 22 29.7874 21.83 29.4474 21.49C29.1074 21.13 28.9374 20.69 28.9374 20.17V12.49C28.9374 11.39 28.7074 10.53 28.2474 9.91C27.7874 9.27 26.9974 8.95 25.8774 8.95C24.7174 8.95 23.8074 9.29 23.1474 9.97C22.4874 10.63 22.1574 11.47 22.1574 12.49V20.17C22.1574 20.69 21.9874 21.13 21.6474 21.49C21.3074 21.83 20.8774 22 20.3574 22C19.8374 22 19.4074 21.83 19.0674 21.49C18.7274 21.13 18.5574 20.69 18.5574 20.17V7.78C18.5574 7.26 18.7274 6.83 19.0674 6.49C19.4074 6.13 19.8374 5.95 20.3574 5.95C20.8774 5.95 21.3074 6.13 21.6474 6.49C21.9874 6.83 22.1574 7.26 22.1574 7.78V8.29C22.6974 7.57 23.3974 6.95 24.2574 6.43C25.1374 5.91 26.0974 5.65 27.1374 5.65ZM39.8185 20.17C39.8185 20.69 39.6485 21.13 39.3085 21.49C38.9685 21.83 38.5385 22 38.0185 22C37.4985 22 37.0685 21.83 36.7285 21.49C36.3885 21.13 36.2185 20.69 36.2185 20.17V7.78C36.2185 7.26 36.3885 6.83 36.7285 6.49C37.0685 6.13 37.4985 5.95 38.0185 5.95C38.5385 5.95 38.9685 6.13 39.3085 6.49C39.6485 6.83 39.8185 7.26 39.8185 7.78V20.17ZM37.9885 4C37.3085 4 36.8285 3.89 36.5485 3.67C36.2685 3.45 36.1285 3.06 36.1285 2.5V1.93C36.1285 1.37 36.2785 0.979999 36.5785 0.76C36.8785 0.539999 37.3585 0.429999 38.0185 0.429999C38.7185 0.429999 39.2085 0.539999 39.4885 0.76C39.7685 0.979999 39.9085 1.37 39.9085 1.93V2.5C39.9085 3.08 39.7585 3.48 39.4585 3.7C39.1785 3.9 38.6885 4 37.9885 4ZM51.2584 18.61C51.5384 18.61 51.7884 18.75 52.0084 19.03C52.2484 19.29 52.3684 19.64 52.3684 20.08C52.3684 20.62 52.0684 21.08 51.4684 21.46C50.8884 21.82 50.2284 22 49.4884 22C48.2484 22 47.1984 21.74 46.3384 21.22C45.4984 20.68 45.0784 19.55 45.0784 17.83V9.55H43.6984C43.2184 9.55 42.8184 9.39 42.4984 9.07C42.1784 8.75 42.0184 8.35 42.0184 7.87C42.0184 7.41 42.1784 7.03 42.4984 6.73C42.8184 6.41 43.2184 6.25 43.6984 6.25H45.0784V4.33C45.0784 3.81 45.2484 3.38 45.5884 3.04C45.9484 2.68 46.3884 2.5 46.9084 2.5C47.4084 2.5 47.8284 2.68 48.1684 3.04C48.5084 3.38 48.6784 3.81 48.6784 4.33V6.25H50.8084C51.2884 6.25 51.6884 6.41 52.0084 6.73C52.3284 7.05 52.4884 7.45 52.4884 7.93C52.4884 8.39 52.3284 8.78 52.0084 9.1C51.6884 9.4 51.2884 9.55 50.8084 9.55H48.6784V17.68C48.6784 18.1 48.7884 18.41 49.0084 18.61C49.2284 18.79 49.5284 18.88 49.9084 18.88C50.0684 18.88 50.2884 18.84 50.5684 18.76C50.8084 18.66 51.0384 18.61 51.2584 18.61ZM67.7038 5.95C68.2238 5.95 68.6538 6.13 68.9937 6.49C69.3338 6.83 69.5038 7.26 69.5038 7.78V20.53C69.5038 23.13 68.8038 25.02 67.4038 26.2C66.0038 27.4 64.1338 28 61.7938 28C61.1138 28 60.4138 27.94 59.6938 27.82C58.9938 27.72 58.4238 27.58 57.9838 27.4C57.0038 26.98 56.5138 26.4 56.5138 25.66C56.5138 25.52 56.5438 25.36 56.6038 25.18C56.7238 24.74 56.9238 24.4 57.2038 24.16C57.5038 23.94 57.8238 23.83 58.1638 23.83C58.3638 23.83 58.5538 23.86 58.7338 23.92C58.8738 23.98 59.1138 24.08 59.4538 24.22C59.8138 24.36 60.1838 24.47 60.5638 24.55C60.9638 24.65 61.3738 24.7 61.7938 24.7C63.2138 24.7 64.2538 24.39 64.9138 23.77C65.5938 23.17 65.9338 22.13 65.9338 20.65V20.35C64.8938 21.65 63.2738 22.3 61.0738 22.3C60.0338 22.3 59.1138 22.06 58.3138 21.58C57.5138 21.08 56.8938 20.4 56.4538 19.54C56.0138 18.66 55.7938 17.66 55.7938 16.54V7.78C55.7938 7.26 55.9638 6.83 56.3038 6.49C56.6438 6.13 57.0738 5.95 57.5938 5.95C58.1138 5.95 58.5438 6.13 58.8838 6.49C59.2238 6.83 59.3938 7.26 59.3938 7.78V15.46C59.3938 16.72 59.6638 17.63 60.2038 18.19C60.7638 18.73 61.5738 19 62.6338 19C63.6738 19 64.4738 18.7 65.0338 18.1C65.6138 17.48 65.9038 16.6 65.9038 15.46V7.78C65.9038 7.26 66.0738 6.83 66.4138 6.49C66.7538 6.13 67.1838 5.95 67.7038 5.95Z" fill="white"/>
<path d="M86.2712 6.67C86.5312 6.67 86.7412 6.76 86.9012 6.94C87.0812 7.12 87.1712 7.34 87.1712 7.6V21.1C87.1712 21.36 87.0812 21.58 86.9012 21.76C86.7412 21.92 86.5312 22 86.2712 22C86.0112 22 85.7912 21.92 85.6112 21.76C85.4512 21.58 85.3712 21.36 85.3712 21.1V19.09C84.8712 19.99 84.1212 20.75 83.1212 21.37C82.1212 21.99 81.0312 22.3 79.8512 22.3C78.5112 22.3 77.3012 21.95 76.2212 21.25C75.1612 20.55 74.3212 19.59 73.7012 18.37C73.1012 17.15 72.8012 15.78 72.8012 14.26C72.8012 12.74 73.1112 11.38 73.7312 10.18C74.3512 8.96 75.1912 8.01 76.2512 7.33C77.3312 6.65 78.5212 6.31 79.8212 6.31C81.0212 6.31 82.1212 6.6 83.1212 7.18C84.1212 7.76 84.8712 8.52 85.3712 9.46V7.6C85.3712 7.34 85.4512 7.12 85.6112 6.94C85.7912 6.76 86.0112 6.67 86.2712 6.67ZM80.0312 20.62C81.0712 20.62 82.0012 20.35 82.8212 19.81C83.6612 19.25 84.3112 18.49 84.7712 17.53C85.2512 16.55 85.4912 15.46 85.4912 14.26C85.4912 13.1 85.2512 12.04 84.7712 11.08C84.3112 10.12 83.6612 9.37 82.8212 8.83C82.0012 8.27 81.0712 7.99 80.0312 7.99C78.9912 7.99 78.0512 8.26 77.2112 8.8C76.3912 9.34 75.7412 10.09 75.2612 11.05C74.8012 11.99 74.5712 13.06 74.5712 14.26C74.5712 15.46 74.8012 16.55 75.2612 17.53C75.7212 18.49 76.3612 19.25 77.1812 19.81C78.0212 20.35 78.9712 20.62 80.0312 20.62ZM99.158 6.55C100.478 6.55 101.678 6.89 102.758 7.57C103.838 8.23 104.678 9.16 105.278 10.36C105.898 11.54 106.208 12.87 106.208 14.35C106.208 15.85 105.898 17.2 105.278 18.4C104.678 19.58 103.838 20.51 102.758 21.19C101.698 21.87 100.508 22.21 99.188 22.21C98.028 22.21 96.958 21.94 95.978 21.4C95.018 20.84 94.248 20.1 93.668 19.18V27.1C93.668 27.36 93.578 27.57 93.398 27.73C93.238 27.91 93.028 28 92.768 28C92.508 28 92.288 27.91 92.108 27.73C91.948 27.57 91.868 27.36 91.868 27.1V7.54C91.868 7.28 91.948 7.06 92.108 6.88C92.288 6.7 92.508 6.61 92.768 6.61C93.028 6.61 93.238 6.7 93.398 6.88C93.578 7.06 93.668 7.28 93.668 7.54V9.58C94.188 8.64 94.938 7.9 95.918 7.36C96.898 6.82 97.978 6.55 99.158 6.55ZM99.008 20.53C100.048 20.53 100.978 20.27 101.798 19.75C102.638 19.21 103.288 18.47 103.748 17.53C104.228 16.59 104.468 15.53 104.468 14.35C104.468 13.19 104.228 12.15 103.748 11.23C103.288 10.29 102.638 9.56 101.798 9.04C100.978 8.5 100.048 8.23 99.008 8.23C97.948 8.23 96.998 8.49 96.158 9.01C95.318 9.53 94.668 10.26 94.208 11.2C93.748 12.12 93.518 13.17 93.518 14.35C93.518 15.53 93.748 16.59 94.208 17.53C94.668 18.47 95.318 19.21 96.158 19.75C96.998 20.27 97.948 20.53 99.008 20.53ZM117.205 6.55C118.525 6.55 119.725 6.89 120.805 7.57C121.885 8.23 122.725 9.16 123.325 10.36C123.945 11.54 124.255 12.87 124.255 14.35C124.255 15.85 123.945 17.2 123.325 18.4C122.725 19.58 121.885 20.51 120.805 21.19C119.745 21.87 118.555 22.21 117.235 22.21C116.075 22.21 115.005 21.94 114.025 21.4C113.065 20.84 112.295 20.1 111.715 19.18V27.1C111.715 27.36 111.625 27.57 111.445 27.73C111.285 27.91 111.075 28 110.815 28C110.555 28 110.335 27.91 110.155 27.73C109.995 27.57 109.915 27.36 109.915 27.1V7.54C109.915 7.28 109.995 7.06 110.155 6.88C110.335 6.7 110.555 6.61 110.815 6.61C111.075 6.61 111.285 6.7 111.445 6.88C111.625 7.06 111.715 7.28 111.715 7.54V9.58C112.235 8.64 112.985 7.9 113.965 7.36C114.945 6.82 116.025 6.55 117.205 6.55ZM117.055 20.53C118.095 20.53 119.025 20.27 119.845 19.75C120.685 19.21 121.335 18.47 121.795 17.53C122.275 16.59 122.515 15.53 122.515 14.35C122.515 13.19 122.275 12.15 121.795 11.23C121.335 10.29 120.685 9.56 119.845 9.04C119.025 8.5 118.095 8.23 117.055 8.23C115.995 8.23 115.045 8.49 114.205 9.01C113.365 9.53 112.715 10.26 112.255 11.2C111.795 12.12 111.565 13.17 111.565 14.35C111.565 15.53 111.795 16.59 112.255 17.53C112.715 18.47 113.365 19.21 114.205 19.75C115.045 20.27 115.995 20.53 117.055 20.53Z" fill="#FF1469"/>
</svg>
