<svg width="167" height="348" viewBox="0 0 167 348" fill="none" xmlns="http://www.w3.org/2000/svg">
<path d="M145.48 347.12H21.3401C9.74012 347.12 0.330078 337.71 0.330078 326.11V21.01C0.330078 9.41 9.74012 0 21.3401 0H145.48C157.08 0 166.49 9.41 166.49 21.01V326.11C166.5 337.71 157.09 347.12 145.48 347.12Z" fill="url(#paint0_linear)"/>
<path d="M9.28009 311.87H157.54C162.48 311.87 166.49 315.88 166.49 320.82V326.22C166.49 337.76 157.13 347.12 145.59 347.12H21.2301C9.69007 347.12 0.330078 337.76 0.330078 326.22V320.81C0.330078 315.88 4.34009 311.87 9.28009 311.87Z" fill="#F7F7F7"/>
<path d="M99.5881 337.43C99.4677 337.603 99.2992 337.732 99.0828 337.819C98.8679 337.903 98.6173 337.946 98.3308 337.946C98.0411 337.946 97.7839 337.878 97.5593 337.743C97.3347 337.606 97.1606 337.413 97.0369 337.162C96.9148 336.911 96.8521 336.621 96.8489 336.29V335.98C96.8489 335.445 96.9734 335.03 97.2224 334.735C97.4731 334.441 97.8246 334.293 98.2771 334.293C98.6482 334.293 98.9469 334.388 99.1731 334.579C99.3993 334.768 99.5377 335.036 99.5881 335.385H99.1194C99.0315 334.914 98.7515 334.679 98.2795 334.679C97.9654 334.679 97.727 334.79 97.5642 335.011C97.4031 335.231 97.3217 335.55 97.3201 335.968V336.259C97.3201 336.657 97.4112 336.975 97.5935 337.211C97.7758 337.445 98.0224 337.562 98.3333 337.562C98.509 337.562 98.6628 337.543 98.7947 337.504C98.9265 337.465 99.0356 337.399 99.1218 337.306V336.508H98.2991V336.127H99.5881V337.43ZM100.181 336.552C100.181 336.293 100.232 336.06 100.333 335.853C100.435 335.647 100.577 335.487 100.758 335.375C100.94 335.262 101.147 335.206 101.38 335.206C101.74 335.206 102.03 335.331 102.252 335.58C102.475 335.829 102.586 336.16 102.586 336.573V336.605C102.586 336.862 102.537 337.094 102.437 337.299C102.34 337.502 102.199 337.661 102.015 337.775C101.833 337.889 101.623 337.946 101.385 337.946C101.027 337.946 100.736 337.821 100.513 337.572C100.292 337.323 100.181 336.993 100.181 336.583V336.552ZM100.635 336.605C100.635 336.898 100.703 337.133 100.838 337.311C100.975 337.488 101.157 337.577 101.385 337.577C101.615 337.577 101.797 337.487 101.932 337.308C102.067 337.128 102.135 336.875 102.135 336.552C102.135 336.262 102.065 336.027 101.927 335.848C101.79 335.668 101.608 335.577 101.38 335.577C101.157 335.577 100.977 335.666 100.841 335.844C100.704 336.021 100.635 336.275 100.635 336.605ZM104.783 337.897C104.757 337.845 104.736 337.752 104.72 337.618C104.51 337.837 104.259 337.946 103.968 337.946C103.708 337.946 103.494 337.872 103.326 337.726C103.16 337.578 103.077 337.391 103.077 337.164C103.077 336.889 103.181 336.676 103.389 336.525C103.599 336.372 103.894 336.295 104.273 336.295H104.713V336.088C104.713 335.93 104.665 335.804 104.571 335.712C104.477 335.617 104.337 335.57 104.154 335.57C103.992 335.57 103.857 335.611 103.748 335.692C103.639 335.774 103.585 335.872 103.585 335.988H103.131C103.131 335.856 103.177 335.729 103.27 335.607C103.364 335.483 103.491 335.385 103.651 335.314C103.812 335.242 103.988 335.206 104.18 335.206C104.485 335.206 104.723 335.283 104.896 335.436C105.068 335.587 105.158 335.796 105.164 336.063V337.279C105.164 337.522 105.195 337.714 105.257 337.858V337.897H104.783ZM104.034 337.552C104.176 337.552 104.31 337.516 104.437 337.443C104.564 337.369 104.656 337.274 104.713 337.157V336.615H104.359C103.805 336.615 103.529 336.777 103.529 337.101C103.529 337.242 103.576 337.353 103.67 337.433C103.765 337.513 103.886 337.552 104.034 337.552ZM106.363 337.897H105.911V334.147H106.363V337.897ZM108.626 337.196C108.626 337.074 108.58 336.98 108.487 336.913C108.396 336.844 108.236 336.786 108.006 336.737C107.778 336.688 107.597 336.63 107.462 336.561C107.328 336.493 107.229 336.412 107.164 336.317C107.1 336.223 107.069 336.11 107.069 335.98C107.069 335.764 107.16 335.581 107.342 335.431C107.526 335.281 107.76 335.206 108.045 335.206C108.345 335.206 108.587 335.284 108.773 335.438C108.96 335.593 109.053 335.791 109.053 336.031H108.599C108.599 335.908 108.546 335.801 108.441 335.712C108.337 335.622 108.205 335.577 108.045 335.577C107.881 335.577 107.752 335.613 107.659 335.685C107.567 335.756 107.52 335.85 107.52 335.966C107.52 336.075 107.563 336.157 107.65 336.212C107.736 336.267 107.891 336.32 108.116 336.371C108.342 336.421 108.525 336.482 108.665 336.552C108.805 336.622 108.909 336.706 108.975 336.805C109.044 336.903 109.078 337.023 109.078 337.164C109.078 337.4 108.983 337.59 108.795 337.733C108.606 337.875 108.361 337.946 108.06 337.946C107.848 337.946 107.661 337.908 107.498 337.833C107.336 337.758 107.208 337.654 107.115 337.521C107.024 337.386 106.978 337.24 106.978 337.084H107.43C107.438 337.235 107.498 337.356 107.611 337.445C107.725 337.533 107.874 337.577 108.06 337.577C108.231 337.577 108.367 337.543 108.47 337.474C108.574 337.404 108.626 337.312 108.626 337.196Z" fill="#E79995"/>
<path d="M102.43 319.75L103.99 322.9L107.47 323.41L104.95 325.87L105.55 329.34L102.43 327.7L99.3101 329.34L99.9101 325.87L97.3901 323.41L100.87 322.9L102.43 319.75Z" fill="#E79995"/>
<path d="M30.4001 324.75L25.7401 319.9L20.9301 324.75C20.7701 324.91 20.8801 325.17 21.1101 325.18H21.6901V329.54H24.4701V325.78H26.9201V329.54H29.7001V325.18H30.2201C30.4401 325.18 30.5501 324.91 30.4001 324.75Z" fill="#3D4962"/>
<path d="M22.3894 337.897H21.9182V336.254H20.1262V337.897H19.6575V334.342H20.1262V335.87H21.9182V334.342H22.3894V337.897ZM23.0315 336.552C23.0315 336.293 23.0819 336.06 23.1829 335.853C23.2854 335.647 23.427 335.487 23.6077 335.375C23.79 335.262 23.9975 335.206 24.2302 335.206C24.5899 335.206 24.8805 335.331 25.1018 335.58C25.3248 335.829 25.4363 336.16 25.4363 336.573V336.605C25.4363 336.862 25.3866 337.094 25.2874 337.299C25.1897 337.502 25.0489 337.661 24.865 337.775C24.6827 337.889 24.4727 337.946 24.2351 337.946C23.877 337.946 23.5865 337.821 23.3635 337.572C23.1422 337.323 23.0315 336.993 23.0315 336.583V336.552ZM23.4856 336.605C23.4856 336.898 23.5531 337.133 23.6882 337.311C23.825 337.488 24.0072 337.577 24.2351 337.577C24.4646 337.577 24.6469 337.487 24.782 337.308C24.9171 337.128 24.9846 336.875 24.9846 336.552C24.9846 336.262 24.9154 336.027 24.7771 335.848C24.6404 335.668 24.4581 335.577 24.2302 335.577C24.0072 335.577 23.8274 335.666 23.6907 335.844C23.554 336.021 23.4856 336.275 23.4856 336.605ZM26.4275 335.255L26.4397 335.548C26.6334 335.32 26.8946 335.206 27.2234 335.206C27.5929 335.206 27.8443 335.348 27.9778 335.631C28.0657 335.504 28.1796 335.402 28.3196 335.323C28.4612 335.245 28.628 335.206 28.8201 335.206C29.3995 335.206 29.6941 335.513 29.7039 336.127V337.897H29.2522V336.154C29.2522 335.965 29.2091 335.824 29.1228 335.731C29.0365 335.637 28.8917 335.59 28.6882 335.59C28.5206 335.59 28.3814 335.64 28.2708 335.741C28.1601 335.84 28.0958 335.975 28.0779 336.144V337.897H27.6238V336.166C27.6238 335.782 27.4358 335.59 27.0598 335.59C26.7636 335.59 26.561 335.716 26.4519 335.968V337.897H26.0002V335.255H26.4275ZM31.4836 337.946C31.1256 337.946 30.8342 337.828 30.6096 337.594C30.385 337.358 30.2727 337.043 30.2727 336.649V336.566C30.2727 336.304 30.3223 336.071 30.4216 335.865C30.5225 335.659 30.6625 335.498 30.8416 335.382C31.0222 335.265 31.2175 335.206 31.4275 335.206C31.7709 335.206 32.0378 335.319 32.2283 335.546C32.4187 335.772 32.5139 336.096 32.5139 336.517V336.705H30.7244C30.7309 336.966 30.8066 337.177 30.9514 337.338C31.0979 337.497 31.2834 337.577 31.5081 337.577C31.6676 337.577 31.8027 337.544 31.9133 337.479C32.024 337.414 32.1208 337.328 32.2039 337.22L32.4797 337.435C32.2584 337.775 31.9264 337.946 31.4836 337.946ZM31.4275 335.577C31.2452 335.577 31.0922 335.644 30.9685 335.778C30.8448 335.909 30.7683 336.095 30.739 336.334H32.0623V336.3C32.0492 336.071 31.9874 335.893 31.8767 335.768C31.766 335.641 31.6163 335.577 31.4275 335.577Z" fill="#3D4962"/>
<path d="M134.706 336.505V337.897H134.238V334.342H135.549C135.938 334.342 136.242 334.441 136.462 334.64C136.683 334.838 136.794 335.101 136.794 335.428C136.794 335.774 136.685 336.04 136.469 336.227C136.254 336.412 135.946 336.505 135.544 336.505H134.706ZM134.706 336.122H135.549C135.799 336.122 135.991 336.063 136.125 335.946C136.258 335.827 136.325 335.656 136.325 335.433C136.325 335.222 136.258 335.052 136.125 334.926C135.991 334.799 135.808 334.733 135.575 334.728H134.706V336.122ZM138.598 335.66C138.53 335.649 138.455 335.643 138.376 335.643C138.08 335.643 137.878 335.769 137.773 336.022V337.897H137.321V335.255H137.76L137.768 335.56C137.916 335.324 138.126 335.206 138.398 335.206C138.486 335.206 138.552 335.218 138.598 335.24V335.66ZM138.847 336.552C138.847 336.293 138.897 336.06 138.998 335.853C139.101 335.647 139.242 335.487 139.423 335.375C139.605 335.262 139.813 335.206 140.046 335.206C140.405 335.206 140.696 335.331 140.917 335.58C141.14 335.829 141.252 336.16 141.252 336.573V336.605C141.252 336.862 141.202 337.094 141.103 337.299C141.005 337.502 140.864 337.661 140.68 337.775C140.498 337.889 140.288 337.946 140.051 337.946C139.692 337.946 139.402 337.821 139.179 337.572C138.958 337.323 138.847 336.993 138.847 336.583V336.552ZM139.301 336.605C139.301 336.898 139.369 337.133 139.504 337.311C139.64 337.488 139.823 337.577 140.051 337.577C140.28 337.577 140.462 337.487 140.597 337.308C140.733 337.128 140.8 336.875 140.8 336.552C140.8 336.262 140.731 336.027 140.593 335.848C140.456 335.668 140.274 335.577 140.046 335.577C139.823 335.577 139.643 335.666 139.506 335.844C139.369 336.021 139.301 336.275 139.301 336.605ZM141.969 337.897V335.604H141.552V335.255H141.969V335.031C141.969 334.736 142.053 334.506 142.221 334.342C142.39 334.178 142.629 334.095 142.936 334.095C143.119 334.095 143.349 334.145 143.627 334.244L143.552 334.625C143.348 334.544 143.154 334.503 142.97 334.503C142.777 334.503 142.637 334.547 142.551 334.635C142.466 334.721 142.424 334.851 142.424 335.026V335.255H142.963V335.604H142.424V337.897H141.969ZM143.852 337.897H143.398V335.255H143.852V337.897ZM145.077 337.897H144.626V334.147H145.077V337.897ZM146.899 337.946C146.541 337.946 146.249 337.828 146.025 337.594C145.8 337.358 145.688 337.043 145.688 336.649V336.566C145.688 336.304 145.737 336.071 145.837 335.865C145.938 335.659 146.078 335.498 146.257 335.382C146.437 335.265 146.633 335.206 146.843 335.206C147.186 335.206 147.453 335.319 147.643 335.546C147.834 335.772 147.929 336.096 147.929 336.517V336.705H146.139C146.146 336.966 146.222 337.177 146.366 337.338C146.513 337.497 146.698 337.577 146.923 337.577C147.083 337.577 147.218 337.544 147.328 337.479C147.439 337.414 147.536 337.328 147.619 337.22L147.895 337.435C147.673 337.775 147.341 337.946 146.899 337.946ZM146.843 335.577C146.66 335.577 146.507 335.644 146.384 335.778C146.26 335.909 146.183 336.095 146.154 336.334H147.477V336.3C147.464 336.071 147.402 335.893 147.292 335.768C147.181 335.641 147.031 335.577 146.843 335.577Z" fill="#3D4962"/>
<path fill-rule="evenodd" clip-rule="evenodd" d="M145.57 328.57C145.22 326.54 144.05 325.09 142.19 324.37C141.73 324.66 141.18 324.84 140.6 324.84C140.01 324.84 139.47 324.67 139.01 324.37C137.15 325.08 135.98 326.54 135.63 328.57C135.63 328.57 137.33 330.67 140.6 330.67C143.87 330.67 145.57 328.57 145.57 328.57Z" fill="#3D4962"/>
<path fill-rule="evenodd" clip-rule="evenodd" d="M142.63 321.77C142.63 320.65 141.72 319.74 140.6 319.74C139.48 319.74 138.57 320.65 138.57 321.77C138.57 322.89 139.48 323.8 140.6 323.8C141.72 323.8 142.63 322.9 142.63 321.77Z" fill="#3D4962"/>
<path d="M58.0203 336.254H56.4797V337.513H58.2693V337.897H56.011V334.342H58.2449V334.728H56.4797V335.87H58.0203V336.254ZM59.6682 336.219L60.2542 335.255H60.7815L59.9172 336.561L60.8083 337.897H60.2859L59.6755 336.908L59.0652 337.897H58.5403L59.4314 336.561L58.5671 335.255H59.0896L59.6682 336.219ZM63.4939 336.605C63.4939 337.007 63.4019 337.331 63.218 337.577C63.0341 337.823 62.7851 337.946 62.4709 337.946C62.1503 337.946 61.898 337.844 61.7141 337.64V338.912H61.2625V335.255H61.675L61.697 335.548C61.8809 335.32 62.1365 335.206 62.4636 335.206C62.781 335.206 63.0317 335.326 63.2156 335.565C63.4011 335.804 63.4939 336.137 63.4939 336.564V336.605ZM63.0422 336.554C63.0422 336.256 62.9788 336.021 62.8518 335.848C62.7249 335.676 62.5507 335.59 62.3293 335.59C62.0559 335.59 61.8508 335.711 61.7141 335.953V337.216C61.8492 337.456 62.0559 337.577 62.3342 337.577C62.5507 337.577 62.7224 337.491 62.8494 337.321C62.9779 337.148 63.0422 336.892 63.0422 336.554ZM64.5608 337.897H64.1091V334.147H64.5608V337.897ZM65.1663 336.552C65.1663 336.293 65.2167 336.06 65.3176 335.853C65.4202 335.647 65.5618 335.487 65.7424 335.375C65.9247 335.262 66.1322 335.206 66.365 335.206C66.7247 335.206 67.0152 335.331 67.2366 335.58C67.4596 335.829 67.571 336.16 67.571 336.573V336.605C67.571 336.862 67.5214 337.094 67.4221 337.299C67.3245 337.502 67.1837 337.661 66.9998 337.775C66.8175 337.889 66.6075 337.946 66.3699 337.946C66.0118 337.946 65.7213 337.821 65.4983 337.572C65.2769 337.323 65.1663 336.993 65.1663 336.583V336.552ZM65.6204 336.605C65.6204 336.898 65.6879 337.133 65.823 337.311C65.9597 337.488 66.142 337.577 66.3699 337.577C66.5994 337.577 66.7817 337.487 66.9167 337.308C67.0518 337.128 67.1194 336.875 67.1194 336.552C67.1194 336.262 67.0502 336.027 66.9119 335.848C66.7751 335.668 66.5929 335.577 66.365 335.577C66.142 335.577 65.9622 335.666 65.8254 335.844C65.6887 336.021 65.6204 336.275 65.6204 336.605ZM69.4143 335.66C69.3459 335.649 69.2719 335.643 69.1921 335.643C68.8959 335.643 68.6949 335.769 68.5891 336.022V337.897H68.1375V335.255H68.5769L68.5842 335.56C68.7323 335.324 68.9423 335.206 69.2141 335.206C69.302 335.206 69.3687 335.218 69.4143 335.24V335.66ZM70.8792 337.946C70.5211 337.946 70.2297 337.828 70.0051 337.594C69.7805 337.358 69.6682 337.043 69.6682 336.649V336.566C69.6682 336.304 69.7179 336.071 69.8171 335.865C69.9181 335.659 70.058 335.498 70.2371 335.382C70.4177 335.265 70.613 335.206 70.823 335.206C71.1664 335.206 71.4333 335.319 71.6238 335.546C71.8142 335.772 71.9094 336.096 71.9094 336.517V336.705H70.1199C70.1264 336.966 70.2021 337.177 70.3469 337.338C70.4934 337.497 70.679 337.577 70.9036 337.577C71.0631 337.577 71.1982 337.544 71.3088 337.479C71.4195 337.414 71.5164 337.328 71.5994 337.22L71.8752 337.435C71.6539 337.775 71.3219 337.946 70.8792 337.946ZM70.823 335.577C70.6407 335.577 70.4877 335.644 70.364 335.778C70.2403 335.909 70.1638 336.095 70.1345 336.334H71.4578V336.3C71.4447 336.071 71.3829 335.893 71.2722 335.768C71.1615 335.641 71.0118 335.577 70.823 335.577Z" fill="#3D4962"/>
<path d="M68.8201 325.14C68.8201 322.25 66.4801 319.91 63.5901 319.91C60.7001 319.91 58.3601 322.25 58.3601 325.14C58.3601 328.03 60.7001 330.37 63.5901 330.37C66.4801 330.36 68.8201 328.02 68.8201 325.14Z" fill="#3D4962"/>
<path d="M65.2 325.14C65.2 324.25 64.48 323.53 63.59 323.53C62.7 323.53 61.98 324.25 61.98 325.14C61.98 326.03 62.7 326.75 63.59 326.75C64.48 326.74 65.2 326.02 65.2 325.14Z" stroke="white" stroke-width="0.3" stroke-miterlimit="10" stroke-linecap="round" stroke-linejoin="round"/>
<path d="M67.0102 325.14C67.0102 323.25 65.4802 321.72 63.5902 321.72C61.7002 321.72 60.1702 323.25 60.1702 325.14C60.1702 327.03 61.7002 328.56 63.5902 328.56C65.4802 328.55 67.0102 327.02 67.0102 325.14Z" stroke="white" stroke-width="0.3" stroke-miterlimit="10" stroke-linecap="round" stroke-linejoin="round"/>
<path d="M15.8312 11.9555C15.7345 12.0706 15.6185 12.1631 15.4835 12.2332C15.35 12.3032 15.2033 12.3383 15.0432 12.3383C14.8331 12.3383 14.6496 12.2866 14.4928 12.1832C14.3377 12.0798 14.2177 11.9347 14.1326 11.7479C14.0476 11.5594 14.005 11.3518 14.005 11.125C14.005 10.8815 14.0509 10.6622 14.1426 10.4671C14.236 10.272 14.3678 10.1227 14.5379 10.0193C14.708 9.91591 14.9064 9.86421 15.1332 9.86421C15.4935 9.86421 15.777 9.9993 15.9838 10.2695C16.1922 10.538 16.2965 10.9049 16.2965 11.3702V11.5052C16.2965 12.214 16.1564 12.7318 15.8762 13.0587C15.596 13.3839 15.1733 13.5507 14.6079 13.559H14.5179V13.1688H14.6154C14.9973 13.1621 15.2908 13.0629 15.496 12.8711C15.7011 12.6776 15.8128 12.3724 15.8312 11.9555ZM15.1182 11.9555C15.2733 11.9555 15.4159 11.908 15.546 11.8129C15.6778 11.7179 15.7736 11.6003 15.8337 11.4602V11.2751C15.8337 10.9716 15.7678 10.7247 15.6361 10.5346C15.5043 10.3445 15.3375 10.2495 15.1357 10.2495C14.9323 10.2495 14.7688 10.3278 14.6454 10.4846C14.522 10.6397 14.4603 10.8448 14.4603 11.1C14.4603 11.3485 14.5195 11.5536 14.6379 11.7154C14.758 11.8755 14.9181 11.9555 15.1182 11.9555ZM16.9669 13.3139C16.9669 13.2338 16.9902 13.1671 17.0369 13.1137C17.0853 13.0604 17.157 13.0337 17.2521 13.0337C17.3471 13.0337 17.4188 13.0604 17.4672 13.1137C17.5172 13.1671 17.5422 13.2338 17.5422 13.3139C17.5422 13.3906 17.5172 13.4548 17.4672 13.5065C17.4188 13.5582 17.3471 13.584 17.2521 13.584C17.157 13.584 17.0853 13.5582 17.0369 13.5065C16.9902 13.4548 16.9669 13.3906 16.9669 13.3139ZM16.9694 11.105C16.9694 11.0249 16.9927 10.9582 17.0394 10.9049C17.0878 10.8515 17.1595 10.8248 17.2546 10.8248C17.3496 10.8248 17.4213 10.8515 17.4697 10.9049C17.5197 10.9582 17.5447 11.0249 17.5447 11.105C17.5447 11.1817 17.5197 11.2459 17.4697 11.2976C17.4213 11.3493 17.3496 11.3752 17.2546 11.3752C17.1595 11.3752 17.0878 11.3493 17.0394 11.2976C16.9927 11.2459 16.9694 11.1817 16.9694 11.105ZM18.8481 11.5102H19.1958C19.4143 11.5069 19.586 11.4494 19.7111 11.3376C19.8362 11.2259 19.8987 11.075 19.8987 10.8848C19.8987 10.4579 19.6861 10.2444 19.2608 10.2444C19.0607 10.2444 18.9006 10.302 18.7805 10.4171C18.6621 10.5305 18.6029 10.6814 18.6029 10.8698H18.1401C18.1401 10.5813 18.2452 10.342 18.4553 10.1519C18.6671 9.96011 18.9356 9.86421 19.2608 9.86421C19.6044 9.86421 19.8737 9.9551 20.0688 10.1369C20.2639 10.3187 20.3615 10.5713 20.3615 10.8949C20.3615 11.0533 20.3098 11.2067 20.2064 11.3551C20.1047 11.5036 19.9654 11.6145 19.7887 11.6879C19.9888 11.7512 20.143 11.8563 20.2514 12.003C20.3615 12.1498 20.4165 12.3291 20.4165 12.5409C20.4165 12.8678 20.3098 13.1271 20.0963 13.3189C19.8829 13.5107 19.6052 13.6065 19.2633 13.6065C18.9214 13.6065 18.6429 13.514 18.4278 13.3289C18.2143 13.1438 18.1076 12.8994 18.1076 12.5959H18.5729C18.5729 12.7877 18.6354 12.9411 18.7605 13.0562C18.8856 13.1713 19.0532 13.2288 19.2633 13.2288C19.4868 13.2288 19.6577 13.1704 19.7761 13.0537C19.8946 12.937 19.9538 12.7694 19.9538 12.5509C19.9538 12.3391 19.8887 12.1765 19.7586 12.0631C19.6286 11.9497 19.4409 11.8913 19.1958 11.888H18.8481V11.5102ZM23.3359 12.003C23.3359 12.5451 23.2433 12.9478 23.0582 13.2113C22.8731 13.4748 22.5837 13.6065 22.1902 13.6065C21.8016 13.6065 21.5139 13.4781 21.3271 13.2213C21.1403 12.9628 21.0436 12.5776 21.0369 12.0656V11.4477C21.0369 10.9124 21.1295 10.5146 21.3146 10.2545C21.4997 9.99429 21.7899 9.86421 22.1851 9.86421C22.5771 9.86421 22.8656 9.99012 23.0507 10.2419C23.2358 10.4921 23.3309 10.879 23.3359 11.4027V12.003ZM22.8731 11.3702C22.8731 10.9782 22.818 10.6931 22.708 10.5146C22.5979 10.3345 22.4236 10.2444 22.1851 10.2444C21.9483 10.2444 21.7757 10.3337 21.6673 10.5121C21.5589 10.6906 21.5031 10.9649 21.4997 11.3351V12.0756C21.4997 12.4692 21.5564 12.7602 21.6698 12.9486C21.7849 13.1354 21.9583 13.2288 22.1902 13.2288C22.4186 13.2288 22.5879 13.1404 22.698 12.9636C22.8097 12.7869 22.8681 12.5084 22.8731 12.1281V11.3702Z" fill="#F7F7F7"/>
<path d="M128.42 12.1101H127.34V13.8701H128.42V12.1101Z" fill="#F7F7F7"/>
<path d="M129.97 11.4H128.89V13.87H129.97V11.4Z" fill="#F7F7F7"/>
<path d="M131.51 10.7201H130.43V13.8801H131.51V10.7201Z" fill="#F7F7F7"/>
<path d="M133.05 9.93005H131.97V13.8701H133.05V9.93005Z" fill="#F7F7F7"/>
<path d="M136.3 11.2101L136.82 11.7301C137.48 11.1301 138.33 10.8101 139.21 10.8101C140.1 10.8101 140.94 11.1401 141.6 11.7301L142.12 11.2101C141.32 10.4801 140.29 10.0801 139.21 10.0801C138.13 10.0801 137.1 10.4801 136.3 11.2101Z" fill="#F7F7F7"/>
<path d="M137.27 12.1801L137.79 12.7001C138.19 12.3601 138.69 12.1801 139.21 12.1801C139.73 12.1801 140.23 12.3601 140.63 12.7001L141.15 12.1801C140.61 11.7001 139.92 11.4401 139.21 11.4401C138.5 11.4501 137.81 11.7101 137.27 12.1801Z" fill="#F7F7F7"/>
<path d="M138.24 13.1501L138.77 13.6801C138.91 13.5901 139.06 13.5501 139.22 13.5501C139.38 13.5501 139.53 13.6001 139.67 13.6801L140.2 13.1501C139.63 12.7101 138.8 12.7101 138.24 13.1501Z" fill="#F7F7F7"/>
<path d="M152.2 13.4H145.66C145.57 13.4 145.5 13.33 145.5 13.24V10.57C145.5 10.48 145.57 10.41 145.66 10.41H152.2C152.29 10.41 152.36 10.48 152.36 10.57V13.24C152.36 13.33 152.29 13.4 152.2 13.4Z" fill="#F7F7F7"/>
<path d="M152.91 12.55H152.68C152.59 12.55 152.52 12.48 152.52 12.39V11.42C152.52 11.33 152.59 11.26 152.68 11.26H152.91C153 11.26 153.07 11.33 153.07 11.42V12.39C153.07 12.48 153 12.55 152.91 12.55Z" fill="#F7F7F7"/>
<path d="M17.2701 28.88L14.3201 31.55H21.3801" stroke="#F7F7F7" stroke-width="0.75" stroke-miterlimit="10" stroke-linecap="round" stroke-linejoin="round"/>
<path d="M14.3201 31.55L17.2101 34.05" stroke="#F7F7F7" stroke-width="0.75" stroke-miterlimit="10" stroke-linecap="round" stroke-linejoin="round"/>
<path d="M148.5 32.45C149.54 32.45 149.54 30.84 148.5 30.84C147.47 30.84 147.46 32.45 148.5 32.45Z" fill="#F7F7F7"/>
<path d="M145.28 32.45C146.32 32.45 146.32 30.84 145.28 30.84C144.24 30.84 144.24 32.45 145.28 32.45Z" fill="#F7F7F7"/>
<path d="M151.72 32.45C152.76 32.45 152.76 30.84 151.72 30.84C150.69 30.84 150.69 32.45 151.72 32.45Z" fill="#F7F7F7"/>
<path d="M69.3511 31.5598V33.7864H68.6011V28.0989H70.6987C71.3211 28.0989 71.8081 28.2577 72.1597 28.5754C72.5138 28.8931 72.6909 29.3137 72.6909 29.8372C72.6909 30.3892 72.5177 30.815 72.1714 31.1145C71.8276 31.4114 71.3341 31.5598 70.6909 31.5598H69.3511ZM69.3511 30.9465H70.6987C71.0998 30.9465 71.4071 30.8528 71.6206 30.6653C71.8341 30.4752 71.9409 30.2017 71.9409 29.845C71.9409 29.5064 71.8341 29.2356 71.6206 29.0325C71.4071 28.8293 71.1141 28.7239 70.7417 28.7161H69.3511V30.9465ZM75.5776 30.2083C75.4683 30.19 75.3498 30.1809 75.2222 30.1809C74.7482 30.1809 74.4266 30.3827 74.2573 30.7864V33.7864H73.5347V29.5598H74.2378L74.2495 30.0481C74.4865 29.6705 74.8224 29.4817 75.2573 29.4817C75.3979 29.4817 75.5047 29.4999 75.5776 29.5364V30.2083ZM75.9761 31.634C75.9761 31.22 76.0568 30.8476 76.2183 30.5168C76.3823 30.1861 76.6089 29.9309 76.8979 29.7512C77.1896 29.5715 77.5216 29.4817 77.894 29.4817C78.4696 29.4817 78.9344 29.6809 79.2886 30.0793C79.6453 30.4778 79.8237 31.0077 79.8237 31.6692V31.72C79.8237 32.1314 79.7443 32.5012 79.5854 32.8293C79.4292 33.1549 79.2039 33.4088 78.9097 33.5911C78.618 33.7734 78.2821 33.8645 77.9019 33.8645C77.3289 33.8645 76.8641 33.6653 76.5073 33.2668C76.1532 32.8684 75.9761 32.3411 75.9761 31.6848V31.634ZM76.7026 31.72C76.7026 32.1887 76.8107 32.565 77.0269 32.8489C77.2456 33.1327 77.5373 33.2747 77.9019 33.2747C78.269 33.2747 78.5607 33.1314 78.7769 32.845C78.993 32.5559 79.1011 32.1523 79.1011 31.634C79.1011 31.1705 78.9904 30.7955 78.769 30.509C78.5503 30.22 78.2586 30.0754 77.894 30.0754C77.5373 30.0754 77.2495 30.2174 77.0308 30.5012C76.812 30.7851 76.7026 31.1913 76.7026 31.72ZM80.5581 31.6379C80.5581 30.9791 80.7104 30.4556 81.0151 30.0676C81.3198 29.677 81.7235 29.4817 82.2261 29.4817C82.7417 29.4817 83.144 29.664 83.4331 30.0286L83.4683 29.5598H84.1284V33.6848C84.1284 34.2317 83.9657 34.6627 83.6401 34.9778C83.3172 35.2929 82.8823 35.4504 82.3354 35.4504C82.0308 35.4504 81.7326 35.3853 81.4409 35.2551C81.1493 35.1249 80.9266 34.9465 80.7729 34.72L81.1479 34.2864C81.4578 34.6692 81.8368 34.8606 82.2847 34.8606C82.6362 34.8606 82.9097 34.7616 83.105 34.5637C83.3029 34.3658 83.4019 34.0872 83.4019 33.7278V33.3645C83.1128 33.6978 82.7183 33.8645 82.2183 33.8645C81.7235 33.8645 81.3224 33.6653 81.0151 33.2668C80.7104 32.8684 80.5581 32.3254 80.5581 31.6379ZM81.2847 31.72C81.2847 32.1965 81.3823 32.5715 81.5776 32.845C81.7729 33.1158 82.0464 33.2512 82.3979 33.2512C82.8537 33.2512 83.1883 33.0442 83.4019 32.6301V30.7004C83.1805 30.2968 82.8485 30.095 82.4058 30.095C82.0542 30.095 81.7795 30.2317 81.5815 30.5051C81.3836 30.7786 81.2847 31.1835 81.2847 31.72ZM87.2651 30.2083C87.1558 30.19 87.0373 30.1809 86.9097 30.1809C86.4357 30.1809 86.1141 30.3827 85.9448 30.7864V33.7864H85.2222V29.5598H85.9253L85.937 30.0481C86.174 29.6705 86.5099 29.4817 86.9448 29.4817C87.0854 29.4817 87.1922 29.4999 87.2651 29.5364V30.2083ZM89.6089 33.8645C89.036 33.8645 88.5698 33.677 88.2104 33.302C87.8511 32.9244 87.6714 32.4205 87.6714 31.7903V31.6575C87.6714 31.2382 87.7508 30.8645 87.9097 30.5364C88.0711 30.2056 88.2951 29.9478 88.5815 29.7629C88.8706 29.5754 89.1831 29.4817 89.519 29.4817C90.0685 29.4817 90.4956 29.6627 90.8003 30.0247C91.105 30.3866 91.2573 30.9049 91.2573 31.5793V31.8801H88.394C88.4045 32.2968 88.5256 32.634 88.7573 32.8918C88.9917 33.1471 89.2886 33.2747 89.6479 33.2747C89.9032 33.2747 90.1193 33.2226 90.2964 33.1184C90.4735 33.0142 90.6284 32.8762 90.7612 32.7043L91.2026 33.0481C90.8485 33.5924 90.3172 33.8645 89.6089 33.8645ZM89.519 30.0754C89.2274 30.0754 88.9826 30.1822 88.7847 30.3958C88.5868 30.6067 88.4644 30.9036 88.4175 31.2864H90.5347V31.2317C90.5138 30.8645 90.4149 30.5806 90.2378 30.3801C90.0607 30.177 89.8211 30.0754 89.519 30.0754ZM94.5581 32.6653C94.5581 32.47 94.4839 32.3189 94.3354 32.2122C94.1896 32.1028 93.9331 32.009 93.5659 31.9309C93.2013 31.8528 92.911 31.759 92.6948 31.6497C92.4813 31.5403 92.3224 31.4101 92.2183 31.259C92.1167 31.108 92.0659 30.9283 92.0659 30.72C92.0659 30.3736 92.2118 30.0806 92.5034 29.8411C92.7977 29.6015 93.1727 29.4817 93.6284 29.4817C94.1076 29.4817 94.4956 29.6054 94.7925 29.8528C95.092 30.1002 95.2417 30.4166 95.2417 30.802H94.5151C94.5151 30.6041 94.4305 30.4335 94.2612 30.2903C94.0946 30.1471 93.8836 30.0754 93.6284 30.0754C93.3654 30.0754 93.1597 30.1327 93.0112 30.2473C92.8628 30.3619 92.7886 30.5116 92.7886 30.6965C92.7886 30.871 92.8576 31.0025 92.9956 31.0911C93.1336 31.1796 93.3823 31.2642 93.7417 31.345C94.1037 31.4257 94.3966 31.5221 94.6206 31.634C94.8446 31.746 95.0099 31.8814 95.1167 32.0403C95.2261 32.1965 95.2808 32.3879 95.2808 32.6145C95.2808 32.9921 95.1297 33.2955 94.8276 33.5247C94.5256 33.7512 94.1336 33.8645 93.6519 33.8645C93.3133 33.8645 93.0138 33.8046 92.7534 33.6848C92.493 33.565 92.2886 33.3984 92.1401 33.1848C91.9943 32.9687 91.9214 32.7356 91.9214 32.4856H92.644C92.6571 32.7278 92.7534 32.9205 92.9331 33.0637C93.1154 33.2043 93.355 33.2747 93.6519 33.2747C93.9253 33.2747 94.144 33.22 94.3081 33.1106C94.4748 32.9986 94.5581 32.8502 94.5581 32.6653ZM98.6831 32.6653C98.6831 32.47 98.6089 32.3189 98.4604 32.2122C98.3146 32.1028 98.0581 32.009 97.6909 31.9309C97.3263 31.8528 97.036 31.759 96.8198 31.6497C96.6063 31.5403 96.4474 31.4101 96.3433 31.259C96.2417 31.108 96.1909 30.9283 96.1909 30.72C96.1909 30.3736 96.3368 30.0806 96.6284 29.8411C96.9227 29.6015 97.2977 29.4817 97.7534 29.4817C98.2326 29.4817 98.6206 29.6054 98.9175 29.8528C99.217 30.1002 99.3667 30.4166 99.3667 30.802H98.6401C98.6401 30.6041 98.5555 30.4335 98.3862 30.2903C98.2196 30.1471 98.0086 30.0754 97.7534 30.0754C97.4904 30.0754 97.2847 30.1327 97.1362 30.2473C96.9878 30.3619 96.9136 30.5116 96.9136 30.6965C96.9136 30.871 96.9826 31.0025 97.1206 31.0911C97.2586 31.1796 97.5073 31.2642 97.8667 31.345C98.2287 31.4257 98.5216 31.5221 98.7456 31.634C98.9696 31.746 99.1349 31.8814 99.2417 32.0403C99.3511 32.1965 99.4058 32.3879 99.4058 32.6145C99.4058 32.9921 99.2547 33.2955 98.9526 33.5247C98.6506 33.7512 98.2586 33.8645 97.7769 33.8645C97.4383 33.8645 97.1388 33.8046 96.8784 33.6848C96.618 33.565 96.4136 33.3984 96.2651 33.1848C96.1193 32.9687 96.0464 32.7356 96.0464 32.4856H96.769C96.7821 32.7278 96.8784 32.9205 97.0581 33.0637C97.2404 33.2043 97.48 33.2747 97.7769 33.2747C98.0503 33.2747 98.269 33.22 98.4331 33.1106C98.5998 32.9986 98.6831 32.8502 98.6831 32.6653Z" fill="#F7F7F7"/>
<path d="M33.6401 286.37V251.99" stroke="#F7F7F7" stroke-width="2.5" stroke-miterlimit="10" stroke-linecap="round" stroke-linejoin="round"/>
<path d="M50.23 286.37V243.01" stroke="#F7F7F7" stroke-width="2.5" stroke-miterlimit="10" stroke-linecap="round" stroke-linejoin="round"/>
<path d="M66.8201 286.37V269.18" stroke="#F7F7F7" stroke-width="2.5" stroke-miterlimit="10" stroke-linecap="round" stroke-linejoin="round"/>
<path d="M83.4102 286.37V243.01" stroke="#F7F7F7" stroke-width="2.5" stroke-miterlimit="10" stroke-linecap="round" stroke-linejoin="round"/>
<path d="M100 286.37V261.79" stroke="#F7F7F7" stroke-width="2.5" stroke-miterlimit="10" stroke-linecap="round" stroke-linejoin="round"/>
<path d="M116.59 286.37V269.18" stroke="#F7F7F7" stroke-width="2.5" stroke-miterlimit="10" stroke-linecap="round" stroke-linejoin="round"/>
<path d="M133.19 286.37V274.08" stroke="#F7F7F7" stroke-width="2.5" stroke-miterlimit="10" stroke-linecap="round" stroke-linejoin="round"/>
<path d="M29.8901 295.334L31.0522 298.234L32.2144 295.334H32.8223V298.889H32.3535V297.505L32.3975 296.01L31.2305 298.889H30.8716L29.707 296.018L29.7534 297.505V298.889H29.2847V295.334H29.8901ZM33.4595 297.544C33.4595 297.285 33.5099 297.052 33.6108 296.845C33.7134 296.639 33.855 296.479 34.0356 296.367C34.2179 296.255 34.4255 296.198 34.6582 296.198C35.0179 296.198 35.3084 296.323 35.5298 296.572C35.7528 296.821 35.8643 297.152 35.8643 297.566V297.597C35.8643 297.854 35.8146 298.086 35.7153 298.291C35.6177 298.494 35.4769 298.653 35.293 298.767C35.1107 298.881 34.9007 298.938 34.6631 298.938C34.305 298.938 34.0145 298.813 33.7915 298.564C33.5701 298.315 33.4595 297.985 33.4595 297.575V297.544ZM33.9136 297.597C33.9136 297.89 33.9811 298.125 34.1162 298.303C34.2529 298.48 34.4352 298.569 34.6631 298.569C34.8926 298.569 35.0749 298.479 35.21 298.3C35.3451 298.12 35.4126 297.867 35.4126 297.544C35.4126 297.254 35.3434 297.019 35.2051 296.84C35.0684 296.66 34.8861 296.569 34.6582 296.569C34.4352 296.569 34.2554 296.658 34.1187 296.836C33.9819 297.013 33.9136 297.267 33.9136 297.597ZM36.8579 296.247L36.8726 296.579C37.0744 296.325 37.3381 296.198 37.6636 296.198C38.2218 296.198 38.5034 296.513 38.5083 297.143V298.889H38.0566V297.141C38.055 296.95 38.0111 296.81 37.9248 296.718C37.8402 296.627 37.7075 296.582 37.5269 296.582C37.3804 296.582 37.2518 296.621 37.1411 296.699C37.0304 296.777 36.9442 296.88 36.8823 297.006V298.889H36.4307V296.247H36.8579Z" fill="#F7F7F7"/>
<path d="M49.2285 295.72H48.0859V298.889H47.6196V295.72H46.4795V295.334H49.2285V295.72ZM51.0815 298.628C50.9058 298.834 50.6478 298.938 50.3076 298.938C50.026 298.938 49.8112 298.856 49.6631 298.693C49.5166 298.529 49.4425 298.287 49.4409 297.966V296.247H49.8926V297.954C49.8926 298.354 50.0553 298.554 50.3809 298.554C50.7259 298.554 50.9554 298.426 51.0693 298.169V296.247H51.521V298.889H51.0913L51.0815 298.628ZM53.3057 298.938C52.9476 298.938 52.6562 298.82 52.4316 298.586C52.207 298.35 52.0947 298.035 52.0947 297.641V297.558C52.0947 297.296 52.1444 297.063 52.2437 296.858C52.3446 296.651 52.4845 296.49 52.6636 296.374C52.8442 296.257 53.0396 296.198 53.2495 296.198C53.5929 296.198 53.8599 296.311 54.0503 296.538C54.2407 296.764 54.3359 297.088 54.3359 297.509V297.697H52.5464C52.5529 297.958 52.6286 298.169 52.7734 298.33C52.9199 298.489 53.1055 298.569 53.3301 298.569C53.4896 298.569 53.6247 298.536 53.7354 298.471C53.846 298.406 53.9429 298.32 54.0259 298.213L54.3018 298.427C54.0804 298.768 53.7484 298.938 53.3057 298.938ZM53.2495 296.569C53.0672 296.569 52.9142 296.636 52.7905 296.77C52.6668 296.901 52.5903 297.087 52.561 297.326H53.8843V297.292C53.8713 297.063 53.8094 296.885 53.6987 296.76C53.5881 296.633 53.4383 296.569 53.2495 296.569Z" fill="#F7F7F7"/>
<path d="M63.063 297.768L63.1313 298.237L63.2314 297.815L63.9346 295.334H64.3301L65.0161 297.815L65.1138 298.244L65.1895 297.766L65.7412 295.334H66.2124L65.3506 298.889H64.9233L64.1909 296.298L64.1348 296.027L64.0786 296.298L63.3193 298.889H62.8921L62.0327 295.334H62.5015L63.063 297.768ZM67.6821 298.938C67.3241 298.938 67.0327 298.82 66.8081 298.586C66.5835 298.35 66.4712 298.035 66.4712 297.641V297.558C66.4712 297.296 66.5208 297.063 66.6201 296.858C66.721 296.651 66.861 296.49 67.04 296.374C67.2207 296.257 67.416 296.198 67.626 296.198C67.9694 296.198 68.2363 296.311 68.4268 296.538C68.6172 296.764 68.7124 297.088 68.7124 297.509V297.697H66.9229C66.9294 297.958 67.005 298.169 67.1499 298.33C67.2964 298.489 67.4819 298.569 67.7065 298.569C67.866 298.569 68.0011 298.536 68.1118 298.471C68.2225 298.406 68.3193 298.32 68.4023 298.213L68.6782 298.427C68.4569 298.768 68.1248 298.938 67.6821 298.938ZM67.626 296.569C67.4437 296.569 67.2907 296.636 67.167 296.77C67.0433 296.901 66.9668 297.087 66.9375 297.326H68.2607V297.292C68.2477 297.063 68.1859 296.885 68.0752 296.76C67.9645 296.633 67.8148 296.569 67.626 296.569ZM69.1274 297.546C69.1274 297.141 69.2235 296.815 69.4155 296.569C69.6076 296.322 69.859 296.198 70.1699 296.198C70.4792 296.198 70.7241 296.304 70.9048 296.516V295.139H71.3564V298.889H70.9414L70.9194 298.606C70.7388 298.827 70.4873 298.938 70.165 298.938C69.859 298.938 69.6092 298.812 69.4155 298.562C69.2235 298.311 69.1274 297.984 69.1274 297.58V297.546ZM69.5791 297.597C69.5791 297.897 69.641 298.131 69.7646 298.3C69.8883 298.47 70.0592 298.554 70.2773 298.554C70.5638 298.554 70.7729 298.426 70.9048 298.169V296.955C70.7697 296.706 70.5622 296.582 70.2822 296.582C70.0609 296.582 69.8883 296.667 69.7646 296.838C69.641 297.009 69.5791 297.262 69.5791 297.597Z" fill="#F7F7F7"/>
<path d="M82.3552 295.72H81.2126V298.889H80.7463V295.72H79.6062V295.334H82.3552V295.72ZM83.2634 296.567C83.4636 296.321 83.724 296.198 84.0447 296.198C84.6029 296.198 84.8845 296.513 84.8894 297.143V298.889H84.4377V297.141C84.4361 296.95 84.3922 296.81 84.3059 296.718C84.2213 296.627 84.0886 296.582 83.908 296.582C83.7615 296.582 83.6329 296.621 83.5222 296.699C83.4115 296.777 83.3253 296.88 83.2634 297.006V298.889H82.8118V295.139H83.2634V296.567ZM87.1965 298.628C87.0208 298.834 86.7628 298.938 86.4226 298.938C86.141 298.938 85.9262 298.856 85.7781 298.693C85.6316 298.529 85.5575 298.287 85.5559 297.966V296.247H86.0076V297.954C86.0076 298.354 86.1703 298.554 86.4958 298.554C86.8409 298.554 87.0704 298.426 87.1843 298.169V296.247H87.636V298.889H87.2063L87.1965 298.628Z" fill="#F7F7F7"/>
<path d="M99.8374 297.319H98.3457V298.889H97.877V295.334H100.079V295.72H98.3457V296.936H99.8374V297.319ZM101.783 296.652C101.715 296.641 101.641 296.635 101.561 296.635C101.265 296.635 101.064 296.762 100.958 297.014V298.889H100.506V296.247H100.946L100.953 296.552C101.101 296.316 101.311 296.198 101.583 296.198C101.671 296.198 101.738 296.21 101.783 296.233V296.652ZM102.691 298.889H102.24V296.247H102.691V298.889ZM102.203 295.547C102.203 295.473 102.225 295.411 102.269 295.361C102.315 295.311 102.381 295.285 102.469 295.285C102.557 295.285 102.624 295.311 102.669 295.361C102.715 295.411 102.738 295.473 102.738 295.547C102.738 295.62 102.715 295.681 102.669 295.73C102.624 295.778 102.557 295.803 102.469 295.803C102.381 295.803 102.315 295.778 102.269 295.73C102.225 295.681 102.203 295.62 102.203 295.547Z" fill="#F7F7F7"/>
<path d="M114.709 297.304C114.307 297.189 114.014 297.047 113.83 296.88C113.648 296.71 113.557 296.502 113.557 296.255C113.557 295.975 113.668 295.743 113.891 295.561C114.116 295.377 114.407 295.285 114.765 295.285C115.009 295.285 115.227 295.332 115.417 295.427C115.609 295.521 115.757 295.651 115.861 295.818C115.967 295.984 116.02 296.165 116.02 296.362H115.549C115.549 296.147 115.48 295.979 115.344 295.857C115.207 295.733 115.014 295.671 114.765 295.671C114.534 295.671 114.353 295.722 114.223 295.825C114.095 295.926 114.03 296.067 114.03 296.247C114.03 296.392 114.091 296.515 114.213 296.616C114.337 296.715 114.546 296.806 114.841 296.889C115.137 296.972 115.368 297.064 115.534 297.165C115.702 297.264 115.826 297.381 115.905 297.514C115.987 297.648 116.027 297.805 116.027 297.985C116.027 298.274 115.915 298.505 115.69 298.679C115.466 298.851 115.166 298.938 114.79 298.938C114.545 298.938 114.318 298.891 114.106 298.798C113.894 298.704 113.731 298.575 113.615 298.413C113.501 298.25 113.444 298.065 113.444 297.859H113.916C113.916 298.073 113.994 298.243 114.152 298.369C114.312 298.492 114.524 298.554 114.79 298.554C115.037 298.554 115.227 298.504 115.358 298.403C115.49 298.302 115.556 298.165 115.556 297.99C115.556 297.816 115.495 297.682 115.373 297.588C115.251 297.491 115.03 297.397 114.709 297.304ZM118.19 298.889C118.164 298.837 118.143 298.744 118.127 298.61C117.917 298.829 117.666 298.938 117.375 298.938C117.115 298.938 116.901 298.864 116.733 298.718C116.567 298.57 116.484 298.383 116.484 298.156C116.484 297.881 116.588 297.668 116.796 297.517C117.006 297.364 117.301 297.287 117.68 297.287H118.12V297.08C118.12 296.922 118.072 296.797 117.978 296.704C117.884 296.609 117.744 296.562 117.561 296.562C117.399 296.562 117.264 296.603 117.155 296.684C117.046 296.766 116.992 296.864 116.992 296.98H116.538C116.538 296.848 116.584 296.721 116.677 296.599C116.771 296.475 116.898 296.377 117.058 296.306C117.219 296.234 117.395 296.198 117.587 296.198C117.892 296.198 118.13 296.275 118.303 296.428C118.475 296.579 118.565 296.788 118.571 297.055V298.271C118.571 298.514 118.602 298.707 118.664 298.85V298.889H118.19ZM117.441 298.545C117.583 298.545 117.717 298.508 117.844 298.435C117.971 298.361 118.063 298.266 118.12 298.149V297.607H117.766C117.212 297.607 116.936 297.769 116.936 298.093C116.936 298.234 116.983 298.345 117.077 298.425C117.172 298.505 117.293 298.545 117.441 298.545ZM119.892 295.608V296.247H120.385V296.596H119.892V298.234C119.892 298.34 119.914 298.42 119.958 298.474C120.002 298.526 120.077 298.552 120.183 298.552C120.235 298.552 120.306 298.542 120.397 298.523V298.889C120.279 298.921 120.163 298.938 120.051 298.938C119.849 298.938 119.697 298.877 119.594 298.755C119.492 298.632 119.44 298.459 119.44 298.234V296.596H118.959V296.247H119.44V295.608H119.892Z" fill="#F7F7F7"/>
<path d="M130.649 297.304C130.247 297.189 129.954 297.047 129.77 296.88C129.587 296.71 129.496 296.502 129.496 296.255C129.496 295.975 129.608 295.743 129.831 295.561C130.055 295.377 130.347 295.285 130.705 295.285C130.949 295.285 131.166 295.332 131.357 295.427C131.549 295.521 131.697 295.651 131.801 295.818C131.907 295.984 131.96 296.165 131.96 296.362H131.489C131.489 296.147 131.42 295.979 131.283 295.857C131.147 295.733 130.954 295.671 130.705 295.671C130.474 295.671 130.293 295.722 130.163 295.825C130.034 295.926 129.97 296.067 129.97 296.247C129.97 296.392 130.031 296.515 130.153 296.616C130.277 296.715 130.486 296.806 130.781 296.889C131.077 296.972 131.308 297.064 131.474 297.165C131.642 297.264 131.765 297.381 131.845 297.514C131.926 297.648 131.967 297.805 131.967 297.985C131.967 298.274 131.855 298.505 131.63 298.679C131.406 298.851 131.105 298.938 130.729 298.938C130.485 298.938 130.257 298.891 130.046 298.798C129.834 298.704 129.67 298.575 129.555 298.413C129.441 298.25 129.384 298.065 129.384 297.859H129.855C129.855 298.073 129.934 298.243 130.092 298.369C130.252 298.492 130.464 298.554 130.729 298.554C130.977 298.554 131.166 298.504 131.298 298.403C131.43 298.302 131.496 298.165 131.496 297.99C131.496 297.816 131.435 297.682 131.313 297.588C131.191 297.491 130.969 297.397 130.649 297.304ZM134.13 298.628C133.954 298.834 133.696 298.938 133.356 298.938C133.075 298.938 132.86 298.856 132.712 298.693C132.565 298.529 132.491 298.287 132.49 297.966V296.247H132.941V297.954C132.941 298.354 133.104 298.554 133.429 298.554C133.774 298.554 134.004 298.426 134.118 298.169V296.247H134.57V298.889H134.14L134.13 298.628ZM135.685 296.247L135.7 296.579C135.902 296.325 136.165 296.198 136.491 296.198C137.049 296.198 137.331 296.513 137.336 297.143V298.889H136.884V297.141C136.882 296.95 136.838 296.81 136.752 296.718C136.668 296.627 136.535 296.582 136.354 296.582C136.208 296.582 136.079 296.621 135.969 296.699C135.858 296.777 135.772 296.88 135.71 297.006V298.889H135.258V296.247H135.685Z" fill="#F7F7F7"/>
<path d="M33.8804 139.939H28.0723V139.38L30.5415 136.803C31.2355 136.084 31.7222 135.534 32.0015 135.153C32.2808 134.772 32.486 134.408 32.6172 134.061C32.7484 133.714 32.814 133.35 32.814 132.969C32.814 132.415 32.632 131.964 32.2681 131.617C31.9041 131.27 31.4323 131.097 30.8525 131.097C30.0781 131.097 29.3376 131.378 28.6309 131.941L28.2881 131.503C29.0625 130.851 29.9215 130.525 30.8652 130.525C31.6735 130.525 32.3083 130.741 32.7695 131.173C33.235 131.604 33.4678 132.199 33.4678 132.957C33.4678 133.57 33.3112 134.165 32.998 134.74C32.6891 135.312 32.1221 136.018 31.2969 136.86L28.9165 139.304V139.33H33.8804V139.939ZM40.9961 132.842C40.9961 133.418 40.8141 133.902 40.4502 134.296C40.0905 134.689 39.606 134.941 38.9966 135.051V135.089C39.7414 135.182 40.3084 135.419 40.6978 135.8C41.0871 136.181 41.2817 136.693 41.2817 137.336C41.2817 138.204 40.9855 138.877 40.3931 139.355C39.8049 139.829 38.9564 140.066 37.8477 140.066C36.904 140.066 36.0809 139.89 35.3784 139.539V138.911C35.7339 139.097 36.1317 139.243 36.5718 139.349C37.0161 139.454 37.4329 139.507 37.8223 139.507C38.7575 139.507 39.46 139.319 39.9297 138.942C40.3994 138.562 40.6343 138.026 40.6343 137.336C40.6343 136.723 40.3931 136.251 39.9106 135.921C39.4325 135.591 38.7279 135.426 37.7969 135.426H36.7939V134.816H37.8096C38.5798 134.816 39.1891 134.634 39.6377 134.271C40.0905 133.902 40.3169 133.405 40.3169 132.779C40.3169 132.263 40.1328 131.85 39.7646 131.541C39.4007 131.228 38.9225 131.071 38.3301 131.071C37.8688 131.071 37.4478 131.137 37.0669 131.268C36.686 131.395 36.2586 131.615 35.7847 131.928L35.4736 131.503C35.8333 131.202 36.2671 130.965 36.7749 130.792C37.2827 130.614 37.7969 130.525 38.3174 130.525C39.1722 130.525 39.8324 130.729 40.2979 131.135C40.7633 131.537 40.9961 132.106 40.9961 132.842Z" fill="#F7F7F7"/>
<path d="M27.355 148.998H29.0396V149.381H26.8838V145.826H27.355V148.998ZM32.1475 147.718C32.1475 148.067 32.0889 148.371 31.9717 148.631C31.8545 148.89 31.6885 149.088 31.4736 149.225C31.2588 149.361 31.0081 149.43 30.7217 149.43C30.4417 149.43 30.1935 149.361 29.9771 149.225C29.7606 149.086 29.5921 148.89 29.4717 148.636C29.3529 148.381 29.2918 148.085 29.2886 147.75V147.494C29.2886 147.152 29.348 146.85 29.4668 146.588C29.5856 146.326 29.7533 146.126 29.9697 145.987C30.1878 145.847 30.4368 145.777 30.7168 145.777C31.0016 145.777 31.2523 145.847 31.4688 145.985C31.6868 146.122 31.8545 146.321 31.9717 146.583C32.0889 146.844 32.1475 147.147 32.1475 147.494V147.718ZM31.6812 147.489C31.6812 147.067 31.5965 146.744 31.4272 146.52C31.258 146.293 31.0212 146.18 30.7168 146.18C30.4206 146.18 30.187 146.293 30.0161 146.52C29.8468 146.744 29.7598 147.057 29.7549 147.457V147.718C29.7549 148.127 29.8403 148.448 30.0112 148.683C30.1838 148.915 30.4206 149.032 30.7217 149.032C31.0244 149.032 31.2588 148.922 31.4248 148.702C31.5908 148.481 31.6763 148.164 31.6812 147.753V147.489ZM34.1543 147.943H33.3193V149.381H32.8481V145.826H34.0249C34.4253 145.826 34.7329 145.917 34.9478 146.1C35.1642 146.282 35.2725 146.547 35.2725 146.896C35.2725 147.117 35.2122 147.31 35.0918 147.474C34.973 147.639 34.807 147.762 34.5938 147.843L35.4287 149.352V149.381H34.9258L34.1543 147.943ZM33.3193 147.56H34.0396C34.2723 147.56 34.457 147.499 34.5938 147.379C34.7321 147.259 34.8013 147.097 34.8013 146.896C34.8013 146.676 34.7354 146.507 34.6035 146.39C34.4733 146.273 34.2845 146.214 34.0371 146.212H33.3193V147.56ZM37.9409 147.738H36.4004V148.998H38.1899V149.381H35.9316V145.826H38.1655V146.212H36.4004V147.355H37.9409V147.738ZM39.3789 145.826L40.541 148.727L41.7031 145.826H42.311V149.381H41.8423V147.997L41.8862 146.503L40.7192 149.381H40.3604L39.1958 146.51L39.2422 147.997V149.381H38.7734V145.826H39.3789Z" fill="#F7F7F7"/>
<path d="M72.7112 137.571H71.1116V139.939H70.5149V137.571H65.7415V137.146L70.3435 130.608H71.1116V137.025H72.7112V137.571ZM70.5149 137.025V134.372C70.5149 133.094 70.5445 132.021 70.6038 131.154H70.553C70.4683 131.31 70.2081 131.708 69.7722 132.347L66.4968 137.025H70.5149ZM76.304 134.359C77.2942 134.359 78.0728 134.598 78.6399 135.077C79.2112 135.555 79.4968 136.213 79.4968 137.051C79.4968 138.003 79.2006 138.743 78.6082 139.272C78.0157 139.801 77.199 140.066 76.158 140.066C75.6967 140.066 75.2587 140.021 74.844 139.933C74.4293 139.84 74.0823 139.708 73.803 139.539V138.885C74.26 139.118 74.6663 139.281 75.0217 139.374C75.3772 139.463 75.7559 139.507 76.158 139.507C76.9705 139.507 77.6222 139.294 78.113 138.866C78.6039 138.435 78.8494 137.853 78.8494 137.121C78.8494 136.431 78.6103 135.889 78.1321 135.496C77.6539 135.102 77.0043 134.905 76.1833 134.905C75.6332 134.905 75.0577 134.988 74.4568 135.153L74.0759 134.905L74.4441 130.659H78.9128V131.268H75.0408L74.7551 134.543C75.4153 134.421 75.9316 134.359 76.304 134.359ZM81.3503 139.444C81.3503 139.029 81.5196 138.822 81.8582 138.822C82.2052 138.822 82.3787 139.029 82.3787 139.444C82.3787 139.859 82.2052 140.066 81.8582 140.066C81.5196 140.066 81.3503 139.859 81.3503 139.444ZM89.9451 139.939H84.137V139.38L86.6062 136.803C87.3002 136.084 87.7869 135.534 88.0662 135.153C88.3455 134.772 88.5507 134.408 88.6819 134.061C88.8131 133.714 88.8787 133.35 88.8787 132.969C88.8787 132.415 88.6967 131.964 88.3328 131.617C87.9688 131.27 87.497 131.097 86.9172 131.097C86.1428 131.097 85.4023 131.378 84.6956 131.941L84.3528 131.503C85.1272 130.851 85.9862 130.525 86.9299 130.525C87.7382 130.525 88.373 130.741 88.8342 131.173C89.2997 131.604 89.5325 132.199 89.5325 132.957C89.5325 133.57 89.3759 134.165 89.0627 134.74C88.7538 135.312 88.1868 136.018 87.3616 136.86L84.9812 139.304V139.33H89.9451V139.939ZM92.1858 133.426C92.1858 134.213 92.281 134.806 92.4714 135.204C92.6619 135.597 92.9602 135.794 93.3665 135.794C94.1832 135.794 94.5916 135.005 94.5916 133.426C94.5916 132.648 94.4858 132.064 94.2742 131.674C94.0668 131.281 93.7642 131.084 93.3665 131.084C92.9602 131.084 92.6619 131.281 92.4714 131.674C92.281 132.064 92.1858 132.648 92.1858 133.426ZM95.2136 133.426C95.2136 134.383 95.0549 135.111 94.7375 135.61C94.4202 136.105 93.9631 136.353 93.3665 136.353C92.8036 136.353 92.3614 136.099 92.0398 135.591C91.7224 135.079 91.5637 134.357 91.5637 133.426C91.5637 132.483 91.7161 131.763 92.0208 131.268C92.3254 130.773 92.774 130.525 93.3665 130.525C93.9547 130.525 94.4096 130.781 94.7312 131.293C95.0528 131.801 95.2136 132.512 95.2136 133.426ZM97.594 137.159C97.594 137.942 97.6892 138.53 97.8796 138.923C98.0701 139.313 98.3684 139.507 98.7747 139.507C99.5914 139.507 99.9998 138.724 99.9998 137.159C99.9998 135.597 99.5914 134.816 98.7747 134.816C98.3684 134.816 98.0701 135.011 97.8796 135.4C97.6892 135.785 97.594 136.372 97.594 137.159ZM100.622 137.159C100.622 138.115 100.465 138.843 100.152 139.342C99.8389 139.837 99.384 140.085 98.7874 140.085C98.2118 140.085 97.7654 139.829 97.448 139.317C97.1306 138.801 96.9719 138.081 96.9719 137.159C96.9719 136.207 97.1264 135.485 97.4353 134.994C97.7485 134.503 98.1991 134.258 98.7874 134.258C99.3671 134.258 99.8178 134.512 100.139 135.02C100.461 135.527 100.622 136.24 100.622 137.159ZM98.9714 130.659L93.8235 139.939H93.2141L98.3621 130.659H98.9714Z" fill="#F7F7F7"/>
<path d="M70.8799 149.381V145.826H71.8833C72.1925 145.826 72.466 145.895 72.7036 146.031C72.9412 146.168 73.1243 146.363 73.2529 146.615C73.3831 146.867 73.4491 147.157 73.4507 147.484V147.711C73.4507 148.046 73.3856 148.34 73.2554 148.592C73.1268 148.845 72.9421 149.038 72.7012 149.173C72.4619 149.309 72.1828 149.378 71.8638 149.381H70.8799ZM71.3486 146.212V148.998H71.8418C72.2031 148.998 72.4839 148.885 72.6841 148.661C72.8859 148.436 72.9868 148.116 72.9868 147.701V147.494C72.9868 147.09 72.8916 146.777 72.7012 146.554C72.5124 146.329 72.2438 146.215 71.8955 146.212H71.3486ZM76.8955 147.718C76.8955 148.067 76.8369 148.371 76.7197 148.631C76.6025 148.89 76.4365 149.088 76.2217 149.225C76.0068 149.361 75.7562 149.43 75.4697 149.43C75.1898 149.43 74.9416 149.361 74.7251 149.225C74.5086 149.086 74.3402 148.89 74.2197 148.636C74.1009 148.381 74.0399 148.085 74.0366 147.75V147.494C74.0366 147.152 74.096 146.85 74.2148 146.588C74.3337 146.326 74.5013 146.126 74.7178 145.987C74.9359 145.847 75.1849 145.777 75.4648 145.777C75.7497 145.777 76.0003 145.847 76.2168 145.985C76.4349 146.122 76.6025 146.321 76.7197 146.583C76.8369 146.844 76.8955 147.147 76.8955 147.494V147.718ZM76.4292 147.489C76.4292 147.067 76.3446 146.744 76.1753 146.52C76.006 146.293 75.7692 146.18 75.4648 146.18C75.1686 146.18 74.9351 146.293 74.7642 146.52C74.5949 146.744 74.5078 147.057 74.5029 147.457V147.718C74.5029 148.127 74.5884 148.448 74.7593 148.683C74.9318 148.915 75.1686 149.032 75.4697 149.032C75.7725 149.032 76.0068 148.922 76.1729 148.702C76.3389 148.481 76.4243 148.164 76.4292 147.753V147.489ZM78.0698 148.998H79.7544V149.381H77.5986V145.826H78.0698V148.998ZM82.8623 147.718C82.8623 148.067 82.8037 148.371 82.6865 148.631C82.5693 148.89 82.4033 149.088 82.1885 149.225C81.9736 149.361 81.723 149.43 81.4365 149.43C81.1566 149.43 80.9084 149.361 80.6919 149.225C80.4754 149.086 80.307 148.89 80.1865 148.636C80.0677 148.381 80.0067 148.085 80.0034 147.75V147.494C80.0034 147.152 80.0628 146.85 80.1816 146.588C80.3005 146.326 80.4681 146.126 80.6846 145.987C80.9027 145.847 81.1517 145.777 81.4316 145.777C81.7165 145.777 81.9671 145.847 82.1836 145.985C82.4017 146.122 82.5693 146.321 82.6865 146.583C82.8037 146.844 82.8623 147.147 82.8623 147.494V147.718ZM82.396 147.489C82.396 147.067 82.3114 146.744 82.1421 146.52C81.9728 146.293 81.736 146.18 81.4316 146.18C81.1354 146.18 80.9019 146.293 80.731 146.52C80.5617 146.744 80.4746 147.057 80.4697 147.457V147.718C80.4697 148.127 80.5552 148.448 80.7261 148.683C80.8986 148.915 81.1354 149.032 81.4365 149.032C81.7393 149.032 81.9736 148.922 82.1396 148.702C82.3057 148.481 82.3911 148.164 82.396 147.753V147.489ZM84.8691 147.943H84.0342V149.381H83.563V145.826H84.7397C85.1401 145.826 85.4478 145.917 85.6626 146.1C85.8791 146.282 85.9873 146.547 85.9873 146.896C85.9873 147.117 85.9271 147.31 85.8066 147.474C85.6878 147.639 85.5218 147.762 85.3086 147.843L86.1436 149.352V149.381H85.6406L84.8691 147.943ZM84.0342 147.56H84.7544C84.9871 147.56 85.1719 147.499 85.3086 147.379C85.4469 147.259 85.5161 147.097 85.5161 146.896C85.5161 146.676 85.4502 146.507 85.3184 146.39C85.1882 146.273 84.9993 146.214 84.752 146.212H84.0342V147.56ZM88.9341 147.797C88.5321 147.681 88.2391 147.539 88.0552 147.372C87.8729 147.202 87.7817 146.994 87.7817 146.747C87.7817 146.467 87.8932 146.236 88.1162 146.053C88.3408 145.869 88.6322 145.777 88.9902 145.777C89.2344 145.777 89.4517 145.825 89.6421 145.919C89.8341 146.013 89.9823 146.144 90.0864 146.31C90.1922 146.476 90.2451 146.657 90.2451 146.854H89.7739C89.7739 146.639 89.7056 146.471 89.5688 146.349C89.4321 146.225 89.2393 146.163 88.9902 146.163C88.7591 146.163 88.5785 146.214 88.4482 146.317C88.3197 146.418 88.2554 146.559 88.2554 146.739C88.2554 146.884 88.3164 147.007 88.4385 147.108C88.5622 147.207 88.7713 147.298 89.0659 147.381C89.3621 147.464 89.5933 147.556 89.7593 147.657C89.9269 147.757 90.0506 147.873 90.1304 148.006C90.2118 148.14 90.2524 148.297 90.2524 148.478C90.2524 148.766 90.1401 148.997 89.9155 149.171C89.6909 149.344 89.3906 149.43 89.0146 149.43C88.7705 149.43 88.5426 149.383 88.3311 149.291C88.1195 149.196 87.9559 149.068 87.8403 148.905C87.7264 148.742 87.6694 148.557 87.6694 148.351H88.1406C88.1406 148.566 88.2196 148.736 88.3774 148.861C88.5369 148.985 88.7493 149.047 89.0146 149.047C89.262 149.047 89.4517 148.996 89.5835 148.895C89.7153 148.794 89.7812 148.657 89.7812 148.483C89.7812 148.308 89.7202 148.174 89.5981 148.08C89.4761 147.984 89.2547 147.889 88.9341 147.797ZM91.3584 149.381H90.8896V145.826H91.3584V149.381ZM94.6006 146.212H93.458V149.381H92.9917V146.212H91.8516V145.826H94.6006V146.212Z" fill="#F7F7F7"/>
<path d="M127.832 139.939H122.023V139.38L124.493 136.803C125.187 136.084 125.673 135.534 125.953 135.153C126.232 134.772 126.437 134.408 126.568 134.061C126.7 133.714 126.765 133.35 126.765 132.969C126.765 132.415 126.583 131.964 126.219 131.617C125.855 131.27 125.383 131.097 124.804 131.097C124.029 131.097 123.289 131.378 122.582 131.941L122.239 131.503C123.014 130.851 123.873 130.525 124.816 130.525C125.625 130.525 126.259 130.741 126.721 131.173C127.186 131.604 127.419 132.199 127.419 132.957C127.419 133.57 127.262 134.165 126.949 134.74C126.64 135.312 126.073 136.018 125.248 136.86L122.868 139.304V139.33H127.832V139.939ZM134.947 132.842C134.947 133.418 134.765 133.902 134.401 134.296C134.042 134.689 133.557 134.941 132.948 135.051V135.089C133.693 135.182 134.26 135.419 134.649 135.8C135.038 136.181 135.233 136.693 135.233 137.336C135.233 138.204 134.937 138.877 134.344 139.355C133.756 139.829 132.908 140.066 131.799 140.066C130.855 140.066 130.032 139.89 129.33 139.539V138.911C129.685 139.097 130.083 139.243 130.523 139.349C130.967 139.454 131.384 139.507 131.773 139.507C132.709 139.507 133.411 139.319 133.881 138.942C134.351 138.562 134.585 138.026 134.585 137.336C134.585 136.723 134.344 136.251 133.862 135.921C133.384 135.591 132.679 135.426 131.748 135.426H130.745V134.816H131.761C132.531 134.816 133.14 134.634 133.589 134.271C134.042 133.902 134.268 133.405 134.268 132.779C134.268 132.263 134.084 131.85 133.716 131.541C133.352 131.228 132.874 131.071 132.281 131.071C131.82 131.071 131.399 131.137 131.018 131.268C130.637 131.395 130.21 131.615 129.736 131.928L129.425 131.503C129.785 131.202 130.218 130.965 130.726 130.792C131.234 130.614 131.748 130.525 132.269 130.525C133.123 130.525 133.784 130.729 134.249 131.135C134.715 131.537 134.947 132.106 134.947 132.842ZM143.402 137.571H141.803V139.939H141.206V137.571H136.433V137.146L141.035 130.608H141.803V137.025H143.402V137.571ZM141.206 137.025V134.372C141.206 133.094 141.236 132.021 141.295 131.154H141.244C141.16 131.31 140.899 131.708 140.463 132.347L137.188 137.025H141.206Z" fill="#F7F7F7"/>
<path d="M127.542 148.453H126.053L125.719 149.381H125.235L126.593 145.826H127.003L128.363 149.381H127.882L127.542 148.453ZM126.195 148.068H127.403L126.798 146.405L126.195 148.068ZM129.447 145.826L130.609 148.727L131.771 145.826H132.379V149.381H131.91V147.997L131.954 146.503L130.787 149.381H130.428L129.264 146.51L129.31 147.997V149.381H128.841V145.826H129.447ZM135.216 147.738H133.675V148.998H135.465V149.381H133.207V145.826H135.44V146.212H133.675V147.355H135.216V147.738ZM138.553 146.212H137.411V149.381H136.944V146.212H135.804V145.826H138.553V146.212Z" fill="#F7F7F7"/>
<path d="M94.2101 87.79C82.6001 90.65 71.9001 78.52 71.9001 78.52C72.4101 74.66 74.1201 73.16 75.1801 72.6C75.5401 72.41 75.9801 72.65 75.9901 73.05C76.0201 73.97 76.4001 75.47 78.4601 76.15C78.4601 76.15 80.8301 77.05 84.0401 74.57C84.0401 74.57 85.7301 76.97 86.8601 80.08C87.9901 83.19 89.2101 85.03 90.4201 85.08C91.6301 85.13 94.0301 85.3 94.2101 87.79Z" stroke="white" stroke-width="0.75" stroke-miterlimit="10" stroke-linecap="round" stroke-linejoin="round"/>
<path d="M84.0402 74.56C84.0402 74.56 83.1502 71.03 82.1402 71.28C81.1202 71.53 80.5302 76.01 78.6902 76.2" stroke="white" stroke-width="0.75" stroke-miterlimit="10" stroke-linecap="round" stroke-linejoin="round"/>
<path d="M71.9101 78.52L70.7001 79.82C70.5101 80.03 70.5101 80.35 70.7001 80.55C72.5901 82.52 82.8201 92.05 92.4801 90.21C93.1501 90.08 93.6801 89.59 94.0001 88.99C94.1601 88.69 94.2401 88.24 94.2201 87.78" stroke="white" stroke-width="0.75" stroke-miterlimit="10" stroke-linecap="round" stroke-linejoin="round"/>
<path d="M86.4102 79.0601L84.1902 80.3801" stroke="white" stroke-width="0.75" stroke-miterlimit="10" stroke-linecap="round" stroke-linejoin="round"/>
<path d="M85.3 76.8101L83.0901 78.1301" stroke="white" stroke-width="0.75" stroke-miterlimit="10" stroke-linecap="round" stroke-linejoin="round"/>
<path d="M87.4401 81.55L85.54 82.6801" stroke="white" stroke-width="0.75" stroke-miterlimit="10" stroke-linecap="round" stroke-linejoin="round"/>
<path d="M82.5701 109.73C98.0175 109.73 110.54 97.2074 110.54 81.76C110.54 66.3126 98.0175 53.79 82.5701 53.79C67.1227 53.79 54.6001 66.3126 54.6001 81.76C54.6001 97.2074 67.1227 109.73 82.5701 109.73Z" stroke="#3D4962" stroke-width="4" stroke-miterlimit="10"/>
<path d="M62.79 101.54C67.85 106.6 74.8401 109.73 82.5701 109.73C98.0201 109.73 110.54 97.21 110.54 81.76C110.54 66.31 98.0201 53.79 82.5701 53.79" stroke="#E79995" stroke-width="4" stroke-miterlimit="10" stroke-linecap="round" stroke-linejoin="round"/>
<path opacity="0.4" d="M144.7 219.27H22.29C16.77 219.27 12.29 214.79 12.29 209.27V169.96C12.29 164.44 16.77 159.96 22.29 159.96H144.7C150.22 159.96 154.7 164.44 154.7 169.96V209.27C154.7 214.79 150.22 219.27 144.7 219.27Z" fill="#3D4962"/>
<path d="M16.1799 185.45C22.1699 189.51 29.8499 191.18 37.0599 190C41.2499 189.31 45.3699 187.7 49.5999 188.04C52.5099 188.28 55.2499 189.43 58.0699 190.18C61.4299 191.08 64.9299 191.4 68.4199 191.59C75.5499 191.96 82.9899 191.68 89.3599 188.57C93.3599 186.62 96.72 183.66 100.45 181.27C104.18 178.88 108.61 177 113.04 177.66C117.47 178.31 121.05 181.33 124.61 183.95C128.37 186.71 132.45 189.18 136.99 190.44C141.53 191.7 146.61 191.64 150.8 189.54" stroke="#E79995" stroke-miterlimit="10" stroke-linecap="round" stroke-linejoin="round"/>
<path d="M17.2999 225.49C17.2999 224.84 16.7699 224.31 16.1199 224.31C15.4699 224.31 14.9399 224.84 14.9399 225.49C14.9399 226.14 15.4699 226.67 16.1199 226.67C16.7699 226.66 17.2999 226.14 17.2999 225.49Z" fill="#F7F7F7"/>
<path d="M25.7099 225.49C25.7099 224.84 25.1799 224.31 24.5299 224.31C23.8799 224.31 23.3499 224.84 23.3499 225.49C23.3499 226.14 23.8799 226.67 24.5299 226.67C25.1799 226.66 25.7099 226.14 25.7099 225.49Z" fill="#F7F7F7"/>
<path d="M34.12 225.49C34.12 224.84 33.59 224.31 32.94 224.31C32.29 224.31 31.76 224.84 31.76 225.49C31.76 226.14 32.29 226.67 32.94 226.67C33.59 226.67 34.12 226.14 34.12 225.49Z" fill="#F7F7F7"/>
<path d="M42.5399 225.49C42.5399 224.84 42.0099 224.31 41.3599 224.31C40.7099 224.31 40.1799 224.84 40.1799 225.49C40.1799 226.14 40.7099 226.67 41.3599 226.67C42.0099 226.66 42.5399 226.14 42.5399 225.49Z" fill="#F7F7F7"/>
<path d="M50.9498 225.49C50.9498 224.84 50.4198 224.31 49.7698 224.31C49.1198 224.31 48.5898 224.84 48.5898 225.49C48.5898 226.14 49.1198 226.67 49.7698 226.67C50.4298 226.66 50.9498 226.14 50.9498 225.49Z" fill="#F7F7F7"/>
<path d="M59.37 225.49C59.37 224.84 58.84 224.31 58.19 224.31C57.54 224.31 57.01 224.84 57.01 225.49C57.01 226.14 57.54 226.67 58.19 226.67C58.84 226.67 59.37 226.14 59.37 225.49Z" fill="#F7F7F7"/>
<path d="M67.78 225.49C67.78 224.84 67.2499 224.31 66.5999 224.31C65.9499 224.31 65.4199 224.84 65.4199 225.49C65.4199 226.14 65.9499 226.67 66.5999 226.67C67.2499 226.67 67.78 226.14 67.78 225.49Z" fill="#F7F7F7"/>
<path d="M76.1998 225.49C76.1998 224.84 75.6698 224.31 75.0198 224.31C74.3698 224.31 73.8398 224.84 73.8398 225.49C73.8398 226.14 74.3698 226.67 75.0198 226.67C75.6698 226.66 76.1998 226.14 76.1998 225.49Z" fill="#F7F7F7"/>
<path d="M84.61 225.49C84.61 224.84 84.08 224.31 83.43 224.31C82.78 224.31 82.25 224.84 82.25 225.49C82.25 226.14 82.78 226.67 83.43 226.67C84.08 226.67 84.61 226.14 84.61 225.49Z" fill="#F7F7F7"/>
<path d="M93.02 225.49C93.02 224.84 92.49 224.31 91.84 224.31C91.19 224.31 90.6599 224.84 90.6599 225.49C90.6599 226.14 91.19 226.67 91.84 226.67C92.49 226.67 93.02 226.14 93.02 225.49Z" fill="#F7F7F7"/>
<path d="M101.44 225.49C101.44 224.84 100.91 224.31 100.26 224.31C99.6101 224.31 99.0801 224.84 99.0801 225.49C99.0801 226.14 99.6101 226.67 100.26 226.67C100.91 226.66 101.44 226.14 101.44 225.49Z" fill="#F7F7F7"/>
<path d="M109.85 225.49C109.85 224.84 109.32 224.31 108.67 224.31C108.02 224.31 107.49 224.84 107.49 225.49C107.49 226.14 108.02 226.67 108.67 226.67C109.33 226.66 109.85 226.14 109.85 225.49Z" fill="#F7F7F7"/>
<path d="M118.27 225.49C118.27 224.84 117.74 224.31 117.09 224.31C116.44 224.31 115.91 224.84 115.91 225.49C115.91 226.14 116.44 226.67 117.09 226.67C117.74 226.67 118.27 226.14 118.27 225.49Z" fill="#F7F7F7"/>
<path d="M126.68 225.49C126.68 224.84 126.15 224.31 125.5 224.31C124.85 224.31 124.32 224.84 124.32 225.49C124.32 226.14 124.85 226.67 125.5 226.67C126.15 226.66 126.68 226.14 126.68 225.49Z" fill="#F7F7F7"/>
<path d="M133.92 226.67C134.572 226.67 135.1 226.142 135.1 225.49C135.1 224.838 134.572 224.31 133.92 224.31C133.268 224.31 132.74 224.838 132.74 225.49C132.74 226.142 133.268 226.67 133.92 226.67Z" fill="#F7F7F7"/>
<path d="M142.33 226.67C142.982 226.67 143.51 226.142 143.51 225.49C143.51 224.838 142.982 224.31 142.33 224.31C141.678 224.31 141.15 224.838 141.15 225.49C141.15 226.142 141.678 226.67 142.33 226.67Z" fill="#F7F7F7"/>
<path d="M150.75 226.67C151.402 226.67 151.93 226.142 151.93 225.49C151.93 224.838 151.402 224.31 150.75 224.31C150.098 224.31 149.57 224.838 149.57 225.49C149.57 226.142 150.098 226.67 150.75 226.67Z" fill="#F7F7F7"/>
<defs>
<linearGradient id="paint0_linear" x1="-38.7557" y1="51.3885" x2="205.583" y2="295.727" gradientUnits="userSpaceOnUse">
<stop stop-color="#3D4962"/>
<stop offset="1" stop-color="#182442"/>
</linearGradient>
</defs>
</svg>
