<svg width="167" height="348" viewBox="0 0 167 348" fill="none" xmlns="http://www.w3.org/2000/svg">
<path d="M145.66 347.12H21.52C9.92 347.12 0.51001 337.71 0.51001 326.11V21.01C0.51001 9.41 9.92 0 21.52 0H145.66C157.26 0 166.67 9.41 166.67 21.01V326.11C166.67 337.71 157.26 347.12 145.66 347.12Z" fill="url(#paint0_linear)"/>
<path d="M16.004 11.9555C15.9073 12.0706 15.7914 12.1631 15.6563 12.2332C15.5229 12.3032 15.3761 12.3383 15.216 12.3383C15.0059 12.3383 14.8225 12.2866 14.6657 12.1832C14.5106 12.0798 14.3905 11.9347 14.3055 11.7479C14.2204 11.5594 14.1779 11.3518 14.1779 11.125C14.1779 10.8815 14.2238 10.6622 14.3155 10.4671C14.4089 10.272 14.5406 10.1227 14.7107 10.0193C14.8808 9.91591 15.0793 9.86421 15.3061 9.86421C15.6663 9.86421 15.9498 9.9993 16.1566 10.2695C16.3651 10.538 16.4693 10.9049 16.4693 11.3702V11.5052C16.4693 12.214 16.3292 12.7318 16.0491 13.0587C15.7689 13.3839 15.3461 13.5507 14.7808 13.559H14.6907V13.1688H14.7883C15.1702 13.1621 15.4637 13.0629 15.6688 12.8711C15.8739 12.6776 15.9857 12.3724 16.004 11.9555ZM15.2911 11.9555C15.4462 11.9555 15.5888 11.908 15.7189 11.8129C15.8506 11.7179 15.9465 11.6003 16.0065 11.4602V11.2751C16.0065 10.9716 15.9407 10.7247 15.8089 10.5346C15.6772 10.3445 15.5104 10.2495 15.3086 10.2495C15.1051 10.2495 14.9417 10.3278 14.8183 10.4846C14.6949 10.6397 14.6332 10.8448 14.6332 11.1C14.6332 11.3485 14.6924 11.5536 14.8108 11.7154C14.9309 11.8755 15.091 11.9555 15.2911 11.9555ZM17.1397 13.3139C17.1397 13.2338 17.1631 13.1671 17.2098 13.1137C17.2581 13.0604 17.3299 13.0337 17.4249 13.0337C17.52 13.0337 17.5917 13.0604 17.6401 13.1137C17.6901 13.1671 17.7151 13.2338 17.7151 13.3139C17.7151 13.3906 17.6901 13.4548 17.6401 13.5065C17.5917 13.5582 17.52 13.584 17.4249 13.584C17.3299 13.584 17.2581 13.5582 17.2098 13.5065C17.1631 13.4548 17.1397 13.3906 17.1397 13.3139ZM17.1422 11.105C17.1422 11.0249 17.1656 10.9582 17.2123 10.9049C17.2606 10.8515 17.3324 10.8248 17.4274 10.8248C17.5225 10.8248 17.5942 10.8515 17.6426 10.9049C17.6926 10.9582 17.7176 11.0249 17.7176 11.105C17.7176 11.1817 17.6926 11.2459 17.6426 11.2976C17.5942 11.3493 17.5225 11.3752 17.4274 11.3752C17.3324 11.3752 17.2606 11.3493 17.2123 11.2976C17.1656 11.2459 17.1422 11.1817 17.1422 11.105ZM19.0209 11.5102H19.3686C19.5871 11.5069 19.7589 11.4494 19.884 11.3376C20.009 11.2259 20.0716 11.075 20.0716 10.8848C20.0716 10.4579 19.8589 10.2444 19.4337 10.2444C19.2335 10.2444 19.0734 10.302 18.9534 10.4171C18.835 10.5305 18.7758 10.6814 18.7758 10.8698H18.313C18.313 10.5813 18.418 10.342 18.6282 10.1519C18.84 9.96011 19.1085 9.86421 19.4337 9.86421C19.7772 9.86421 20.0466 9.9551 20.2417 10.1369C20.4368 10.3187 20.5344 10.5713 20.5344 10.8949C20.5344 11.0533 20.4827 11.2067 20.3793 11.3551C20.2775 11.5036 20.1383 11.6145 19.9615 11.6879C20.1616 11.7512 20.3159 11.8563 20.4243 12.003C20.5344 12.1498 20.5894 12.3291 20.5894 12.5409C20.5894 12.8678 20.4827 13.1271 20.2692 13.3189C20.0557 13.5107 19.7781 13.6065 19.4362 13.6065C19.0943 13.6065 18.8158 13.514 18.6007 13.3289C18.3872 13.1438 18.2805 12.8994 18.2805 12.5959H18.7457C18.7457 12.7877 18.8083 12.9411 18.9334 13.0562C19.0584 13.1713 19.226 13.2288 19.4362 13.2288C19.6596 13.2288 19.8306 13.1704 19.949 13.0537C20.0674 12.937 20.1266 12.7694 20.1266 12.5509C20.1266 12.3391 20.0616 12.1765 19.9315 12.0631C19.8014 11.9497 19.6138 11.8913 19.3686 11.888H19.0209V11.5102ZM23.5087 12.003C23.5087 12.5451 23.4162 12.9478 23.231 13.2113C23.0459 13.4748 22.7566 13.6065 22.363 13.6065C21.9744 13.6065 21.6867 13.4781 21.5 13.2213C21.3132 12.9628 21.2165 12.5776 21.2098 12.0656V11.4477C21.2098 10.9124 21.3023 10.5146 21.4875 10.2545C21.6726 9.99429 21.9628 9.86421 22.358 9.86421C22.7499 9.86421 23.0384 9.99012 23.2235 10.2419C23.4087 10.4921 23.5037 10.879 23.5087 11.4027V12.003ZM23.0459 11.3702C23.0459 10.9782 22.9909 10.6931 22.8808 10.5146C22.7708 10.3345 22.5965 10.2444 22.358 10.2444C22.1212 10.2444 21.9486 10.3337 21.8402 10.5121C21.7318 10.6906 21.6759 10.9649 21.6726 11.3351V12.0756C21.6726 12.4692 21.7293 12.7602 21.8427 12.9486C21.9577 13.1354 22.1312 13.2288 22.363 13.2288C22.5915 13.2288 22.7608 13.1404 22.8708 12.9636C22.9826 12.7869 23.0409 12.5084 23.0459 12.1281V11.3702Z" fill="#F7F7F7"/>
<path d="M128.6 12.1101H127.52V13.8701H128.6V12.1101Z" fill="#F7F7F7"/>
<path d="M130.14 11.4H129.06V13.87H130.14V11.4Z" fill="#F7F7F7"/>
<path d="M131.68 10.7201H130.6V13.8801H131.68V10.7201Z" fill="#F7F7F7"/>
<path d="M133.22 9.93005H132.14V13.8701H133.22V9.93005Z" fill="#F7F7F7"/>
<path d="M136.47 11.2101L136.99 11.7301C137.65 11.1301 138.5 10.8101 139.38 10.8101C140.27 10.8101 141.11 11.1401 141.77 11.7301L142.3 11.2101C141.5 10.4801 140.47 10.0801 139.39 10.0801C138.3 10.0801 137.27 10.4801 136.47 11.2101Z" fill="#F7F7F7"/>
<path d="M137.44 12.1801L137.96 12.7001C138.36 12.3601 138.86 12.1801 139.38 12.1801C139.9 12.1801 140.4 12.3601 140.81 12.7001L141.33 12.1801C140.79 11.7001 140.1 11.4401 139.39 11.4401C138.67 11.4501 137.99 11.7101 137.44 12.1801Z" fill="#F7F7F7"/>
<path d="M138.41 13.1501L138.94 13.6801C139.08 13.5901 139.23 13.5501 139.39 13.5501C139.55 13.5501 139.7 13.6001 139.84 13.6801L140.37 13.1501C139.8 12.7101 138.97 12.7101 138.41 13.1501Z" fill="#F7F7F7"/>
<path d="M152.37 13.4H145.83C145.74 13.4 145.67 13.33 145.67 13.24V10.57C145.67 10.48 145.74 10.41 145.83 10.41H152.37C152.46 10.41 152.53 10.48 152.53 10.57V13.24C152.53 13.33 152.46 13.4 152.37 13.4Z" fill="#F7F7F7"/>
<path d="M153.09 12.55H152.86C152.77 12.55 152.7 12.48 152.7 12.39V11.42C152.7 11.33 152.77 11.26 152.86 11.26H153.09C153.18 11.26 153.25 11.33 153.25 11.42V12.39C153.24 12.48 153.17 12.55 153.09 12.55Z" fill="#F7F7F7"/>
<path d="M59.5417 315.206V311.651H60.5452C60.8544 311.651 61.1278 311.719 61.3655 311.856C61.6031 311.993 61.7862 312.187 61.9148 312.44C62.045 312.692 62.1109 312.982 62.1125 313.309V313.536C62.1125 313.871 62.0474 314.165 61.9172 314.417C61.7887 314.67 61.6039 314.863 61.363 314.998C61.1238 315.133 60.8446 315.203 60.5256 315.206H59.5417ZM60.0105 312.037V314.823H60.5037C60.865 314.823 61.1458 314.71 61.3459 314.486C61.5478 314.261 61.6487 313.941 61.6487 313.526V313.319C61.6487 312.915 61.5535 312.602 61.363 312.379C61.1742 312.154 60.9057 312.04 60.5574 312.037H60.0105ZM62.6326 313.861C62.6326 313.602 62.683 313.369 62.7839 313.162C62.8865 312.956 63.0281 312.796 63.2087 312.684C63.391 312.572 63.5986 312.515 63.8313 312.515C64.191 312.515 64.4815 312.64 64.7029 312.889C64.9259 313.138 65.0374 313.469 65.0374 313.883V313.914C65.0374 314.171 64.9877 314.403 64.8884 314.608C64.7908 314.811 64.65 314.97 64.4661 315.084C64.2838 315.198 64.0738 315.255 63.8362 315.255C63.4781 315.255 63.1876 315.13 62.9646 314.881C62.7432 314.632 62.6326 314.302 62.6326 313.892V313.861ZM63.0867 313.914C63.0867 314.207 63.1542 314.442 63.2893 314.62C63.426 314.797 63.6083 314.886 63.8362 314.886C64.0657 314.886 64.248 314.796 64.3831 314.617C64.5181 314.437 64.5857 314.184 64.5857 313.861C64.5857 313.571 64.5165 313.337 64.3782 313.157C64.2415 312.977 64.0592 312.886 63.8313 312.886C63.6083 312.886 63.4285 312.975 63.2917 313.153C63.155 313.33 63.0867 313.584 63.0867 313.914ZM66.031 312.564L66.0457 312.896C66.2475 312.642 66.5111 312.515 66.8367 312.515C67.3949 312.515 67.6765 312.83 67.6814 313.46V315.206H67.2297V313.458C67.2281 313.267 67.1842 313.127 67.0979 313.035C67.0133 312.944 66.8806 312.899 66.7 312.899C66.5535 312.899 66.4249 312.938 66.3142 313.016C66.2035 313.094 66.1173 313.197 66.0554 313.323V315.206H65.6038V312.564H66.031ZM68.199 312.652L67.9426 312.476C68.094 312.265 68.1721 312.042 68.177 311.807V311.456H68.6238V311.773C68.6222 311.936 68.5815 312.099 68.5017 312.261C68.4236 312.423 68.3227 312.553 68.199 312.652ZM69.781 311.925V312.564H70.2742V312.913H69.781V314.552C69.781 314.657 69.803 314.737 69.8469 314.791C69.8909 314.843 69.9657 314.869 70.0715 314.869C70.1236 314.869 70.1952 314.859 70.2864 314.84V315.206C70.1676 315.238 70.052 315.255 69.9397 315.255C69.7379 315.255 69.5857 315.194 69.4832 315.072C69.3806 314.949 69.3293 314.776 69.3293 314.552V312.913H68.8484V312.564H69.3293V311.925H69.781ZM72.4958 312.884C72.696 312.638 72.9565 312.515 73.2771 312.515C73.8354 312.515 74.1169 312.83 74.1218 313.46V315.206H73.6702V313.458C73.6685 313.267 73.6246 313.127 73.5383 313.035C73.4537 312.944 73.321 312.899 73.1404 312.899C72.9939 312.899 72.8653 312.938 72.7546 313.016C72.644 313.094 72.5577 313.197 72.4958 313.323V315.206H72.0442V311.456H72.4958V312.884ZM76.429 315.206C76.4029 315.154 76.3818 315.061 76.3655 314.927C76.1555 315.146 75.9049 315.255 75.6135 315.255C75.3531 315.255 75.1391 315.181 74.9714 315.035C74.8054 314.887 74.7224 314.7 74.7224 314.473C74.7224 314.198 74.8266 313.985 75.0349 313.834C75.2449 313.681 75.5395 313.604 75.9187 313.604H76.3582V313.397C76.3582 313.239 76.311 313.114 76.2166 313.021C76.1222 312.926 75.983 312.879 75.7991 312.879C75.6379 312.879 75.5028 312.92 75.3938 313.001C75.2847 313.083 75.2302 313.181 75.2302 313.297H74.7761C74.7761 313.165 74.8225 313.038 74.9153 312.916C75.0097 312.792 75.1366 312.694 75.2961 312.623C75.4573 312.551 75.6339 312.515 75.8259 312.515C76.1303 312.515 76.3687 312.592 76.5413 312.745C76.7138 312.896 76.8033 313.105 76.8098 313.372V314.588C76.8098 314.831 76.8407 315.024 76.9026 315.167V315.206H76.429ZM75.6794 314.862C75.821 314.862 75.9553 314.825 76.0823 314.752C76.2092 314.678 76.3012 314.583 76.3582 314.466V313.924H76.0042C75.4508 313.924 75.1741 314.086 75.1741 314.41C75.1741 314.552 75.2213 314.662 75.3157 314.742C75.4101 314.822 75.5313 314.862 75.6794 314.862ZM78.3503 314.593L79.0046 312.564H79.4661L78.5188 315.206H78.1746L77.2175 312.564H77.679L78.3503 314.593ZM80.9626 315.255C80.6046 315.255 80.3132 315.137 80.0886 314.903C79.864 314.667 79.7517 314.352 79.7517 313.958V313.875C79.7517 313.613 79.8014 313.38 79.9006 313.175C80.0015 312.968 80.1415 312.807 80.3206 312.691C80.5012 312.574 80.6965 312.515 80.9065 312.515C81.2499 312.515 81.5168 312.628 81.7073 312.855C81.8977 313.081 81.9929 313.405 81.9929 313.826V314.014H80.2034C80.2099 314.275 80.2856 314.486 80.4304 314.647C80.5769 314.806 80.7625 314.886 80.9871 314.886C81.1466 314.886 81.2817 314.853 81.3923 314.788C81.503 314.723 81.5999 314.637 81.6829 314.53L81.9587 314.744C81.7374 315.085 81.4054 315.255 80.9626 315.255ZM80.9065 312.886C80.7242 312.886 80.5712 312.953 80.4475 313.087C80.3238 313.219 80.2473 313.404 80.218 313.643H81.5413V313.609C81.5282 313.38 81.4664 313.202 81.3557 313.077C81.245 312.95 81.0953 312.886 80.9065 312.886ZM85.3889 315.206C85.3629 315.154 85.3417 315.061 85.3254 314.927C85.1155 315.146 84.8648 315.255 84.5735 315.255C84.3131 315.255 84.099 315.181 83.9314 315.035C83.7654 314.887 83.6824 314.7 83.6824 314.473C83.6824 314.198 83.7865 313.985 83.9949 313.834C84.2048 313.681 84.4994 313.604 84.8787 313.604H85.3181V313.397C85.3181 313.239 85.2709 313.114 85.1765 313.021C85.0821 312.926 84.943 312.879 84.759 312.879C84.5979 312.879 84.4628 312.92 84.3538 313.001C84.2447 313.083 84.1902 313.181 84.1902 313.297H83.7361C83.7361 313.165 83.7825 313.038 83.8752 312.916C83.9696 312.792 84.0966 312.694 84.2561 312.623C84.4172 312.551 84.5938 312.515 84.7859 312.515C85.0903 312.515 85.3287 312.592 85.5012 312.745C85.6737 312.896 85.7633 313.105 85.7698 313.372V314.588C85.7698 314.831 85.8007 315.024 85.8625 315.167V315.206H85.3889ZM84.6394 314.862C84.781 314.862 84.9153 314.825 85.0422 314.752C85.1692 314.678 85.2611 314.583 85.3181 314.466V313.924H84.9641C84.4107 313.924 84.134 314.086 84.134 314.41C84.134 314.552 84.1812 314.662 84.2756 314.742C84.37 314.822 84.4913 314.862 84.6394 314.862ZM86.905 312.564L86.9197 312.896C87.1215 312.642 87.3852 312.515 87.7107 312.515C88.269 312.515 88.5505 312.83 88.5554 313.46V315.206H88.1038V313.458C88.1021 313.267 88.0582 313.127 87.9719 313.035C87.8873 312.944 87.7546 312.899 87.574 312.899C87.4275 312.899 87.2989 312.938 87.1882 313.016C87.0776 313.094 86.9913 313.197 86.9294 313.323V315.206H86.4778V312.564H86.905ZM92.1077 315.206C92.0816 315.154 92.0605 315.061 92.0442 314.927C91.8342 315.146 91.5836 315.255 91.2922 315.255C91.0318 315.255 90.8178 315.181 90.6501 315.035C90.4841 314.887 90.4011 314.7 90.4011 314.473C90.4011 314.198 90.5053 313.985 90.7136 313.834C90.9236 313.681 91.2182 313.604 91.5974 313.604H92.0369V313.397C92.0369 313.239 91.9897 313.114 91.8953 313.021C91.8009 312.926 91.6617 312.879 91.4778 312.879C91.3167 312.879 91.1816 312.92 91.0725 313.001C90.9635 313.083 90.9089 313.181 90.9089 313.297H90.4548C90.4548 313.165 90.5012 313.038 90.594 312.916C90.6884 312.792 90.8153 312.694 90.9749 312.623C91.136 312.551 91.3126 312.515 91.5046 312.515C91.809 312.515 92.0474 312.592 92.22 312.745C92.3925 312.896 92.482 313.105 92.4885 313.372V314.588C92.4885 314.831 92.5194 315.024 92.5813 315.167V315.206H92.1077ZM91.3582 314.862C91.4998 314.862 91.634 314.825 91.761 314.752C91.8879 314.678 91.9799 314.583 92.0369 314.466V313.924H91.6829C91.1295 313.924 90.8528 314.086 90.8528 314.41C90.8528 314.552 90.9 314.662 90.9944 314.742C91.0888 314.822 91.21 314.862 91.3582 314.862ZM94.2561 314.886C94.4172 314.886 94.558 314.837 94.6785 314.74C94.7989 314.642 94.8656 314.52 94.8787 314.373H95.3059C95.2978 314.525 95.2457 314.669 95.1497 314.805C95.0536 314.942 94.925 315.051 94.7639 315.133C94.6044 315.214 94.4351 315.255 94.2561 315.255C93.8964 315.255 93.6099 315.135 93.3967 314.896C93.1851 314.655 93.0793 314.326 93.0793 313.909V313.834C93.0793 313.577 93.1265 313.348 93.2209 313.148C93.3153 312.948 93.4504 312.792 93.6262 312.681C93.8036 312.571 94.0128 312.515 94.2537 312.515C94.5499 312.515 94.7957 312.604 94.991 312.781C95.1879 312.959 95.2929 313.189 95.3059 313.472H94.8787C94.8656 313.302 94.8005 313.162 94.6833 313.052C94.5678 312.942 94.4246 312.886 94.2537 312.886C94.0242 312.886 93.8459 312.969 93.719 313.135C93.5937 313.3 93.531 313.538 93.531 313.851V313.936C93.531 314.241 93.5937 314.475 93.719 314.639C93.8443 314.804 94.0234 314.886 94.2561 314.886ZM96.8733 314.886C97.0344 314.886 97.1752 314.837 97.2957 314.74C97.4161 314.642 97.4828 314.52 97.4958 314.373H97.9231C97.915 314.525 97.8629 314.669 97.7668 314.805C97.6708 314.942 97.5422 315.051 97.3811 315.133C97.2216 315.214 97.0523 315.255 96.8733 315.255C96.5136 315.255 96.2271 315.135 96.0139 314.896C95.8023 314.655 95.6965 314.326 95.6965 313.909V313.834C95.6965 313.577 95.7437 313.348 95.8381 313.148C95.9325 312.948 96.0676 312.792 96.2434 312.681C96.4208 312.571 96.63 312.515 96.8708 312.515C97.1671 312.515 97.4128 312.604 97.6082 312.781C97.8051 312.959 97.9101 313.189 97.9231 313.472H97.4958C97.4828 313.302 97.4177 313.162 97.3005 313.052C97.185 312.942 97.0417 312.886 96.8708 312.886C96.6414 312.886 96.4631 312.969 96.3362 313.135C96.2109 313.3 96.1482 313.538 96.1482 313.851V313.936C96.1482 314.241 96.2109 314.475 96.3362 314.639C96.4615 314.804 96.6405 314.886 96.8733 314.886ZM98.3113 313.861C98.3113 313.602 98.3617 313.369 98.4626 313.162C98.5652 312.956 98.7068 312.796 98.8875 312.684C99.0697 312.572 99.2773 312.515 99.51 312.515C99.8697 312.515 100.16 312.64 100.382 312.889C100.605 313.138 100.716 313.469 100.716 313.883V313.914C100.716 314.171 100.666 314.403 100.567 314.608C100.469 314.811 100.329 314.97 100.145 315.084C99.9625 315.198 99.7525 315.255 99.5149 315.255C99.1568 315.255 98.8663 315.13 98.6433 314.881C98.422 314.632 98.3113 314.302 98.3113 313.892V313.861ZM98.7654 313.914C98.7654 314.207 98.8329 314.442 98.968 314.62C99.1047 314.797 99.287 314.886 99.5149 314.886C99.7444 314.886 99.9267 314.796 100.062 314.617C100.197 314.437 100.264 314.184 100.264 313.861C100.264 313.571 100.195 313.337 100.057 313.157C99.9202 312.977 99.7379 312.886 99.51 312.886C99.287 312.886 99.1072 312.975 98.9705 313.153C98.8337 313.33 98.7654 313.584 98.7654 313.914ZM102.913 314.945C102.738 315.151 102.48 315.255 102.139 315.255C101.858 315.255 101.643 315.173 101.495 315.01C101.348 314.846 101.274 314.604 101.273 314.283V312.564H101.724V314.271C101.724 314.671 101.887 314.871 102.213 314.871C102.558 314.871 102.787 314.743 102.901 314.486V312.564H103.353V315.206H102.923L102.913 314.945ZM104.469 312.564L104.483 312.896C104.685 312.642 104.949 312.515 105.274 312.515C105.832 312.515 106.114 312.83 106.119 313.46V315.206H105.667V313.458C105.666 313.267 105.622 313.127 105.535 313.035C105.451 312.944 105.318 312.899 105.137 312.899C104.991 312.899 104.862 312.938 104.752 313.016C104.641 313.094 104.555 313.197 104.493 313.323V315.206H104.041V312.564H104.469ZM107.413 311.925V312.564H107.906V312.913H107.413V314.552C107.413 314.657 107.435 314.737 107.479 314.791C107.523 314.843 107.598 314.869 107.703 314.869C107.755 314.869 107.827 314.859 107.918 314.84V315.206C107.799 315.238 107.684 315.255 107.572 315.255C107.37 315.255 107.218 315.194 107.115 315.072C107.012 314.949 106.961 314.776 106.961 314.552V312.913H106.48V312.564H106.961V311.925H107.413ZM108.966 314.205C108.969 314.011 108.991 313.858 109.031 313.746C109.072 313.634 109.155 313.509 109.281 313.372L109.6 313.043C109.737 312.888 109.805 312.722 109.805 312.545C109.805 312.374 109.761 312.24 109.671 312.144C109.582 312.047 109.451 311.998 109.281 311.998C109.115 311.998 108.981 312.042 108.88 312.13C108.779 312.218 108.729 312.336 108.729 312.484H108.277C108.28 312.22 108.374 312.008 108.558 311.846C108.743 311.684 108.984 311.602 109.281 311.602C109.588 311.602 109.827 311.685 109.998 311.851C110.171 312.016 110.257 312.242 110.257 312.53C110.257 312.815 110.125 313.096 109.862 313.372L109.595 313.636C109.477 313.768 109.417 313.957 109.417 314.205H108.966ZM108.946 314.979C108.946 314.906 108.968 314.844 109.012 314.796C109.058 314.745 109.124 314.72 109.212 314.72C109.3 314.72 109.367 314.745 109.412 314.796C109.458 314.844 109.481 314.906 109.481 314.979C109.481 315.052 109.458 315.113 109.412 315.162C109.367 315.209 109.3 315.233 109.212 315.233C109.124 315.233 109.058 315.209 109.012 315.162C108.968 315.113 108.946 315.052 108.946 314.979Z" fill="#8B92A1"/>
<path d="M63.6929 324.686C63.6401 325.137 63.4731 325.485 63.1919 325.732C62.9126 325.976 62.5405 326.098 62.0757 326.098C61.5718 326.098 61.1675 325.917 60.8628 325.556C60.5601 325.194 60.4087 324.711 60.4087 324.106V323.695C60.4087 323.299 60.479 322.95 60.6196 322.65C60.7622 322.349 60.9634 322.118 61.2231 321.958C61.4829 321.796 61.7837 321.715 62.1255 321.715C62.5786 321.715 62.9419 321.842 63.2153 322.096C63.4888 322.348 63.6479 322.697 63.6929 323.145H63.1274C63.0786 322.805 62.9722 322.559 62.8081 322.406C62.646 322.254 62.4185 322.178 62.1255 322.178C61.7661 322.178 61.4839 322.311 61.2788 322.576C61.0757 322.842 60.9741 323.22 60.9741 323.71V324.123C60.9741 324.586 61.0708 324.954 61.2642 325.228C61.4575 325.501 61.728 325.638 62.0757 325.638C62.3882 325.638 62.6274 325.568 62.7935 325.427C62.9614 325.284 63.0728 325.037 63.1274 324.686H63.6929ZM65.9106 323.356C65.8286 323.342 65.7397 323.335 65.644 323.335C65.2886 323.335 65.0474 323.486 64.9204 323.789V326.039H64.3784V322.869H64.9058L64.9146 323.235C65.0923 322.952 65.3442 322.811 65.6704 322.811C65.7759 322.811 65.856 322.824 65.9106 322.852V323.356ZM67.6685 326.098C67.2388 326.098 66.8892 325.957 66.6196 325.676C66.3501 325.393 66.2153 325.015 66.2153 324.542V324.443C66.2153 324.128 66.2749 323.848 66.394 323.602C66.5151 323.354 66.6831 323.16 66.8979 323.022C67.1147 322.881 67.3491 322.811 67.6011 322.811C68.0132 322.811 68.3335 322.946 68.562 323.218C68.7905 323.489 68.9048 323.878 68.9048 324.384V324.609H66.7573C66.7651 324.922 66.856 325.175 67.0298 325.368C67.2056 325.56 67.4282 325.655 67.6978 325.655C67.8892 325.655 68.0513 325.616 68.1841 325.538C68.3169 325.46 68.4331 325.357 68.5327 325.228L68.8638 325.485C68.5981 325.894 68.1997 326.098 67.6685 326.098ZM67.6011 323.256C67.3823 323.256 67.1987 323.336 67.0503 323.496C66.9019 323.654 66.8101 323.877 66.7749 324.164H68.3628V324.123C68.3472 323.848 68.2729 323.635 68.1401 323.484C68.0073 323.332 67.8276 323.256 67.6011 323.256ZM71.4917 326.039C71.4604 325.977 71.4351 325.865 71.4155 325.705C71.1636 325.967 70.8628 326.098 70.5132 326.098C70.2007 326.098 69.9438 326.01 69.7427 325.834C69.5435 325.656 69.4438 325.432 69.4438 325.16C69.4438 324.83 69.5688 324.574 69.8188 324.393C70.0708 324.209 70.4243 324.117 70.8794 324.117H71.4067V323.868C71.4067 323.679 71.3501 323.528 71.2368 323.417C71.1235 323.304 70.9565 323.247 70.7358 323.247C70.5425 323.247 70.3804 323.296 70.2495 323.394C70.1187 323.491 70.0532 323.609 70.0532 323.748H69.5083C69.5083 323.59 69.564 323.438 69.6753 323.291C69.7886 323.143 69.9409 323.026 70.1323 322.94C70.3257 322.854 70.5376 322.811 70.7681 322.811C71.1333 322.811 71.4194 322.902 71.6265 323.086C71.8335 323.268 71.9409 323.519 71.9487 323.839V325.298C71.9487 325.589 71.9858 325.82 72.0601 325.992V326.039H71.4917ZM70.5923 325.626C70.7622 325.626 70.9233 325.582 71.0757 325.494C71.228 325.406 71.3384 325.292 71.4067 325.151V324.501H70.9819C70.3179 324.501 69.9858 324.695 69.9858 325.084C69.9858 325.254 70.0425 325.387 70.1558 325.483C70.269 325.578 70.4146 325.626 70.5923 325.626ZM73.5337 322.102V322.869H74.1255V323.288H73.5337V325.254C73.5337 325.381 73.5601 325.477 73.6128 325.541C73.6655 325.604 73.7554 325.635 73.8823 325.635C73.9448 325.635 74.0308 325.623 74.1401 325.6V326.039C73.9976 326.078 73.8589 326.098 73.7241 326.098C73.4819 326.098 73.2993 326.025 73.1763 325.878C73.0532 325.732 72.9917 325.524 72.9917 325.254V323.288H72.4146V322.869H72.9917V322.102H73.5337ZM76.0767 326.098C75.647 326.098 75.2974 325.957 75.0278 325.676C74.7583 325.393 74.6235 325.015 74.6235 324.542V324.443C74.6235 324.128 74.6831 323.848 74.8022 323.602C74.9233 323.354 75.0913 323.16 75.3062 323.022C75.5229 322.881 75.7573 322.811 76.0093 322.811C76.4214 322.811 76.7417 322.946 76.9702 323.218C77.1987 323.489 77.313 323.878 77.313 324.384V324.609H75.1655C75.1733 324.922 75.2642 325.175 75.438 325.368C75.6138 325.56 75.8364 325.655 76.106 325.655C76.2974 325.655 76.4595 325.616 76.5923 325.538C76.7251 325.46 76.8413 325.357 76.9409 325.228L77.272 325.485C77.0063 325.894 76.6079 326.098 76.0767 326.098ZM76.0093 323.256C75.7905 323.256 75.6069 323.336 75.4585 323.496C75.3101 323.654 75.2183 323.877 75.1831 324.164H76.771V324.123C76.7554 323.848 76.6812 323.635 76.5483 323.484C76.4155 323.332 76.2358 323.256 76.0093 323.256ZM81.3882 326.039C81.3569 325.977 81.3315 325.865 81.312 325.705C81.0601 325.967 80.7593 326.098 80.4097 326.098C80.0972 326.098 79.8403 326.01 79.6392 325.834C79.4399 325.656 79.3403 325.432 79.3403 325.16C79.3403 324.83 79.4653 324.574 79.7153 324.393C79.9673 324.209 80.3208 324.117 80.7759 324.117H81.3032V323.868C81.3032 323.679 81.2466 323.528 81.1333 323.417C81.02 323.304 80.853 323.247 80.6323 323.247C80.439 323.247 80.2769 323.296 80.146 323.394C80.0151 323.491 79.9497 323.609 79.9497 323.748H79.4048C79.4048 323.59 79.4604 323.438 79.5718 323.291C79.6851 323.143 79.8374 323.026 80.0288 322.94C80.2222 322.854 80.4341 322.811 80.6646 322.811C81.0298 322.811 81.3159 322.902 81.5229 323.086C81.73 323.268 81.8374 323.519 81.8452 323.839V325.298C81.8452 325.589 81.8823 325.82 81.9565 325.992V326.039H81.3882ZM80.4888 325.626C80.6587 325.626 80.8198 325.582 80.9722 325.494C81.1245 325.406 81.2349 325.292 81.3032 325.151V324.501H80.8784C80.2144 324.501 79.8823 324.695 79.8823 325.084C79.8823 325.254 79.939 325.387 80.0522 325.483C80.1655 325.578 80.311 325.626 80.4888 325.626ZM83.2075 322.869L83.2251 323.268C83.4673 322.963 83.7837 322.811 84.1743 322.811C84.8442 322.811 85.1821 323.189 85.188 323.944V326.039H84.646V323.942C84.644 323.713 84.5913 323.544 84.4878 323.435C84.3862 323.325 84.2271 323.271 84.0103 323.271C83.8345 323.271 83.6802 323.318 83.5474 323.411C83.4146 323.505 83.311 323.628 83.2368 323.78V326.039H82.6948V322.869H83.2075ZM89.9341 324.926H88.147L87.7456 326.039H87.1655L88.7944 321.774H89.2866L90.9185 326.039H90.3413L89.9341 324.926ZM88.3169 324.463H89.7671L89.0405 322.468L88.3169 324.463ZM92.6792 325.655C92.8726 325.655 93.0415 325.597 93.186 325.48C93.3306 325.362 93.4106 325.216 93.4263 325.04H93.939C93.9292 325.222 93.8667 325.395 93.7515 325.559C93.6362 325.723 93.4819 325.854 93.2886 325.951C93.0972 326.049 92.894 326.098 92.6792 326.098C92.2476 326.098 91.9038 325.954 91.6479 325.667C91.394 325.378 91.2671 324.984 91.2671 324.484V324.393C91.2671 324.084 91.3237 323.81 91.437 323.569C91.5503 323.329 91.7124 323.143 91.9233 323.01C92.1362 322.877 92.3872 322.811 92.6763 322.811C93.0317 322.811 93.3267 322.917 93.561 323.13C93.7974 323.343 93.9233 323.619 93.939 323.959H93.4263C93.4106 323.754 93.3325 323.586 93.1919 323.455C93.0532 323.322 92.8813 323.256 92.6763 323.256C92.4009 323.256 92.187 323.356 92.0347 323.555C91.8843 323.752 91.8091 324.038 91.8091 324.413V324.516C91.8091 324.881 91.8843 325.162 92.0347 325.359C92.1851 325.557 92.3999 325.655 92.6792 325.655ZM95.8198 325.655C96.0132 325.655 96.1821 325.597 96.3267 325.48C96.4712 325.362 96.5513 325.216 96.5669 325.04H97.0796C97.0698 325.222 97.0073 325.395 96.8921 325.559C96.7769 325.723 96.6226 325.854 96.4292 325.951C96.2378 326.049 96.0347 326.098 95.8198 326.098C95.3882 326.098 95.0444 325.954 94.7886 325.667C94.5347 325.378 94.4077 324.984 94.4077 324.484V324.393C94.4077 324.084 94.4644 323.81 94.5776 323.569C94.6909 323.329 94.853 323.143 95.064 323.01C95.2769 322.877 95.5278 322.811 95.8169 322.811C96.1724 322.811 96.4673 322.917 96.7017 323.13C96.938 323.343 97.064 323.619 97.0796 323.959H96.5669C96.5513 323.754 96.4731 323.586 96.3325 323.455C96.1938 323.322 96.022 323.256 95.8169 323.256C95.5415 323.256 95.3276 323.356 95.1753 323.555C95.0249 323.752 94.9497 324.038 94.9497 324.413V324.516C94.9497 324.881 95.0249 325.162 95.1753 325.359C95.3257 325.557 95.5405 325.655 95.8198 325.655ZM97.5454 324.425C97.5454 324.114 97.606 323.835 97.7271 323.587C97.8501 323.339 98.02 323.148 98.2368 323.013C98.4556 322.878 98.7046 322.811 98.9839 322.811C99.4155 322.811 99.7642 322.96 100.03 323.259C100.297 323.558 100.431 323.955 100.431 324.451V324.489C100.431 324.798 100.372 325.075 100.252 325.321C100.135 325.566 99.9663 325.756 99.7456 325.893C99.5269 326.029 99.2749 326.098 98.9897 326.098C98.5601 326.098 98.2114 325.948 97.9438 325.65C97.6782 325.351 97.5454 324.955 97.5454 324.463V324.425ZM98.0903 324.489C98.0903 324.841 98.1714 325.123 98.3335 325.336C98.4976 325.549 98.7163 325.655 98.9897 325.655C99.2651 325.655 99.4839 325.548 99.646 325.333C99.8081 325.116 99.8892 324.814 99.8892 324.425C99.8892 324.077 99.8062 323.796 99.6401 323.581C99.4761 323.364 99.2573 323.256 98.9839 323.256C98.7163 323.256 98.5005 323.362 98.3364 323.575C98.1724 323.788 98.0903 324.093 98.0903 324.489ZM103.068 325.726C102.857 325.974 102.547 326.098 102.139 326.098C101.801 326.098 101.543 326 101.366 325.805C101.19 325.608 101.101 325.317 101.099 324.932V322.869H101.641V324.917C101.641 325.398 101.836 325.638 102.227 325.638C102.641 325.638 102.917 325.484 103.053 325.175V322.869H103.595V326.039H103.08L103.068 325.726ZM104.934 322.869L104.952 323.268C105.194 322.963 105.51 322.811 105.901 322.811C106.571 322.811 106.909 323.189 106.915 323.944V326.039H106.373V323.942C106.371 323.713 106.318 323.544 106.214 323.435C106.113 323.325 105.954 323.271 105.737 323.271C105.561 323.271 105.407 323.318 105.274 323.411C105.141 323.505 105.038 323.628 104.963 323.78V326.039H104.421V322.869H104.934ZM108.467 322.102V322.869H109.059V323.288H108.467V325.254C108.467 325.381 108.494 325.477 108.546 325.541C108.599 325.604 108.689 325.635 108.816 325.635C108.878 325.635 108.964 325.623 109.074 325.6V326.039C108.931 326.078 108.792 326.098 108.658 326.098C108.416 326.098 108.233 326.025 108.11 325.878C107.987 325.732 107.925 325.524 107.925 325.254V323.288H107.348V322.869H107.925V322.102H108.467ZM109.707 325.755C109.707 325.661 109.734 325.583 109.789 325.521C109.845 325.458 109.929 325.427 110.041 325.427C110.152 325.427 110.236 325.458 110.292 325.521C110.351 325.583 110.38 325.661 110.38 325.755C110.38 325.845 110.351 325.92 110.292 325.981C110.236 326.041 110.152 326.071 110.041 326.071C109.929 326.071 109.845 326.041 109.789 325.981C109.734 325.92 109.707 325.845 109.707 325.755Z" fill="#F7F7F7"/>
<path d="M67.7373 229.453H66.2456V231.023H65.7769V227.468H67.979V227.854H66.2456V229.07H67.7373V229.453ZM68.2964 229.678C68.2964 229.419 68.3468 229.186 68.4478 228.979C68.5503 228.773 68.6919 228.613 68.8726 228.501C69.0549 228.389 69.2624 228.333 69.4951 228.333C69.8548 228.333 70.1453 228.457 70.3667 228.706C70.5897 228.955 70.7012 229.286 70.7012 229.7V229.731C70.7012 229.989 70.6515 230.22 70.5522 230.425C70.4546 230.628 70.3138 230.787 70.1299 230.901C69.9476 231.015 69.7376 231.072 69.5 231.072C69.1419 231.072 68.8514 230.947 68.6284 230.698C68.4071 230.449 68.2964 230.12 68.2964 229.709V229.678ZM68.7505 229.731C68.7505 230.024 68.818 230.26 68.9531 230.437C69.0898 230.614 69.2721 230.703 69.5 230.703C69.7295 230.703 69.9118 230.614 70.0469 230.435C70.182 230.254 70.2495 230.002 70.2495 229.678C70.2495 229.388 70.1803 229.154 70.042 228.975C69.9053 228.794 69.723 228.704 69.4951 228.704C69.2721 228.704 69.0923 228.792 68.9556 228.97C68.8188 229.147 68.7505 229.401 68.7505 229.731ZM72.5444 228.787C72.4761 228.775 72.402 228.77 72.3223 228.77C72.026 228.77 71.825 228.896 71.7192 229.148V231.023H71.2676V228.381H71.707L71.7144 228.687C71.8625 228.451 72.0724 228.333 72.3442 228.333C72.4321 228.333 72.4989 228.344 72.5444 228.367V228.787ZM72.8057 229.68C72.8057 229.268 72.9009 228.941 73.0913 228.699C73.2817 228.455 73.534 228.333 73.8481 228.333C74.1704 228.333 74.4219 228.446 74.6025 228.674L74.6245 228.381H75.0371V230.959C75.0371 231.301 74.9354 231.571 74.7319 231.768C74.5301 231.965 74.2583 232.063 73.9165 232.063C73.7261 232.063 73.5397 232.022 73.3574 231.941C73.1751 231.86 73.036 231.748 72.9399 231.606L73.1743 231.335C73.368 231.575 73.6048 231.694 73.8848 231.694C74.1045 231.694 74.2754 231.632 74.3975 231.509C74.5212 231.385 74.583 231.211 74.583 230.986V230.759C74.4023 230.968 74.1558 231.072 73.8433 231.072C73.534 231.072 73.2834 230.947 73.0913 230.698C72.9009 230.449 72.8057 230.11 72.8057 229.68ZM73.2598 229.731C73.2598 230.029 73.3208 230.264 73.4429 230.435C73.5649 230.604 73.7358 230.688 73.9556 230.688C74.2404 230.688 74.4495 230.559 74.583 230.3V229.094C74.4447 228.842 74.2371 228.716 73.9604 228.716C73.7407 228.716 73.569 228.801 73.4453 228.972C73.3216 229.143 73.2598 229.396 73.2598 229.731ZM75.6011 229.678C75.6011 229.419 75.6515 229.186 75.7524 228.979C75.855 228.773 75.9966 228.613 76.1772 228.501C76.3595 228.389 76.5671 228.333 76.7998 228.333C77.1595 228.333 77.45 228.457 77.6714 228.706C77.8944 228.955 78.0059 229.286 78.0059 229.7V229.731C78.0059 229.989 77.9562 230.22 77.8569 230.425C77.7593 230.628 77.6185 230.787 77.4346 230.901C77.2523 231.015 77.0423 231.072 76.8047 231.072C76.4466 231.072 76.1561 230.947 75.9331 230.698C75.7118 230.449 75.6011 230.12 75.6011 229.709V229.678ZM76.0552 229.731C76.0552 230.024 76.1227 230.26 76.2578 230.437C76.3945 230.614 76.5768 230.703 76.8047 230.703C77.0342 230.703 77.2165 230.614 77.3516 230.435C77.4867 230.254 77.5542 230.002 77.5542 229.678C77.5542 229.388 77.485 229.154 77.3467 228.975C77.21 228.794 77.0277 228.704 76.7998 228.704C76.5768 228.704 76.397 228.792 76.2603 228.97C76.1235 229.147 76.0552 229.401 76.0552 229.731ZM79.1851 227.742V228.381H79.6782V228.73H79.1851V230.369C79.1851 230.474 79.207 230.554 79.251 230.608C79.2949 230.66 79.3698 230.686 79.4756 230.686C79.5277 230.686 79.5993 230.676 79.6904 230.657V231.023C79.5716 231.056 79.4561 231.072 79.3438 231.072C79.1419 231.072 78.9897 231.011 78.8872 230.889C78.7847 230.767 78.7334 230.593 78.7334 230.369V228.73H78.2524V228.381H78.7334V227.742H79.1851ZM83.6797 229.731C83.6797 230.133 83.5877 230.457 83.4038 230.703C83.2199 230.949 82.9709 231.072 82.6567 231.072C82.3361 231.072 82.0838 230.97 81.8999 230.767V232.039H81.4482V228.381H81.8608L81.8828 228.674C82.0667 228.446 82.3223 228.333 82.6494 228.333C82.9668 228.333 83.2174 228.452 83.4014 228.691C83.5869 228.931 83.6797 229.264 83.6797 229.69V229.731ZM83.228 229.68C83.228 229.382 83.1646 229.147 83.0376 228.975C82.9106 228.802 82.7365 228.716 82.5151 228.716C82.2417 228.716 82.0366 228.837 81.8999 229.08V230.342C82.035 230.583 82.2417 230.703 82.52 230.703C82.7365 230.703 82.9082 230.618 83.0352 230.447C83.1637 230.274 83.228 230.019 83.228 229.68ZM85.8867 231.023C85.8607 230.971 85.8395 230.878 85.8232 230.745C85.6133 230.963 85.3626 231.072 85.0713 231.072C84.8109 231.072 84.5968 230.999 84.4292 230.852C84.2632 230.704 84.1802 230.517 84.1802 230.291C84.1802 230.015 84.2843 229.802 84.4927 229.651C84.7026 229.498 84.9972 229.421 85.3765 229.421H85.8159V229.214C85.8159 229.056 85.7687 228.931 85.6743 228.838C85.5799 228.743 85.4408 228.696 85.2568 228.696C85.0957 228.696 84.9606 228.737 84.8516 228.818C84.7425 228.9 84.688 228.998 84.688 229.114H84.2339C84.2339 228.982 84.2803 228.855 84.373 228.733C84.4674 228.609 84.5944 228.512 84.7539 228.44C84.915 228.368 85.0916 228.333 85.2837 228.333C85.5881 228.333 85.8265 228.409 85.999 228.562C86.1715 228.713 86.2611 228.923 86.2676 229.189V230.405C86.2676 230.648 86.2985 230.841 86.3604 230.984V231.023H85.8867ZM85.1372 230.679C85.2788 230.679 85.4131 230.642 85.54 230.569C85.667 230.496 85.759 230.4 85.8159 230.283V229.741H85.4619C84.9085 229.741 84.6318 229.903 84.6318 230.227C84.6318 230.369 84.679 230.479 84.7734 230.559C84.8678 230.639 84.9891 230.679 85.1372 230.679ZM88.5137 230.322C88.5137 230.2 88.4673 230.106 88.3745 230.039C88.2834 229.971 88.123 229.912 87.8936 229.863C87.6657 229.814 87.4842 229.756 87.3491 229.688C87.2157 229.619 87.1164 229.538 87.0513 229.443C86.9878 229.349 86.9561 229.237 86.9561 229.106C86.9561 228.89 87.0472 228.707 87.2295 228.557C87.4134 228.407 87.6478 228.333 87.9326 228.333C88.2321 228.333 88.4746 228.41 88.6602 228.564C88.8473 228.719 88.9409 228.917 88.9409 229.158H88.4868C88.4868 229.034 88.4339 228.927 88.3281 228.838C88.224 228.748 88.0921 228.704 87.9326 228.704C87.7682 228.704 87.6396 228.739 87.5469 228.811C87.4541 228.883 87.4077 228.976 87.4077 229.092C87.4077 229.201 87.4508 229.283 87.5371 229.338C87.6234 229.394 87.7788 229.447 88.0034 229.497C88.2297 229.548 88.4128 229.608 88.5527 229.678C88.6927 229.748 88.7961 229.832 88.8628 229.932C88.9312 230.029 88.9653 230.149 88.9653 230.291C88.9653 230.527 88.8709 230.716 88.6821 230.859C88.4933 231.001 88.2484 231.072 87.9473 231.072C87.7357 231.072 87.5485 231.034 87.3857 230.959C87.223 230.885 87.0952 230.78 87.0024 230.647C86.9113 230.512 86.8657 230.366 86.8657 230.21H87.3174C87.3255 230.361 87.3857 230.482 87.498 230.571C87.612 230.659 87.7617 230.703 87.9473 230.703C88.1182 230.703 88.2549 230.669 88.3574 230.601C88.4616 230.531 88.5137 230.438 88.5137 230.322ZM91.0918 230.322C91.0918 230.2 91.0454 230.106 90.9526 230.039C90.8615 229.971 90.7012 229.912 90.4717 229.863C90.2438 229.814 90.0623 229.756 89.9272 229.688C89.7938 229.619 89.6945 229.538 89.6294 229.443C89.5659 229.349 89.5342 229.237 89.5342 229.106C89.5342 228.89 89.6253 228.707 89.8076 228.557C89.9915 228.407 90.2259 228.333 90.5107 228.333C90.8102 228.333 91.0527 228.41 91.2383 228.564C91.4255 228.719 91.519 228.917 91.519 229.158H91.0649C91.0649 229.034 91.012 228.927 90.9062 228.838C90.8021 228.748 90.6702 228.704 90.5107 228.704C90.3464 228.704 90.2178 228.739 90.125 228.811C90.0322 228.883 89.9858 228.976 89.9858 229.092C89.9858 229.201 90.029 229.283 90.1152 229.338C90.2015 229.394 90.3569 229.447 90.5815 229.497C90.8078 229.548 90.9909 229.608 91.1309 229.678C91.2708 229.748 91.3742 229.832 91.4409 229.932C91.5093 230.029 91.5435 230.149 91.5435 230.291C91.5435 230.527 91.4491 230.716 91.2603 230.859C91.0715 231.001 90.8265 231.072 90.5254 231.072C90.3138 231.072 90.1266 231.034 89.9639 230.959C89.8011 230.885 89.6733 230.78 89.5806 230.647C89.4894 230.512 89.4438 230.366 89.4438 230.21H89.8955C89.9036 230.361 89.9639 230.482 90.0762 230.571C90.1901 230.659 90.3398 230.703 90.5254 230.703C90.6963 230.703 90.833 230.669 90.9355 230.601C91.0397 230.531 91.0918 230.438 91.0918 230.322ZM94.4707 230.4L94.9785 228.381H95.4302L94.6611 231.023H94.2949L93.6528 229.021L93.0278 231.023H92.6616L91.895 228.381H92.3442L92.8643 230.359L93.4795 228.381H93.8433L94.4707 230.4ZM95.772 229.678C95.772 229.419 95.8224 229.186 95.9233 228.979C96.0259 228.773 96.1675 228.613 96.3481 228.501C96.5304 228.389 96.738 228.333 96.9707 228.333C97.3304 228.333 97.6209 228.457 97.8423 228.706C98.0653 228.955 98.1768 229.286 98.1768 229.7V229.731C98.1768 229.989 98.1271 230.22 98.0278 230.425C97.9302 230.628 97.7894 230.787 97.6055 230.901C97.4232 231.015 97.2132 231.072 96.9756 231.072C96.6175 231.072 96.327 230.947 96.104 230.698C95.8826 230.449 95.772 230.12 95.772 229.709V229.678ZM96.2261 229.731C96.2261 230.024 96.2936 230.26 96.4287 230.437C96.5654 230.614 96.7477 230.703 96.9756 230.703C97.2051 230.703 97.3874 230.614 97.5225 230.435C97.6576 230.254 97.7251 230.002 97.7251 229.678C97.7251 229.388 97.6559 229.154 97.5176 228.975C97.3809 228.794 97.1986 228.704 96.9707 228.704C96.7477 228.704 96.5679 228.792 96.4312 228.97C96.2944 229.147 96.2261 229.401 96.2261 229.731ZM100.02 228.787C99.9517 228.775 99.8776 228.77 99.7979 228.77C99.5016 228.77 99.3006 228.896 99.1948 229.148V231.023H98.7432V228.381H99.1826L99.1899 228.687C99.3381 228.451 99.548 228.333 99.8198 228.333C99.9077 228.333 99.9744 228.344 100.02 228.367V228.787ZM100.279 229.68C100.279 229.275 100.375 228.949 100.567 228.704C100.759 228.456 101.01 228.333 101.321 228.333C101.631 228.333 101.875 228.438 102.056 228.65V227.273H102.508V231.023H102.093L102.071 230.74C101.89 230.961 101.639 231.072 101.316 231.072C101.01 231.072 100.761 230.946 100.567 230.696C100.375 230.445 100.279 230.118 100.279 229.714V229.68ZM100.73 229.731C100.73 230.031 100.792 230.265 100.916 230.435C101.04 230.604 101.211 230.688 101.429 230.688C101.715 230.688 101.924 230.56 102.056 230.303V229.089C101.921 228.84 101.714 228.716 101.434 228.716C101.212 228.716 101.04 228.801 100.916 228.972C100.792 229.143 100.73 229.396 100.73 229.731ZM103.741 230.022C103.744 229.828 103.766 229.675 103.807 229.563C103.847 229.451 103.93 229.326 104.056 229.189L104.375 228.86C104.512 228.705 104.581 228.539 104.581 228.362C104.581 228.191 104.536 228.057 104.446 227.961C104.357 227.864 104.227 227.815 104.056 227.815C103.89 227.815 103.756 227.859 103.655 227.947C103.554 228.035 103.504 228.153 103.504 228.301H103.052C103.056 228.037 103.149 227.825 103.333 227.664C103.519 227.501 103.759 227.419 104.056 227.419C104.363 227.419 104.603 227.502 104.773 227.668C104.946 227.833 105.032 228.059 105.032 228.347C105.032 228.632 104.9 228.913 104.637 229.189L104.371 229.453C104.252 229.585 104.192 229.775 104.192 230.022H103.741ZM103.721 230.796C103.721 230.723 103.743 230.662 103.787 230.613C103.833 230.562 103.899 230.537 103.987 230.537C104.075 230.537 104.142 230.562 104.188 230.613C104.233 230.662 104.256 230.723 104.256 230.796C104.256 230.869 104.233 230.93 104.188 230.979C104.142 231.026 104.075 231.05 103.987 231.05C103.899 231.05 103.833 231.026 103.787 230.979C103.743 230.93 103.721 230.869 103.721 230.796Z" fill="#8B92A1"/>
<path d="M24.5773 162.653H23.0367V163.913H24.8263V164.296H22.568V160.741H24.8019V161.127H23.0367V162.27H24.5773V162.653ZM25.7638 161.655L25.776 161.948C25.9697 161.72 26.2309 161.606 26.5597 161.606C26.9292 161.606 27.1806 161.747 27.3141 162.031C27.402 161.904 27.5159 161.801 27.6559 161.723C27.7975 161.645 27.9643 161.606 28.1564 161.606C28.7358 161.606 29.0304 161.913 29.0402 162.526V164.296H28.5885V162.553C28.5885 162.364 28.5454 162.223 28.4591 162.131C28.3728 162.036 28.228 161.989 28.0245 161.989C27.8569 161.989 27.7177 162.039 27.6071 162.14C27.4964 162.24 27.4321 162.374 27.4142 162.543V164.296H26.9601V162.565C26.9601 162.181 26.7721 161.989 26.3961 161.989C26.0999 161.989 25.8973 162.115 25.7882 162.367V164.296H25.3365V161.655H25.7638ZM31.3546 164.296C31.3286 164.244 31.3074 164.151 31.2911 164.018C31.0812 164.236 30.8305 164.345 30.5392 164.345C30.2788 164.345 30.0647 164.272 29.8971 164.125C29.7311 163.977 29.6481 163.79 29.6481 163.564C29.6481 163.289 29.7522 163.075 29.9606 162.924C30.1705 162.771 30.4651 162.695 30.8444 162.695H31.2838V162.487C31.2838 162.329 31.2366 162.204 31.1422 162.111C31.0478 162.017 30.9087 161.969 30.7247 161.969C30.5636 161.969 30.4285 162.01 30.3195 162.092C30.2104 162.173 30.1559 162.271 30.1559 162.387H29.7018C29.7018 162.255 29.7482 162.128 29.8409 162.006C29.9353 161.882 30.0623 161.785 30.2218 161.713C30.3829 161.642 30.5595 161.606 30.7516 161.606C31.0559 161.606 31.2944 161.682 31.4669 161.835C31.6394 161.987 31.729 162.196 31.7355 162.463V163.678C31.7355 163.921 31.7664 164.114 31.8282 164.257V164.296H31.3546ZM30.6051 163.952C30.7467 163.952 30.881 163.915 31.0079 163.842C31.1349 163.769 31.2268 163.674 31.2838 163.556V163.014H30.9298C30.3764 163.014 30.0997 163.176 30.0997 163.5C30.0997 163.642 30.1469 163.753 30.2413 163.832C30.3357 163.912 30.457 163.952 30.6051 163.952ZM32.9342 164.296H32.4825V161.655H32.9342V164.296ZM32.4459 160.954C32.4459 160.881 32.4679 160.819 32.5118 160.768C32.5574 160.718 32.6241 160.693 32.712 160.693C32.7999 160.693 32.8667 160.718 32.9122 160.768C32.9578 160.819 32.9806 160.881 32.9806 160.954C32.9806 161.027 32.9578 161.088 32.9122 161.137C32.8667 161.186 32.7999 161.21 32.712 161.21C32.6241 161.21 32.5574 161.186 32.5118 161.137C32.4679 161.088 32.4459 161.027 32.4459 160.954ZM34.15 164.296H33.6984V160.546H34.15V164.296Z" fill="#8B92A1"/>
<path d="M22.16 182.31H145.02" stroke="#8B92A1" stroke-width="0.25" stroke-miterlimit="10"/>
<path d="M23.2866 171.216V175.341C23.2866 176.052 22.9642 176.408 22.3193 176.408C22.1803 176.408 22.0516 176.387 21.9331 176.346V175.84C22.006 175.859 22.1017 175.868 22.2202 175.868C22.3615 175.868 22.4686 175.829 22.5415 175.752C22.6167 175.676 22.6543 175.544 22.6543 175.355V171.216H23.2866ZM22.5894 170.235C22.5894 170.135 22.6201 170.049 22.6816 169.979C22.7454 169.906 22.8377 169.869 22.9585 169.869C23.0815 169.869 23.175 169.905 23.2388 169.975C23.3026 170.046 23.3345 170.132 23.3345 170.235C23.3345 170.338 23.3026 170.423 23.2388 170.491C23.175 170.56 23.0815 170.594 22.9585 170.594C22.8354 170.594 22.7432 170.56 22.6816 170.491C22.6201 170.423 22.5894 170.338 22.5894 170.235ZM24.1411 173.031C24.1411 172.669 24.2118 172.343 24.353 172.053C24.4966 171.764 24.6948 171.541 24.9478 171.383C25.203 171.226 25.4935 171.148 25.8193 171.148C26.3229 171.148 26.7297 171.322 27.0396 171.671C27.3517 172.019 27.5078 172.483 27.5078 173.062V173.106C27.5078 173.466 27.4383 173.79 27.2993 174.077C27.1626 174.362 26.9655 174.584 26.708 174.743C26.4528 174.903 26.1589 174.983 25.8262 174.983C25.3249 174.983 24.9181 174.808 24.606 174.46C24.2961 174.111 24.1411 173.65 24.1411 173.075V173.031ZM24.7769 173.106C24.7769 173.516 24.8714 173.845 25.0605 174.094C25.252 174.342 25.5072 174.466 25.8262 174.466C26.1475 174.466 26.4027 174.341 26.5918 174.09C26.7809 173.838 26.8755 173.484 26.8755 173.031C26.8755 172.625 26.7786 172.297 26.585 172.047C26.3936 171.794 26.1383 171.667 25.8193 171.667C25.5072 171.667 25.2554 171.791 25.064 172.04C24.8726 172.288 24.7769 172.644 24.7769 173.106ZM28.9331 171.664C29.2134 171.32 29.578 171.148 30.0269 171.148C30.8084 171.148 31.2026 171.589 31.2095 172.47V174.914H30.5771V172.467C30.5749 172.2 30.5133 172.003 30.3926 171.876C30.2741 171.748 30.0884 171.684 29.8354 171.684C29.6304 171.684 29.4504 171.739 29.2954 171.848C29.1405 171.958 29.0197 172.101 28.9331 172.279V174.914H28.3008V169.664H28.9331V171.664ZM32.7544 171.216L32.7749 171.681C33.0575 171.325 33.4266 171.148 33.8823 171.148C34.6639 171.148 35.0581 171.589 35.0649 172.47V174.914H34.4326V172.467C34.4303 172.2 34.3688 172.003 34.248 171.876C34.1296 171.748 33.9438 171.684 33.6909 171.684C33.4858 171.684 33.3058 171.739 33.1509 171.848C32.9959 171.958 32.8752 172.101 32.7886 172.279V174.914H32.1562V171.216H32.7544ZM35.8647 173.034C35.8647 172.467 35.9992 172.011 36.2681 171.667C36.5369 171.321 36.889 171.148 37.3242 171.148C37.7572 171.148 38.1001 171.296 38.353 171.592V169.664H38.9854V174.914H38.4043L38.3735 174.518C38.1206 174.828 37.7686 174.983 37.3174 174.983C36.889 174.983 36.5392 174.807 36.2681 174.456C35.9992 174.105 35.8647 173.647 35.8647 173.082V173.034ZM36.4971 173.106C36.4971 173.525 36.5837 173.853 36.7568 174.09C36.93 174.327 37.1693 174.446 37.4746 174.446C37.8757 174.446 38.1685 174.266 38.353 173.906V172.207C38.1639 171.859 37.8734 171.684 37.4814 171.684C37.1715 171.684 36.93 171.804 36.7568 172.043C36.5837 172.282 36.4971 172.637 36.4971 173.106ZM39.8022 173.031C39.8022 172.669 39.8729 172.343 40.0142 172.053C40.1577 171.764 40.356 171.541 40.6089 171.383C40.8641 171.226 41.1546 171.148 41.4805 171.148C41.984 171.148 42.3908 171.322 42.7007 171.671C43.0129 172.019 43.1689 172.483 43.1689 173.062V173.106C43.1689 173.466 43.0994 173.79 42.9604 174.077C42.8237 174.362 42.6266 174.584 42.3691 174.743C42.1139 174.903 41.82 174.983 41.4873 174.983C40.986 174.983 40.5793 174.808 40.2671 174.46C39.9572 174.111 39.8022 173.65 39.8022 173.075V173.031ZM40.438 173.106C40.438 173.516 40.5326 173.845 40.7217 174.094C40.9131 174.342 41.1683 174.466 41.4873 174.466C41.8086 174.466 42.0638 174.341 42.2529 174.09C42.4421 173.838 42.5366 173.484 42.5366 173.031C42.5366 172.625 42.4398 172.297 42.2461 172.047C42.0547 171.794 41.7995 171.667 41.4805 171.667C41.1683 171.667 40.9165 171.791 40.7251 172.04C40.5337 172.288 40.438 172.644 40.438 173.106ZM45.4966 174.983C44.9953 174.983 44.5874 174.818 44.2729 174.49C43.9585 174.16 43.8013 173.719 43.8013 173.168V173.051C43.8013 172.685 43.8708 172.358 44.0098 172.07C44.151 171.781 44.347 171.555 44.5977 171.394C44.8506 171.23 45.124 171.148 45.418 171.148C45.8988 171.148 46.2725 171.306 46.5391 171.623C46.8057 171.939 46.939 172.393 46.939 172.983V173.246H44.4336C44.4427 173.611 44.5487 173.906 44.7515 174.131C44.9565 174.355 45.2163 174.466 45.5308 174.466C45.7541 174.466 45.9432 174.421 46.0981 174.33C46.2531 174.239 46.3887 174.118 46.5049 173.967L46.8911 174.268C46.5812 174.744 46.1164 174.983 45.4966 174.983ZM45.418 171.667C45.1628 171.667 44.9486 171.761 44.7754 171.947C44.6022 172.132 44.4951 172.392 44.4541 172.727H46.3066V172.679C46.2884 172.358 46.2018 172.109 46.0469 171.934C45.8919 171.756 45.6823 171.667 45.418 171.667ZM53.1357 173.198C53.1084 173.75 52.9717 174.185 52.7256 174.504C52.4795 174.823 52.1502 174.983 51.7378 174.983C51.3117 174.983 51.0382 174.791 50.9175 174.408C50.7944 174.602 50.6532 174.747 50.4937 174.842C50.3364 174.936 50.1735 174.983 50.0049 174.983C49.6813 174.983 49.4364 174.85 49.27 174.586C49.1037 174.322 49.0422 173.956 49.0854 173.489C49.1196 173.113 49.2051 172.778 49.3418 172.484C49.4808 172.188 49.6585 171.955 49.875 171.787C50.0938 171.618 50.3228 171.534 50.562 171.534C50.7466 171.534 50.9118 171.559 51.0576 171.609C51.2035 171.657 51.3675 171.753 51.5498 171.896L51.3721 173.79C51.3288 174.316 51.4746 174.579 51.8096 174.579C52.0671 174.579 52.2756 174.452 52.4351 174.196C52.5946 173.941 52.6812 173.609 52.6948 173.198C52.7381 172.312 52.5729 171.636 52.1992 171.172C51.8278 170.707 51.2616 170.474 50.5005 170.474C50.0425 170.474 49.6357 170.588 49.2803 170.816C48.9248 171.042 48.6445 171.369 48.4395 171.797C48.2344 172.225 48.1193 172.72 48.0942 173.28C48.0669 173.845 48.1353 174.337 48.2993 174.754C48.4634 175.168 48.7129 175.485 49.0479 175.704C49.3851 175.925 49.7918 176.035 50.2681 176.035C50.4731 176.035 50.6782 176.01 50.8833 175.96C51.0907 175.91 51.2627 175.845 51.3994 175.765L51.5259 176.158C51.3846 176.247 51.1966 176.32 50.9619 176.377C50.7295 176.434 50.4937 176.463 50.2544 176.463C49.6847 176.463 49.1948 176.334 48.7847 176.076C48.3745 175.821 48.0669 175.452 47.8618 174.969C47.659 174.488 47.5713 173.925 47.5986 173.28C47.626 172.654 47.7661 172.091 48.019 171.592C48.272 171.091 48.6149 170.704 49.0479 170.433C49.4808 170.16 49.9696 170.023 50.5142 170.023C51.0815 170.023 51.568 170.151 51.9736 170.406C52.3792 170.661 52.6812 171.029 52.8794 171.51C53.0776 171.991 53.1631 172.554 53.1357 173.198ZM49.6289 173.489C49.597 173.812 49.6266 174.061 49.7178 174.234C49.8112 174.407 49.9582 174.494 50.1587 174.494C50.2954 174.494 50.4264 174.436 50.5518 174.319C50.6794 174.203 50.7842 174.037 50.8662 173.82L50.8696 173.79L51.0269 172.07C50.8993 172.004 50.7625 171.971 50.6167 171.971C50.3501 171.971 50.1291 172.107 49.9536 172.378C49.7804 172.649 49.6722 173.019 49.6289 173.489ZM53.8125 173.034C53.8125 172.458 53.9458 172 54.2124 171.66C54.479 171.318 54.8322 171.148 55.272 171.148C55.7231 171.148 56.0752 171.307 56.3281 171.626L56.3589 171.216H56.9365V174.825C56.9365 175.304 56.7941 175.681 56.5093 175.957C56.2267 176.232 55.8462 176.37 55.3677 176.37C55.1011 176.37 54.8402 176.313 54.585 176.199C54.3298 176.085 54.1349 175.929 54.0005 175.731L54.3286 175.352C54.5998 175.687 54.9313 175.854 55.3232 175.854C55.6309 175.854 55.8701 175.768 56.041 175.594C56.2142 175.421 56.3008 175.177 56.3008 174.863V174.545C56.0479 174.837 55.7026 174.983 55.2651 174.983C54.8322 174.983 54.4813 174.808 54.2124 174.46C53.9458 174.111 53.8125 173.636 53.8125 173.034ZM54.4482 173.106C54.4482 173.523 54.5337 173.851 54.7046 174.09C54.8755 174.327 55.1147 174.446 55.4224 174.446C55.8211 174.446 56.1139 174.265 56.3008 173.902V172.214C56.1071 171.861 55.8166 171.684 55.4292 171.684C55.1216 171.684 54.8812 171.804 54.708 172.043C54.5348 172.282 54.4482 172.637 54.4482 173.106ZM58.4883 171.216L58.5054 171.626C58.7765 171.307 59.1423 171.148 59.6025 171.148C60.1198 171.148 60.4718 171.346 60.6587 171.742C60.7817 171.565 60.9412 171.421 61.1372 171.312C61.3354 171.202 61.569 171.148 61.8379 171.148C62.6491 171.148 63.0615 171.577 63.0752 172.436V174.914H62.4429V172.474C62.4429 172.209 62.3825 172.012 62.2617 171.882C62.141 171.75 61.9382 171.684 61.6533 171.684C61.4186 171.684 61.2238 171.755 61.0688 171.896C60.9139 172.035 60.8239 172.223 60.7988 172.46V174.914H60.1631V172.491C60.1631 171.953 59.8999 171.684 59.3735 171.684C58.9588 171.684 58.6751 171.861 58.5225 172.214V174.914H57.8901V171.216H58.4883ZM66.3154 174.914C66.279 174.841 66.2493 174.711 66.2266 174.525C65.9326 174.83 65.5817 174.983 65.1738 174.983C64.8092 174.983 64.5096 174.88 64.2749 174.675C64.0425 174.468 63.9263 174.206 63.9263 173.889C63.9263 173.504 64.0721 173.205 64.3638 172.993C64.6577 172.779 65.0701 172.672 65.6011 172.672H66.2163V172.381C66.2163 172.16 66.1502 171.985 66.0181 171.855C65.8859 171.723 65.6911 171.657 65.4336 171.657C65.208 171.657 65.0189 171.714 64.8662 171.828C64.7135 171.942 64.6372 172.08 64.6372 172.241H64.0015C64.0015 172.057 64.0664 171.879 64.1963 171.708C64.3285 171.535 64.5062 171.398 64.7295 171.298C64.9551 171.198 65.2023 171.148 65.4712 171.148C65.8973 171.148 66.2311 171.255 66.4727 171.469C66.7142 171.681 66.8395 171.974 66.8486 172.347V174.049C66.8486 174.389 66.8919 174.659 66.9785 174.859V174.914H66.3154ZM65.2661 174.432C65.4644 174.432 65.6523 174.381 65.8301 174.278C66.0078 174.176 66.1366 174.043 66.2163 173.879V173.12H65.7207C64.946 173.12 64.5586 173.346 64.5586 173.8C64.5586 173.998 64.6247 174.153 64.7568 174.265C64.889 174.376 65.0588 174.432 65.2661 174.432ZM68.5269 174.914H67.8945V171.216H68.5269V174.914ZM67.8433 170.235C67.8433 170.132 67.874 170.046 67.9355 169.975C67.9993 169.905 68.0928 169.869 68.2158 169.869C68.3389 169.869 68.4323 169.905 68.4961 169.975C68.5599 170.046 68.5918 170.132 68.5918 170.235C68.5918 170.338 68.5599 170.423 68.4961 170.491C68.4323 170.56 68.3389 170.594 68.2158 170.594C68.0928 170.594 67.9993 170.56 67.9355 170.491C67.874 170.423 67.8433 170.338 67.8433 170.235ZM70.229 174.914H69.5967V169.664H70.229V174.914ZM71.2578 174.583C71.2578 174.473 71.2897 174.382 71.3535 174.309C71.4196 174.236 71.5176 174.2 71.6475 174.2C71.7773 174.2 71.8753 174.236 71.9414 174.309C72.0098 174.382 72.0439 174.473 72.0439 174.583C72.0439 174.687 72.0098 174.775 71.9414 174.846C71.8753 174.916 71.7773 174.952 71.6475 174.952C71.5176 174.952 71.4196 174.916 71.3535 174.846C71.2897 174.775 71.2578 174.687 71.2578 174.583ZM74.5732 174.466C74.7988 174.466 74.9959 174.398 75.1646 174.261C75.3332 174.125 75.4266 173.954 75.4448 173.749H76.043C76.0316 173.961 75.9587 174.162 75.8242 174.354C75.6898 174.545 75.5098 174.698 75.2842 174.812C75.0609 174.926 74.8239 174.983 74.5732 174.983C74.0697 174.983 73.6686 174.815 73.3701 174.48C73.0739 174.143 72.9258 173.683 72.9258 173.099V172.993C72.9258 172.633 72.9919 172.313 73.124 172.033C73.2562 171.753 73.4453 171.535 73.6914 171.38C73.9398 171.225 74.2326 171.148 74.5698 171.148C74.9845 171.148 75.3286 171.272 75.6021 171.52C75.8778 171.769 76.0247 172.091 76.043 172.487H75.4448C75.4266 172.248 75.3354 172.052 75.1714 171.9C75.0096 171.745 74.8091 171.667 74.5698 171.667C74.2485 171.667 73.999 171.783 73.8213 172.016C73.6458 172.246 73.5581 172.58 73.5581 173.017V173.137C73.5581 173.563 73.6458 173.891 73.8213 174.121C73.9967 174.351 74.2474 174.466 74.5732 174.466ZM76.5864 173.031C76.5864 172.669 76.6571 172.343 76.7983 172.053C76.9419 171.764 77.1401 171.541 77.3931 171.383C77.6483 171.226 77.9388 171.148 78.2646 171.148C78.7682 171.148 79.175 171.322 79.4849 171.671C79.797 172.019 79.9531 172.483 79.9531 173.062V173.106C79.9531 173.466 79.8836 173.79 79.7446 174.077C79.6079 174.362 79.4108 174.584 79.1533 174.743C78.8981 174.903 78.6042 174.983 78.2715 174.983C77.7702 174.983 77.3634 174.808 77.0513 174.46C76.7414 174.111 76.5864 173.65 76.5864 173.075V173.031ZM77.2222 173.106C77.2222 173.516 77.3167 173.845 77.5059 174.094C77.6973 174.342 77.9525 174.466 78.2715 174.466C78.5928 174.466 78.848 174.341 79.0371 174.09C79.2262 173.838 79.3208 173.484 79.3208 173.031C79.3208 172.625 79.224 172.297 79.0303 172.047C78.8389 171.794 78.5837 171.667 78.2646 171.667C77.9525 171.667 77.7007 171.791 77.5093 172.04C77.3179 172.288 77.2222 172.644 77.2222 173.106ZM81.3408 171.216L81.3579 171.626C81.6291 171.307 81.9948 171.148 82.4551 171.148C82.9723 171.148 83.3244 171.346 83.5112 171.742C83.6343 171.565 83.7938 171.421 83.9897 171.312C84.188 171.202 84.4215 171.148 84.6904 171.148C85.5016 171.148 85.9141 171.577 85.9277 172.436V174.914H85.2954V172.474C85.2954 172.209 85.235 172.012 85.1143 171.882C84.9935 171.75 84.7907 171.684 84.5059 171.684C84.2712 171.684 84.0763 171.755 83.9214 171.896C83.7664 172.035 83.6764 172.223 83.6514 172.46V174.914H83.0156V172.491C83.0156 171.953 82.7524 171.684 82.2261 171.684C81.8114 171.684 81.5277 171.861 81.375 172.214V174.914H80.7427V171.216H81.3408Z" fill="#F7F7F7"/>
<path d="M23.0366 199.926V201.318H22.5679V197.763H23.8789C24.2679 197.763 24.5723 197.862 24.792 198.061C25.0133 198.259 25.124 198.522 25.124 198.849C25.124 199.194 25.0158 199.461 24.7993 199.648C24.5845 199.833 24.276 199.926 23.874 199.926H23.0366ZM23.0366 199.543H23.8789C24.1296 199.543 24.3216 199.484 24.4551 199.367C24.5885 199.248 24.6553 199.077 24.6553 198.854C24.6553 198.643 24.5885 198.473 24.4551 198.346C24.3216 198.219 24.1385 198.154 23.9058 198.149H23.0366V199.543ZM27.2529 201.318C27.2269 201.266 27.2057 201.173 27.1895 201.039C26.9795 201.257 26.7288 201.366 26.4375 201.366C26.1771 201.366 25.9631 201.293 25.7954 201.147C25.6294 200.999 25.5464 200.811 25.5464 200.585C25.5464 200.31 25.6506 200.097 25.8589 199.946C26.0688 199.793 26.3634 199.716 26.7427 199.716H27.1821V199.509C27.1821 199.351 27.1349 199.225 27.0405 199.133C26.9461 199.038 26.807 198.991 26.623 198.991C26.4619 198.991 26.3268 199.032 26.2178 199.113C26.1087 199.194 26.0542 199.293 26.0542 199.408H25.6001C25.6001 199.277 25.6465 199.15 25.7393 199.028C25.8337 198.904 25.9606 198.806 26.1201 198.735C26.2812 198.663 26.4578 198.627 26.6499 198.627C26.9543 198.627 27.1927 198.704 27.3652 198.857C27.5378 199.008 27.6273 199.217 27.6338 199.484V200.7C27.6338 200.942 27.6647 201.135 27.7266 201.279V201.318H27.2529ZM26.5034 200.973C26.645 200.973 26.7793 200.937 26.9062 200.864C27.0332 200.79 27.1252 200.695 27.1821 200.578V200.036H26.8281C26.2747 200.036 25.998 200.198 25.998 200.522C25.998 200.663 26.0452 200.774 26.1396 200.854C26.234 200.934 26.3553 200.973 26.5034 200.973ZM29.8799 200.617C29.8799 200.495 29.8335 200.4 29.7407 200.334C29.6496 200.265 29.4893 200.207 29.2598 200.158C29.0319 200.109 28.8504 200.051 28.7153 199.982C28.5819 199.914 28.4826 199.832 28.4175 199.738C28.354 199.644 28.3223 199.531 28.3223 199.401C28.3223 199.185 28.4134 199.002 28.5957 198.852C28.7796 198.702 29.014 198.627 29.2988 198.627C29.5983 198.627 29.8408 198.705 30.0264 198.859C30.2135 199.014 30.3071 199.212 30.3071 199.452H29.853C29.853 199.329 29.8001 199.222 29.6943 199.133C29.5902 199.043 29.4583 198.998 29.2988 198.998C29.1344 198.998 29.0059 199.034 28.9131 199.106C28.8203 199.177 28.7739 199.271 28.7739 199.386C28.7739 199.496 28.8171 199.578 28.9033 199.633C28.9896 199.688 29.145 199.741 29.3696 199.792C29.5959 199.842 29.779 199.902 29.9189 199.972C30.0589 200.042 30.1623 200.127 30.229 200.226C30.2974 200.324 30.3315 200.444 30.3315 200.585C30.3315 200.821 30.2371 201.011 30.0483 201.154C29.8595 201.296 29.6146 201.366 29.3135 201.366C29.1019 201.366 28.9147 201.329 28.752 201.254C28.5892 201.179 28.4614 201.075 28.3687 200.942C28.2775 200.807 28.2319 200.661 28.2319 200.505H28.6836C28.6917 200.656 28.752 200.776 28.8643 200.866C28.9782 200.954 29.1279 200.998 29.3135 200.998C29.4844 200.998 29.6211 200.964 29.7236 200.895C29.8278 200.825 29.8799 200.733 29.8799 200.617ZM32.458 200.617C32.458 200.495 32.4116 200.4 32.3188 200.334C32.2277 200.265 32.0674 200.207 31.8379 200.158C31.61 200.109 31.4285 200.051 31.2935 199.982C31.16 199.914 31.0607 199.832 30.9956 199.738C30.9321 199.644 30.9004 199.531 30.9004 199.401C30.9004 199.185 30.9915 199.002 31.1738 198.852C31.3577 198.702 31.5921 198.627 31.877 198.627C32.1764 198.627 32.4189 198.705 32.6045 198.859C32.7917 199.014 32.8853 199.212 32.8853 199.452H32.4312C32.4312 199.329 32.3783 199.222 32.2725 199.133C32.1683 199.043 32.0365 198.998 31.877 198.998C31.7126 198.998 31.584 199.034 31.4912 199.106C31.3984 199.177 31.3521 199.271 31.3521 199.386C31.3521 199.496 31.3952 199.578 31.4814 199.633C31.5677 199.688 31.7231 199.741 31.9478 199.792C32.174 199.842 32.3571 199.902 32.4971 199.972C32.637 200.042 32.7404 200.127 32.8071 200.226C32.8755 200.324 32.9097 200.444 32.9097 200.585C32.9097 200.821 32.8153 201.011 32.6265 201.154C32.4377 201.296 32.1927 201.366 31.8916 201.366C31.68 201.366 31.4928 201.329 31.3301 201.254C31.1673 201.179 31.0396 201.075 30.9468 200.942C30.8556 200.807 30.8101 200.661 30.8101 200.505H31.2617C31.2699 200.656 31.3301 200.776 31.4424 200.866C31.5563 200.954 31.7061 200.998 31.8916 200.998C32.0625 200.998 32.1992 200.964 32.3018 200.895C32.4059 200.825 32.458 200.733 32.458 200.617ZM35.8369 200.695L36.3447 198.676H36.7964L36.0273 201.318H35.6611L35.019 199.316L34.394 201.318H34.0278L33.2612 198.676H33.7104L34.2305 200.654L34.8457 198.676H35.2095L35.8369 200.695ZM37.1382 199.972C37.1382 199.714 37.1886 199.481 37.2896 199.274C37.3921 199.067 37.5337 198.908 37.7144 198.796C37.8966 198.683 38.1042 198.627 38.3369 198.627C38.6966 198.627 38.9871 198.752 39.2085 199.001C39.4315 199.25 39.543 199.581 39.543 199.994V200.026C39.543 200.283 39.4933 200.514 39.394 200.719C39.2964 200.923 39.1556 201.082 38.9717 201.196C38.7894 201.309 38.5794 201.366 38.3418 201.366C37.9837 201.366 37.6932 201.242 37.4702 200.993C37.2489 200.744 37.1382 200.414 37.1382 200.004V199.972ZM37.5923 200.026C37.5923 200.319 37.6598 200.554 37.7949 200.732C37.9316 200.909 38.1139 200.998 38.3418 200.998C38.5713 200.998 38.7536 200.908 38.8887 200.729C39.0238 200.549 39.0913 200.296 39.0913 199.972C39.0913 199.683 39.0221 199.448 38.8838 199.269C38.7471 199.089 38.5648 198.998 38.3369 198.998C38.1139 198.998 37.9341 199.087 37.7974 199.264C37.6606 199.442 37.5923 199.696 37.5923 200.026ZM41.3862 199.081C41.3179 199.07 41.2438 199.064 41.1641 199.064C40.8678 199.064 40.6668 199.19 40.561 199.443V201.318H40.1094V198.676H40.5488L40.5562 198.981C40.7043 198.745 40.9142 198.627 41.186 198.627C41.2739 198.627 41.3407 198.639 41.3862 198.661V199.081ZM41.645 199.975C41.645 199.57 41.741 199.244 41.9331 198.998C42.1252 198.751 42.3766 198.627 42.6875 198.627C42.9967 198.627 43.2417 198.733 43.4224 198.945V197.568H43.874V201.318H43.459L43.437 201.034C43.2563 201.256 43.0049 201.366 42.6826 201.366C42.3766 201.366 42.1268 201.241 41.9331 200.99C41.741 200.74 41.645 200.413 41.645 200.009V199.975ZM42.0967 200.026C42.0967 200.326 42.1585 200.56 42.2822 200.729C42.4059 200.899 42.5768 200.983 42.7949 200.983C43.0814 200.983 43.2905 200.855 43.4224 200.597V199.384C43.2873 199.135 43.0798 199.01 42.7998 199.01C42.5785 199.01 42.4059 199.096 42.2822 199.267C42.1585 199.438 42.0967 199.691 42.0967 200.026Z" fill="#8B92A1"/>
<path d="M22.16 219.33H145.02" stroke="#8B92A1" stroke-width="0.25" stroke-miterlimit="10"/>
<path d="M24.9 212.13C24.9 212.77 24.38 213.29 23.74 213.29C23.1 213.29 22.58 212.77 22.58 212.13C22.58 211.49 23.1 210.97 23.74 210.97C24.38 210.97 24.9 211.49 24.9 212.13Z" fill="#F7F7F7"/>
<path d="M29.69 212.13C29.69 212.77 29.17 213.29 28.53 213.29C27.89 213.29 27.37 212.77 27.37 212.13C27.37 211.49 27.89 210.97 28.53 210.97C29.17 210.97 29.69 211.49 29.69 212.13Z" fill="#F7F7F7"/>
<path d="M34.4799 212.13C34.4799 212.77 33.9599 213.29 33.3199 213.29C32.6799 213.29 32.1599 212.77 32.1599 212.13C32.1599 211.49 32.6799 210.97 33.3199 210.97C33.9599 210.97 34.4799 211.49 34.4799 212.13Z" fill="#F7F7F7"/>
<path d="M39.2599 212.13C39.2599 212.77 38.7399 213.29 38.0999 213.29C37.4599 213.29 36.9399 212.77 36.9399 212.13C36.9399 211.49 37.4599 210.97 38.0999 210.97C38.7399 210.97 39.2599 211.49 39.2599 212.13Z" fill="#F7F7F7"/>
<path d="M44.05 212.13C44.05 212.77 43.53 213.29 42.89 213.29C42.25 213.29 41.73 212.77 41.73 212.13C41.73 211.49 42.25 210.97 42.89 210.97C43.53 210.97 44.05 211.49 44.05 212.13Z" fill="#F7F7F7"/>
<path d="M48.84 212.13C48.84 212.77 48.32 213.29 47.68 213.29C47.04 213.29 46.52 212.77 46.52 212.13C46.52 211.49 47.04 210.97 47.68 210.97C48.32 210.97 48.84 211.49 48.84 212.13Z" fill="#F7F7F7"/>
<path d="M53.6301 212.13C53.6301 212.77 53.1101 213.29 52.4701 213.29C51.8301 213.29 51.3101 212.77 51.3101 212.13C51.3101 211.49 51.8301 210.97 52.4701 210.97C53.1101 210.97 53.6301 211.49 53.6301 212.13Z" fill="#F7F7F7"/>
<path d="M111.62 272.05H54.78C49.12 272.05 44.53 267.46 44.53 261.8C44.53 256.14 49.12 251.55 54.78 251.55H111.62C117.28 251.55 121.87 256.14 121.87 261.8C121.87 267.46 117.28 272.05 111.62 272.05Z" fill="url(#paint1_linear)"/>
<path d="M74.6426 263.635H77.1694V264.21H73.9358V258.878H74.6426V263.635ZM77.6858 262.192C77.6858 261.804 77.7615 261.455 77.9128 261.145C78.0667 260.835 78.2791 260.595 78.55 260.427C78.8235 260.259 79.1348 260.174 79.4839 260.174C80.0234 260.174 80.4592 260.361 80.7913 260.735C81.1257 261.108 81.293 261.605 81.293 262.225V262.273C81.293 262.658 81.2185 263.005 81.0696 263.313C80.9231 263.618 80.7119 263.856 80.436 264.027C80.1626 264.198 79.8477 264.283 79.4912 264.283C78.9541 264.283 78.5183 264.096 78.1838 263.723C77.8518 263.349 77.6858 262.855 77.6858 262.24V262.192ZM78.3669 262.273C78.3669 262.712 78.4683 263.065 78.6709 263.331C78.876 263.597 79.1494 263.73 79.4912 263.73C79.8354 263.73 80.1089 263.596 80.3115 263.327C80.5142 263.056 80.6155 262.678 80.6155 262.192C80.6155 261.758 80.5117 261.406 80.3042 261.137C80.0991 260.866 79.8257 260.731 79.4839 260.731C79.1494 260.731 78.8796 260.864 78.6746 261.13C78.4695 261.396 78.3669 261.777 78.3669 262.273ZM81.9814 262.196C81.9814 261.578 82.1243 261.087 82.4099 260.724C82.6956 260.357 83.074 260.174 83.5452 260.174C84.0286 260.174 84.4058 260.345 84.6768 260.687L84.7097 260.248H85.3286V264.115C85.3286 264.627 85.176 265.031 84.8708 265.327C84.5681 265.622 84.1604 265.77 83.6477 265.77C83.3621 265.77 83.0825 265.709 82.8091 265.587C82.5356 265.465 82.3269 265.298 82.1829 265.085L82.5344 264.679C82.825 265.038 83.1802 265.217 83.6001 265.217C83.9297 265.217 84.186 265.124 84.3691 264.939C84.5547 264.753 84.6475 264.492 84.6475 264.155V263.814C84.3765 264.127 84.0066 264.283 83.5378 264.283C83.074 264.283 82.698 264.096 82.4099 263.723C82.1243 263.349 81.9814 262.84 81.9814 262.196ZM82.6626 262.273C82.6626 262.719 82.7542 263.071 82.9373 263.327C83.1204 263.581 83.3767 263.708 83.7063 263.708C84.1335 263.708 84.4473 263.514 84.6475 263.126V261.317C84.4399 260.938 84.1287 260.749 83.7136 260.749C83.384 260.749 83.1265 260.877 82.9409 261.134C82.7554 261.39 82.6626 261.77 82.6626 262.273ZM89.075 264.21H88.3718V258.878H89.075V264.21ZM90.8987 260.248L90.9207 260.746C91.2234 260.365 91.6189 260.174 92.1072 260.174C92.9446 260.174 93.3669 260.647 93.3743 261.592V264.21H92.6968V261.588C92.6943 261.302 92.6284 261.091 92.499 260.954C92.3721 260.818 92.1731 260.749 91.9021 260.749C91.6824 260.749 91.4895 260.808 91.3235 260.925C91.1575 261.042 91.0281 261.196 90.9353 261.386V264.21H90.2578V260.248H90.8987Z" fill="white"/>
<path d="M91.7813 101.661C102.767 98.8969 109.431 87.751 106.667 76.7657C103.904 65.7805 92.7577 59.1157 81.7724 61.8796C70.7872 64.6435 64.1224 75.7894 66.8863 86.7746C69.6502 97.7599 80.7961 104.425 91.7813 101.661Z" stroke="#F7F7F7" stroke-miterlimit="10" stroke-linecap="round" stroke-linejoin="round"/>
<path d="M86.7702 96.5999C78.5902 96.5999 71.9402 89.9499 71.9402 81.7699C71.9402 73.5899 78.5902 66.9399 86.7702 66.9399C94.9502 66.9399 101.6 73.5899 101.6 81.7699C101.6 89.9499 94.9502 96.5999 86.7702 96.5999Z" stroke="#F7F7F7" stroke-miterlimit="10" stroke-linecap="round" stroke-linejoin="round"/>
<path d="M86.7701 90.92C81.7301 90.92 77.6201 86.82 77.6201 81.77C77.6201 76.72 81.7201 72.62 86.7701 72.62C91.8101 72.62 95.9201 76.72 95.9201 81.77C95.9201 86.82 91.8101 90.92 86.7701 90.92Z" stroke="#F7F7F7" stroke-miterlimit="10" stroke-linecap="round" stroke-linejoin="round"/>
<path d="M86.7701 85.2299C84.8601 85.2299 83.3101 83.6799 83.3101 81.7699C83.3101 79.8599 84.8601 78.3099 86.7701 78.3099C88.6801 78.3099 90.2301 79.8599 90.2301 81.7699C90.2301 83.6799 88.6801 85.2299 86.7701 85.2299Z" stroke="#F7F7F7" stroke-miterlimit="10" stroke-linecap="round" stroke-linejoin="round"/>
<path d="M86.77 81.7699L107.24 61.2999" stroke="#F7F7F7" stroke-miterlimit="10" stroke-linecap="round" stroke-linejoin="round"/>
<path d="M111.39 61.2999H107.24V57.1499" stroke="#F7F7F7" stroke-miterlimit="10" stroke-linecap="round" stroke-linejoin="round"/>
<path d="M109.31 63.3699H105.16V59.2299" stroke="#F7F7F7" stroke-miterlimit="10" stroke-linecap="round" stroke-linejoin="round"/>
<path d="M64.0785 114.402L64.1132 115.236C64.6643 114.588 65.4075 114.264 66.3429 114.264C67.3941 114.264 68.1095 114.666 68.4893 115.472C68.7393 115.111 69.0635 114.819 69.4617 114.597C69.8646 114.375 70.3392 114.264 70.8856 114.264C72.5342 114.264 73.3723 115.136 73.4001 116.882V121.918H72.1151V116.959C72.1151 116.421 71.9924 116.021 71.747 115.757C71.5015 115.488 71.0894 115.354 70.5106 115.354C70.0336 115.354 69.6377 115.498 69.3228 115.785C69.0079 116.067 68.825 116.449 68.774 116.931V121.918H67.4821V116.993C67.4821 115.901 66.9472 115.354 65.8775 115.354C65.0348 115.354 64.4582 115.713 64.148 116.431V121.918H62.863V114.402H64.0785ZM77.8039 120.036L79.5543 114.402H80.9296L77.9081 123.078C77.4404 124.328 76.6972 124.954 75.6784 124.954L75.4353 124.933L74.956 124.842V123.8L75.3033 123.828C75.7386 123.828 76.0767 123.74 76.3175 123.564C76.5629 123.388 76.7643 123.067 76.9218 122.599L77.2065 121.835L74.5254 114.402H75.9285L77.8039 120.036ZM81.6798 118.098C81.6798 116.926 81.9507 115.995 82.4925 115.305C83.0343 114.611 83.752 114.264 84.6458 114.264C85.5626 114.264 86.2781 114.588 86.7921 115.236L86.8546 114.402H88.0285V121.737C88.0285 122.71 87.7391 123.476 87.1602 124.037C86.586 124.597 85.8127 124.877 84.8402 124.877C84.2985 124.877 83.7682 124.761 83.2496 124.53C82.731 124.298 82.335 123.981 82.0618 123.578L82.7287 122.807C83.2797 123.488 83.9535 123.828 84.7499 123.828C85.3751 123.828 85.8613 123.652 86.2086 123.3C86.5606 122.948 86.7365 122.453 86.7365 121.814V121.168C86.2225 121.761 85.521 122.057 84.6319 122.057C83.752 122.057 83.0389 121.703 82.4925 120.994C81.9507 120.286 81.6798 119.32 81.6798 118.098ZM82.9718 118.244C82.9718 119.091 83.1454 119.758 83.4927 120.244C83.84 120.726 84.3262 120.966 84.9514 120.966C85.7618 120.966 86.3568 120.598 86.7365 119.862V116.431C86.3429 115.713 85.7525 115.354 84.9653 115.354C84.3401 115.354 83.8516 115.597 83.4997 116.083C83.1477 116.57 82.9718 117.29 82.9718 118.244ZM89.633 118.091C89.633 117.355 89.7766 116.692 90.0637 116.104C90.3554 115.516 90.7583 115.062 91.2723 114.743C91.7909 114.423 92.3813 114.264 93.0435 114.264C94.0669 114.264 94.8935 114.618 95.5233 115.326C96.1577 116.035 96.4749 116.977 96.4749 118.153V118.244C96.4749 118.975 96.3336 119.633 96.0512 120.216C95.7733 120.795 95.3728 121.247 94.8495 121.571C94.3309 121.895 93.7335 122.057 93.0574 122.057C92.0387 122.057 91.2121 121.703 90.5777 120.994C89.9479 120.286 89.633 119.348 89.633 118.181V118.091ZM90.925 118.244C90.925 119.077 91.1172 119.746 91.5015 120.251C91.8905 120.756 92.4091 121.008 93.0574 121.008C93.7103 121.008 94.229 120.753 94.6133 120.244C94.9977 119.73 95.1899 119.012 95.1899 118.091C95.1899 117.267 94.9931 116.6 94.5994 116.09C94.2105 115.576 93.6918 115.319 93.0435 115.319C92.4091 115.319 91.8974 115.572 91.5085 116.076C91.1195 116.581 90.925 117.304 90.925 118.244ZM102.726 121.918C102.652 121.77 102.592 121.506 102.546 121.126C101.948 121.747 101.235 122.057 100.406 122.057C99.6654 122.057 99.0565 121.849 98.5795 121.432C98.1072 121.01 97.871 120.478 97.871 119.834C97.871 119.052 98.1674 118.445 98.7601 118.014C99.3575 117.579 100.196 117.361 101.275 117.361H102.525V116.771C102.525 116.322 102.391 115.965 102.122 115.701C101.853 115.433 101.458 115.299 100.934 115.299C100.476 115.299 100.091 115.414 99.7812 115.646C99.4709 115.877 99.3158 116.158 99.3158 116.486H98.0238C98.0238 116.111 98.1558 115.75 98.4198 115.403C98.6883 115.051 99.0495 114.773 99.5034 114.569C99.9618 114.365 100.464 114.264 101.011 114.264C101.877 114.264 102.555 114.481 103.046 114.916C103.537 115.347 103.791 115.942 103.81 116.702V120.161C103.81 120.851 103.898 121.399 104.074 121.807V121.918H102.726ZM100.594 120.939C100.997 120.939 101.379 120.835 101.74 120.626C102.101 120.418 102.363 120.147 102.525 119.813V118.271H101.518C99.9433 118.271 99.156 118.732 99.156 119.654C99.156 120.057 99.2903 120.371 99.5589 120.598C99.8275 120.825 100.172 120.939 100.594 120.939ZM107.22 121.918H105.935V111.249H107.22V121.918ZM113.659 119.925C113.659 119.577 113.527 119.309 113.263 119.119C113.004 118.924 112.548 118.758 111.895 118.619C111.247 118.48 110.73 118.313 110.346 118.119C109.966 117.924 109.684 117.693 109.499 117.424C109.318 117.155 109.228 116.836 109.228 116.465C109.228 115.85 109.487 115.329 110.006 114.903C110.529 114.477 111.196 114.264 112.006 114.264C112.858 114.264 113.548 114.484 114.076 114.923C114.609 115.363 114.875 115.926 114.875 116.611H113.583C113.583 116.259 113.432 115.956 113.131 115.701C112.835 115.447 112.46 115.319 112.006 115.319C111.539 115.319 111.173 115.421 110.909 115.625C110.645 115.829 110.513 116.095 110.513 116.424C110.513 116.734 110.636 116.968 110.881 117.125C111.126 117.283 111.569 117.433 112.208 117.577C112.851 117.72 113.372 117.892 113.771 118.091C114.169 118.29 114.463 118.531 114.653 118.813C114.847 119.091 114.944 119.431 114.944 119.834C114.944 120.506 114.676 121.045 114.139 121.453C113.602 121.856 112.905 122.057 112.048 122.057C111.446 122.057 110.913 121.951 110.45 121.737C109.987 121.524 109.624 121.228 109.36 120.848C109.1 120.464 108.971 120.05 108.971 119.605H110.256C110.279 120.036 110.45 120.378 110.77 120.633C111.094 120.883 111.52 121.008 112.048 121.008C112.534 121.008 112.923 120.911 113.215 120.716C113.511 120.517 113.659 120.253 113.659 119.925Z" fill="#F7F7F7"/>
<path d="M148.68 32.45C149.72 32.45 149.72 30.84 148.68 30.84C147.64 30.84 147.64 32.45 148.68 32.45Z" fill="#F7F7F7"/>
<path d="M145.46 32.45C146.5 32.45 146.5 30.84 145.46 30.84C144.42 30.84 144.42 32.45 145.46 32.45Z" fill="#F7F7F7"/>
<path d="M151.9 32.45C152.94 32.45 152.94 30.84 151.9 30.84C150.87 30.84 150.86 32.45 151.9 32.45Z" fill="#F7F7F7"/>
<defs>
<linearGradient id="paint0_linear" x1="-38.5831" y1="51.3885" x2="205.756" y2="295.727" gradientUnits="userSpaceOnUse">
<stop stop-color="#3D4962"/>
<stop offset="1" stop-color="#182442"/>
</linearGradient>
<linearGradient id="paint1_linear" x1="61.7418" y1="240.338" x2="104.661" y2="283.258" gradientUnits="userSpaceOnUse">
<stop stop-color="#FF1469"/>
<stop offset="1" stop-color="#D2004C"/>
</linearGradient>
</defs>
</svg>
